<svg width="224" height="137" viewBox="0 0 224 137" fill="none" xmlns="http://www.w3.org/2000/svg">
<path d="M222.55 136.646H97.8233C97.439 136.645 97.0705 136.469 96.7987 136.157C96.527 135.844 96.3741 135.42 96.3736 134.978V1.66844C96.3741 1.22612 96.527 0.802082 96.7987 0.489314C97.0705 0.176546 97.439 0.000578901 97.8233 0H222.55C222.935 0.000578901 223.303 0.176546 223.575 0.489314C223.847 0.802082 224 1.22612 224 1.66844V134.977C224 135.42 223.847 135.844 223.575 136.156C223.303 136.469 222.935 136.645 222.55 136.646V136.646ZM97.8233 0.666063C97.593 0.666641 97.3722 0.772204 97.2093 0.959651C97.0465 1.1471 96.9547 1.40116 96.9542 1.66625V134.977C96.9547 135.242 97.0465 135.496 97.2093 135.684C97.3722 135.871 97.593 135.977 97.8233 135.977H222.55C222.781 135.977 223.001 135.871 223.164 135.684C223.327 135.497 223.419 135.242 223.419 134.977V1.66844C223.419 1.40335 223.327 1.14929 223.164 0.96184C223.001 0.774393 222.781 0.66883 222.55 0.668252L97.8233 0.666063Z" fill="#E6E6E6"/>
<path d="M156.759 34.6408C156.498 34.6408 156.248 34.7602 156.063 34.9726C155.879 35.185 155.775 35.4731 155.775 35.7735C155.775 36.0739 155.879 36.3621 156.063 36.5745C156.248 36.7869 156.498 36.9063 156.759 36.9063H210.764C211.025 36.9063 211.275 36.7869 211.46 36.5745C211.645 36.3621 211.748 36.0739 211.748 35.7735C211.748 35.4731 211.645 35.185 211.46 34.9726C211.275 34.7602 211.025 34.6408 210.764 34.6408H156.759Z" fill="#E6E6E6"/>
<path d="M156.759 41.4377C156.498 41.4377 156.248 41.5571 156.063 41.7695C155.879 41.9819 155.775 42.2701 155.775 42.5705C155.775 42.8709 155.879 43.159 156.063 43.3714C156.248 43.5838 156.498 43.7032 156.759 43.7032H184.33C184.591 43.7032 184.841 43.5838 185.026 43.3714C185.21 43.159 185.314 42.8709 185.314 42.5705C185.314 42.2701 185.21 41.9819 185.026 41.7695C184.841 41.5571 184.591 41.4377 184.33 41.4377H156.759Z" fill="#E6E6E6"/>
<path d="M109.557 74.3359C109.296 74.3359 109.046 74.4552 108.861 74.6676C108.676 74.8801 108.573 75.1682 108.573 75.4686C108.573 75.769 108.676 76.0571 108.861 76.2696C109.046 76.482 109.296 76.6013 109.557 76.6013H210.817C211.078 76.6013 211.328 76.482 211.513 76.2696C211.697 76.0571 211.801 75.769 211.801 75.4686C211.801 75.1682 211.697 74.8801 211.513 74.6676C211.328 74.4552 211.078 74.3359 210.817 74.3359H109.557Z" fill="#E6E6E6"/>
<path d="M109.557 81.1328C109.296 81.1328 109.046 81.2521 108.861 81.4646C108.676 81.677 108.573 81.9651 108.573 82.2655C108.573 82.5659 108.676 82.854 108.861 83.0665C109.046 83.2789 109.296 83.3982 109.557 83.3982H184.382C184.643 83.3982 184.894 83.2789 185.078 83.0665C185.263 82.854 185.367 82.5659 185.367 82.2655C185.367 81.9651 185.263 81.677 185.078 81.4646C184.894 81.2521 184.643 81.1328 184.382 81.1328H109.557Z" fill="#E6E6E6"/>
<path d="M109.557 87.776C109.296 87.776 109.046 87.8953 108.861 88.1077C108.676 88.3202 108.573 88.6083 108.573 88.9087C108.573 89.2091 108.676 89.4972 108.861 89.7096C109.046 89.9221 109.296 90.0414 109.557 90.0414H210.817C211.078 90.0414 211.328 89.9221 211.513 89.7096C211.697 89.4972 211.801 89.2091 211.801 88.9087C211.801 88.6083 211.697 88.3202 211.513 88.1077C211.328 87.8953 211.078 87.776 210.817 87.776H109.557Z" fill="#E6E6E6"/>
<path d="M109.557 94.5728C109.296 94.5728 109.046 94.6922 108.861 94.9046C108.676 95.117 108.573 95.4052 108.573 95.7056C108.573 96.006 108.676 96.2941 108.861 96.5065C109.046 96.719 109.296 96.8383 109.557 96.8383H184.382C184.643 96.8383 184.894 96.719 185.078 96.5065C185.263 96.2941 185.367 96.006 185.367 95.7056C185.367 95.4052 185.263 95.117 185.078 94.9046C184.894 94.6922 184.643 94.5728 184.382 94.5728H109.557Z" fill="#E6E6E6"/>
<path d="M143.111 58.506H64.8232C64.4389 58.5055 64.0704 58.3296 63.7986 58.0168C63.5268 57.704 63.374 57.2799 63.3735 56.8376V17.2966C63.374 16.8543 63.5268 16.4302 63.7986 16.1174C64.0704 15.8046 64.4389 15.6287 64.8232 15.6282H143.111C143.495 15.6287 143.863 15.8046 144.135 16.1174C144.407 16.4302 144.56 16.8543 144.56 17.2966V56.8376C144.56 57.2799 144.407 57.704 144.135 58.0168C143.863 58.3296 143.495 58.5055 143.111 58.506Z" fill="#D44000"/>
<path d="M210.191 121.018H180.516C180.131 121.017 179.763 120.841 179.491 120.529C179.219 120.216 179.066 119.792 179.066 119.349V113.877C179.066 113.435 179.219 113.011 179.491 112.698C179.763 112.385 180.131 112.21 180.516 112.209H210.191C210.575 112.21 210.943 112.385 211.215 112.698C211.487 113.011 211.64 113.435 211.64 113.877V119.349C211.64 119.792 211.487 120.216 211.215 120.529C210.943 120.841 210.575 121.017 210.191 121.018Z" fill="#D44000"/>
<path d="M34.3372 66.922C33.0584 65.8232 32.683 63.77 33.4989 62.336C33.58 62.1956 33.6716 62.0637 33.7729 61.9418L33.8546 32.7302L37.6275 33.5408L37.7932 62.2713C38.6528 63.4188 38.8263 65.0912 38.1301 66.3148C37.3142 67.7488 35.6161 68.0207 34.3372 66.922Z" fill="#FFB8B8"/>
<path d="M53.958 132.307L57.8475 132.306L59.6981 115.04L53.9575 115.04L53.958 132.307Z" fill="#FFB8B8"/>
<path d="M52.9659 130.845L60.6259 130.845H60.6262C61.9208 130.845 63.1624 131.437 64.0778 132.49C64.9933 133.544 65.5076 134.973 65.5077 136.463V136.645L52.9661 136.646L52.9659 130.845Z" fill="#2F2E41"/>
<path d="M17.79 132.307L21.6799 132.306L23.5301 115.04L17.7895 115.04L17.79 132.307Z" fill="#FFB8B8"/>
<path d="M16.798 130.845L24.458 130.845H24.4583C25.7529 130.845 26.9945 131.437 27.9099 132.49C28.8254 133.544 29.3397 134.973 29.3398 136.463V136.645L16.7982 136.646L16.798 130.845Z" fill="#2F2E41"/>
<path d="M53.731 127.484L53.405 125.233C53.0701 125.098 52.7856 124.835 52.5988 124.488C52.2487 123.852 52.1929 122.956 52.4329 121.825L49.8085 96.3178L36.1072 79.9571L27.3175 104.357L23.8379 123.665V126.455L16.8908 127.482L17.2069 124.852C16.9412 124.721 16.7197 124.494 16.5761 124.205C16.177 123.441 16.1825 122.256 16.5923 120.683L16.6101 120.615L16.5874 120.38C16.5715 120.216 16.6759 104.444 20.7496 96.6304L24.8295 72.9064C24.7235 72.5723 24.2004 70.627 25.1597 67.34C26.1065 64.0961 28.7543 58.8702 35.992 52.396L36.0169 52.3739L36.0477 52.3664C36.1279 52.3474 44.1107 50.5208 48.2392 56.7343L48.2671 56.7763V56.8293C48.2671 57.2134 48.2599 66.1529 47.6458 68.1365L57.4424 88.868C57.6332 89.1006 59.3459 91.3768 58.7375 97.3616L60.3201 117.762C60.5012 118.16 62.1393 121.906 60.3338 123.39L60.6575 125.966L53.731 127.484Z" fill="#2F2E41"/>
<path d="M37.3423 41.7579C35.5028 41.7579 33.0584 41.0096 31.562 37.5606L31.5326 37.4929L35.219 28.4993C35.6966 27.3341 36.5515 26.4303 37.6007 25.9813C38.6499 25.5323 39.8101 25.5737 40.8331 26.0967C41.8562 26.6196 42.6607 27.5826 43.0747 28.7796C43.4886 29.9766 43.4791 31.3125 43.0481 32.5015L39.861 41.2948L39.8055 41.3185C39.0096 41.6128 38.1783 41.761 37.3423 41.7579V41.7579Z" fill="#D44000"/>
<path d="M47.5538 59.5888L35.9324 53.2729L37.5298 30.8431L40.4421 26.7466L41.0063 26.6076C43.5991 25.9687 46.2932 26.1404 48.8088 27.1049L48.8641 27.1262L53.6478 38.8711C53.6778 38.9297 57.1276 45.9395 52.3586 49.6353L47.5538 59.5888Z" fill="#D44000"/>
<path d="M63.5305 52.4407C63.3918 52.5072 63.2579 52.5862 63.13 52.677L50.8839 46.2299L50.5697 42.4822L45.5933 42.2886L45.5892 48.9855C45.5889 49.5265 45.741 50.053 46.0229 50.4861C46.3047 50.9191 46.7009 51.2352 47.1521 51.387L61.8576 56.3332C62.0087 56.9763 62.3263 57.5512 62.7681 57.9815C63.21 58.4118 63.7552 58.6771 64.3313 58.7421C64.9074 58.807 65.487 58.6686 65.993 58.3452C66.4991 58.0218 66.9076 57.5287 67.1642 56.9316C67.4208 56.3345 67.5134 55.6616 67.4296 55.0024C67.3458 54.3433 67.0897 53.7291 66.6952 53.2416C66.3008 52.754 65.7867 52.4163 65.2214 52.2732C64.656 52.1302 64.0663 52.1886 63.5305 52.4407L63.5305 52.4407Z" fill="#FFB8B8"/>
<path d="M48.5514 44.0816C47.156 44.0816 45.5812 43.5263 44.0696 41.7866L44.023 41.733L45.0443 31.8587C45.1767 30.5794 45.7388 29.4105 46.6104 28.6021C47.482 27.7937 48.5939 27.41 49.7082 27.5331C50.8225 27.6562 51.8507 28.2763 52.5727 29.2608C53.2948 30.2453 53.6534 31.5159 53.5719 32.8008L52.969 42.303L52.9228 42.3456C52.8932 42.3729 50.9985 44.0816 48.5514 44.0816Z" fill="#D44000"/>
<path d="M52.2858 18.9331C54.35 14.5871 52.9622 9.13804 49.186 6.7623C45.4099 4.38656 40.6752 5.98377 38.611 10.3298C36.5468 14.6758 37.9346 20.1248 41.7107 22.5006C45.4869 24.8763 50.2215 23.2791 52.2858 18.9331Z" fill="#FFB8B8"/>
<path d="M53.3789 9.87971C52.9922 7.29142 51.1869 5.14579 49.0363 4.26788C46.8855 3.38997 44.4603 3.67548 42.3542 4.68646C42.0035 4.85558 41.6606 5.04535 41.3268 5.255C40.557 3.5663 38.6698 2.58687 36.9436 2.69258C34.8582 2.82028 32.975 4.09019 31.1638 5.28703C29.3527 6.48388 27.4092 7.67468 25.3213 7.61894C21.5483 7.51827 18.7412 3.49238 15.1131 2.29594C13.498 1.76334 11.7795 1.81722 10.192 2.45021C8.60444 3.08321 7.22527 4.26449 6.24262 5.83289C5.25998 7.40128 4.72171 9.28041 4.70126 11.2139C4.68081 13.1474 5.17917 15.041 6.12835 16.6365C7.6764 13.4436 11.3118 12.3652 14.4663 12.7999C17.6206 13.2346 20.5605 14.8259 23.6507 15.6735C26.7411 16.5212 30.3202 16.4848 32.7139 14.081C34.0718 12.7175 34.869 10.7686 36.051 9.20326C36.8507 8.14447 37.989 7.25044 39.152 7.04C38.0064 8.22738 37.1318 9.72047 36.6051 11.388C35.6725 14.4376 36.1711 18.0993 38.1058 20.4433C40.1799 22.9563 43.4352 23.626 46.4466 23.5854L46.5096 23.5117C45.5876 21.9233 44.86 19.7209 45.8751 18.2096C46.8772 16.7179 48.8536 16.9376 50.3882 16.2775C52.5257 15.3581 53.7654 12.468 53.3789 9.87971Z" fill="#2F2E41"/>
<path d="M74.4125 137H0.271579C0.199551 137 0.130474 136.967 0.0795433 136.908C0.0286124 136.85 0 136.77 0 136.687C0 136.605 0.0286124 136.525 0.0795433 136.466C0.130474 136.408 0.199551 136.375 0.271579 136.375H74.4125C74.4845 136.375 74.5536 136.408 74.6045 136.466C74.6555 136.525 74.6841 136.605 74.6841 136.687C74.6841 136.77 74.6555 136.85 74.6045 136.908C74.5536 136.967 74.4845 137 74.4125 137Z" fill="#CCCCCC"/>
<path d="M100.454 29.4962C100.114 29.4975 99.8391 30.0056 99.8398 30.6312C99.8405 31.255 100.115 31.7604 100.454 31.7616H129.478C129.818 31.7604 130.093 31.2523 130.092 30.6267C130.091 30.0029 129.817 29.4974 129.478 29.4962H100.454Z" fill="white"/>
<path d="M100.454 36.06C100.114 36.0612 99.8391 36.5694 99.8398 37.1949C99.8405 37.8188 100.115 38.3242 100.454 38.3254H129.478C129.818 38.3242 130.093 37.816 130.092 37.1905C130.091 36.5666 129.817 36.0612 129.478 36.06H100.454Z" fill="white"/>
<path d="M100.454 42.5444C100.114 42.5456 99.8391 43.0538 99.8398 43.6793C99.8405 44.3032 100.115 44.8086 100.454 44.8098H112.943C113.283 44.8086 113.558 44.3004 113.557 43.6749C113.557 43.051 113.282 42.5456 112.943 42.5444H100.454Z" fill="white"/>
<path d="M85.7177 46.1313C90.0673 46.1313 93.5934 42.0731 93.5934 37.0671C93.5934 32.0611 90.0673 28.0029 85.7177 28.0029C81.368 28.0029 77.8419 32.0611 77.8419 37.0671C77.8419 42.0731 81.368 46.1313 85.7177 46.1313Z" fill="white"/>
</svg>
