<svg width="80" height="80" viewBox="0 0 80 80" fill="none" xmlns="http://www.w3.org/2000/svg">
<path d="M70 38.3333C70.0115 42.7329 68.9836 47.0729 67 51C64.6481 55.7058 61.0325 59.6639 56.5582 62.4309C52.0838 65.198 46.9275 66.6646 41.6667 66.6667C37.2671 66.6781 32.927 65.6502 29 63.6667L10 70L16.3333 51C14.3498 47.0729 13.3219 42.7329 13.3333 38.3333C13.3354 33.0725 14.802 27.9162 17.5691 23.4418C20.3361 18.9675 24.2942 15.3519 29 13C32.927 11.0164 37.2671 9.98852 41.6667 9.99999H43.3333C50.2812 10.3833 56.8435 13.3159 61.7638 18.2362C66.6841 23.1565 69.6167 29.7188 70 36.6667V38.3333Z" stroke="#D44000" stroke-width="2" stroke-linecap="round" stroke-linejoin="round"/>
<circle cx="42" cy="40" r="4" fill="white"/>
<circle cx="26" cy="40" r="4" fill="white"/>
<circle cx="58" cy="40" r="4" fill="white"/>
</svg>
