<svg width="89" height="45" viewBox="0 0 89 45" fill="none" xmlns="http://www.w3.org/2000/svg">
<rect y="17" width="89" height="28" rx="14" fill="#2E2727"/>
<path d="M11.324 28.148V26.24H14.648V35H12.512V28.148H11.324ZM16.0517 30.5C16.0517 29.124 16.3157 28.04 16.8437 27.248C17.3797 26.456 18.2397 26.06 19.4237 26.06C20.6077 26.06 21.4637 26.456 21.9917 27.248C22.5277 28.04 22.7957 29.124 22.7957 30.5C22.7957 31.892 22.5277 32.984 21.9917 33.776C21.4637 34.568 20.6077 34.964 19.4237 34.964C18.2397 34.964 17.3797 34.568 16.8437 33.776C16.3157 32.984 16.0517 31.892 16.0517 30.5ZM20.7797 30.5C20.7797 29.692 20.6917 29.072 20.5157 28.64C20.3397 28.2 19.9757 27.98 19.4237 27.98C18.8717 27.98 18.5077 28.2 18.3317 28.64C18.1557 29.072 18.0677 29.692 18.0677 30.5C18.0677 31.044 18.0997 31.496 18.1637 31.856C18.2277 32.208 18.3557 32.496 18.5477 32.72C18.7477 32.936 19.0397 33.044 19.4237 33.044C19.8077 33.044 20.0957 32.936 20.2877 32.72C20.4877 32.496 20.6197 32.208 20.6837 31.856C20.7477 31.496 20.7797 31.044 20.7797 30.5ZM23.8798 30.5C23.8798 29.124 24.1438 28.04 24.6718 27.248C25.2078 26.456 26.0678 26.06 27.2518 26.06C28.4358 26.06 29.2918 26.456 29.8198 27.248C30.3558 28.04 30.6238 29.124 30.6238 30.5C30.6238 31.892 30.3558 32.984 29.8198 33.776C29.2918 34.568 28.4358 34.964 27.2518 34.964C26.0678 34.964 25.2078 34.568 24.6718 33.776C24.1438 32.984 23.8798 31.892 23.8798 30.5ZM28.6078 30.5C28.6078 29.692 28.5198 29.072 28.3438 28.64C28.1678 28.2 27.8038 27.98 27.2518 27.98C26.6998 27.98 26.3358 28.2 26.1598 28.64C25.9838 29.072 25.8958 29.692 25.8958 30.5C25.8958 31.044 25.9278 31.496 25.9918 31.856C26.0558 32.208 26.1838 32.496 26.3758 32.72C26.5758 32.936 26.8678 33.044 27.2518 33.044C27.6358 33.044 27.9238 32.936 28.1158 32.72C28.3158 32.496 28.4478 32.208 28.5118 31.856C28.5758 31.496 28.6078 31.044 28.6078 30.5ZM31.54 28.448C31.54 27.8 31.724 27.3 32.092 26.948C32.468 26.596 32.952 26.42 33.544 26.42C34.136 26.42 34.616 26.596 34.984 26.948C35.352 27.3 35.536 27.8 35.536 28.448C35.536 29.096 35.352 29.596 34.984 29.948C34.616 30.3 34.136 30.476 33.544 30.476C32.952 30.476 32.468 30.3 32.092 29.948C31.724 29.596 31.54 29.096 31.54 28.448ZM39.688 26.552L35.068 35H33.088L37.708 26.552H39.688ZM33.532 27.62C33.148 27.62 32.956 27.896 32.956 28.448C32.956 28.992 33.148 29.264 33.532 29.264C33.716 29.264 33.86 29.196 33.964 29.06C34.068 28.924 34.12 28.72 34.12 28.448C34.12 27.896 33.924 27.62 33.532 27.62ZM37.252 33.104C37.252 32.456 37.436 31.956 37.804 31.604C38.172 31.252 38.652 31.076 39.244 31.076C39.836 31.076 40.316 31.252 40.684 31.604C41.052 31.956 41.236 32.456 41.236 33.104C41.236 33.752 41.052 34.252 40.684 34.604C40.316 34.956 39.836 35.132 39.244 35.132C38.652 35.132 38.172 34.956 37.804 34.604C37.436 34.252 37.252 33.752 37.252 33.104ZM39.232 32.276C39.048 32.276 38.904 32.344 38.8 32.48C38.704 32.616 38.656 32.824 38.656 33.104C38.656 33.648 38.848 33.92 39.232 33.92C39.416 33.92 39.56 33.852 39.664 33.716C39.768 33.58 39.82 33.376 39.82 33.104C39.82 32.832 39.768 32.628 39.664 32.492C39.56 32.348 39.416 32.276 39.232 32.276Z" fill="white"/>
<path d="M52.1923 26.576V35H50.1403V31.532H46.9483V35H44.8963V26.576H46.9483V29.876H50.1403V26.576H52.1923ZM53.2657 31.64C53.2657 30.952 53.3937 30.348 53.6497 29.828C53.9137 29.308 54.2697 28.908 54.7177 28.628C55.1657 28.348 55.6657 28.208 56.2177 28.208C56.6897 28.208 57.1017 28.304 57.4537 28.496C57.8137 28.688 58.0897 28.94 58.2817 29.252V28.304H60.3337V35H58.2817V34.052C58.0817 34.364 57.8017 34.616 57.4417 34.808C57.0897 35 56.6777 35.096 56.2057 35.096C55.6617 35.096 55.1657 34.956 54.7177 34.676C54.2697 34.388 53.9137 33.984 53.6497 33.464C53.3937 32.936 53.2657 32.328 53.2657 31.64ZM58.2817 31.652C58.2817 31.14 58.1377 30.736 57.8497 30.44C57.5697 30.144 57.2257 29.996 56.8177 29.996C56.4097 29.996 56.0617 30.144 55.7737 30.44C55.4937 30.728 55.3537 31.128 55.3537 31.64C55.3537 32.152 55.4937 32.56 55.7737 32.864C56.0617 33.16 56.4097 33.308 56.8177 33.308C57.2257 33.308 57.5697 33.16 57.8497 32.864C58.1377 32.568 58.2817 32.164 58.2817 31.652ZM63.8702 26.12V35H61.8182V26.12H63.8702ZM64.9493 31.64C64.9493 30.952 65.0773 30.348 65.3333 29.828C65.5973 29.308 65.9533 28.908 66.4013 28.628C66.8493 28.348 67.3493 28.208 67.9013 28.208C68.3733 28.208 68.7853 28.304 69.1373 28.496C69.4973 28.688 69.7733 28.94 69.9653 29.252V28.304H72.0173V35H69.9653V34.052C69.7653 34.364 69.4853 34.616 69.1253 34.808C68.7733 35 68.3613 35.096 67.8893 35.096C67.3453 35.096 66.8493 34.956 66.4013 34.676C65.9533 34.388 65.5973 33.984 65.3333 33.464C65.0773 32.936 64.9493 32.328 64.9493 31.64ZM69.9653 31.652C69.9653 31.14 69.8213 30.736 69.5333 30.44C69.2533 30.144 68.9093 29.996 68.5013 29.996C68.0933 29.996 67.7453 30.144 67.4573 30.44C67.1773 30.728 67.0373 31.128 67.0373 31.64C67.0373 32.152 67.1773 32.56 67.4573 32.864C67.7453 33.16 68.0933 33.308 68.5013 33.308C68.9093 33.308 69.2533 33.16 69.5333 32.864C69.8213 32.568 69.9653 32.164 69.9653 31.652ZM75.5538 26.12V35H73.5018V26.12H75.5538Z" fill="#D44000"/>
<path d="M65.502 0.0428198L77.2493 17.2172L53.8633 17.291L65.502 0.0428198Z" fill="#2E2727"/>
</svg>
