<svg width="20" height="20" viewBox="0 0 20 20" fill="none" xmlns="http://www.w3.org/2000/svg">
<path d="M15 0H5C2.23858 0 0 2.23858 0 5V15C0 17.7614 2.23858 20 5 20H15C17.7614 20 20 17.7614 20 15V5C20 2.23858 17.7614 0 15 0Z" fill="#161212"/>
<path d="M14 9.37C14.1234 10.2022 13.9812 11.0522 13.5937 11.799C13.2062 12.5458 12.5931 13.1514 11.8416 13.5297C11.0901 13.9079 10.2384 14.0396 9.40774 13.9059C8.57708 13.7723 7.80971 13.3801 7.21479 12.7852C6.61987 12.1902 6.22768 11.4229 6.09402 10.5922C5.96035 9.76155 6.09202 8.90989 6.47028 8.15837C6.84854 7.40685 7.45414 6.79374 8.20094 6.40624C8.94773 6.01874 9.79771 5.87658 10.63 6C11.4789 6.12588 12.2648 6.52146 12.8716 7.1283C13.4785 7.73515 13.8741 8.52107 14 9.37Z" fill="#161212" stroke="white" stroke-width="2" stroke-linecap="round" stroke-linejoin="round"/>
<path d="M15.5 4.5H15.51" stroke="white" stroke-width="2" stroke-linecap="round" stroke-linejoin="round"/>
</svg>
