<svg width="161" height="50" viewBox="0 0 161 50" fill="none" xmlns="http://www.w3.org/2000/svg">
<path d="M62.528 25.368C62.528 24.2587 62.768 23.272 63.248 22.408C63.728 21.5333 64.3947 20.856 65.248 20.376C66.112 19.8853 67.088 19.64 68.176 19.64C69.5093 19.64 70.6507 19.992 71.6 20.696C72.5493 21.4 73.184 22.36 73.504 23.576H70.496C70.272 23.1067 69.952 22.7493 69.536 22.504C69.1307 22.2587 68.6667 22.136 68.144 22.136C67.3013 22.136 66.6187 22.4293 66.096 23.016C65.5733 23.6027 65.312 24.3867 65.312 25.368C65.312 26.3493 65.5733 27.1333 66.096 27.72C66.6187 28.3067 67.3013 28.6 68.144 28.6C68.6667 28.6 69.1307 28.4773 69.536 28.232C69.952 27.9867 70.272 27.6293 70.496 27.16H73.504C73.184 28.376 72.5493 29.336 71.6 30.04C70.6507 30.7333 69.5093 31.08 68.176 31.08C67.088 31.08 66.112 30.84 65.248 30.36C64.3947 29.8693 63.728 29.192 63.248 28.328C62.768 27.464 62.528 26.4773 62.528 25.368ZM80.6675 21.976C81.6915 21.976 82.5128 22.3173 83.1315 23C83.7502 23.672 84.0595 24.6 84.0595 25.784V31H81.3395V26.152C81.3395 25.5547 81.1848 25.0907 80.8755 24.76C80.5662 24.4293 80.1502 24.264 79.6275 24.264C79.1048 24.264 78.6888 24.4293 78.3795 24.76C78.0702 25.0907 77.9155 25.5547 77.9155 26.152V31H75.1795V19.16H77.9155V23.272C78.1928 22.8773 78.5715 22.5627 79.0515 22.328C79.5315 22.0933 80.0702 21.976 80.6675 21.976ZM87.3368 21.144C86.8568 21.144 86.4621 21.0053 86.1528 20.728C85.8541 20.44 85.7048 20.088 85.7048 19.672C85.7048 19.2453 85.8541 18.8933 86.1528 18.616C86.4621 18.328 86.8568 18.184 87.3368 18.184C87.8061 18.184 88.1901 18.328 88.4888 18.616C88.7981 18.8933 88.9528 19.2453 88.9528 19.672C88.9528 20.088 88.7981 20.44 88.4888 20.728C88.1901 21.0053 87.8061 21.144 87.3368 21.144ZM88.6968 22.072V31H85.9608V22.072H88.6968Z" fill="white"/>
<path d="M93.6061 25.368C93.6061 24.2587 93.8461 23.272 94.3261 22.408C94.8061 21.5333 95.4728 20.856 96.3261 20.376C97.1901 19.8853 98.1661 19.64 99.2541 19.64C100.587 19.64 101.729 19.992 102.678 20.696C103.627 21.4 104.262 22.36 104.582 23.576H101.574C101.35 23.1067 101.03 22.7493 100.614 22.504C100.209 22.2587 99.7448 22.136 99.2221 22.136C98.3795 22.136 97.6968 22.4293 97.1741 23.016C96.6515 23.6027 96.3901 24.3867 96.3901 25.368C96.3901 26.3493 96.6515 27.1333 97.1741 27.72C97.6968 28.3067 98.3795 28.6 99.2221 28.6C99.7448 28.6 100.209 28.4773 100.614 28.232C101.03 27.9867 101.35 27.6293 101.574 27.16H104.582C104.262 28.376 103.627 29.336 102.678 30.04C101.729 30.7333 100.587 31.08 99.2541 31.08C98.1661 31.08 97.1901 30.84 96.3261 30.36C95.4728 29.8693 94.8061 29.192 94.3261 28.328C93.8461 27.464 93.6061 26.4773 93.6061 25.368ZM111.746 21.976C112.77 21.976 113.591 22.3173 114.21 23C114.828 23.672 115.138 24.6 115.138 25.784V31H112.418V26.152C112.418 25.5547 112.263 25.0907 111.954 24.76C111.644 24.4293 111.228 24.264 110.706 24.264C110.183 24.264 109.767 24.4293 109.458 24.76C109.148 25.0907 108.994 25.5547 108.994 26.152V31H106.258V19.16H108.994V23.272C109.271 22.8773 109.65 22.5627 110.13 22.328C110.61 22.0933 111.148 21.976 111.746 21.976ZM118.415 21.144C117.935 21.144 117.54 21.0053 117.231 20.728C116.932 20.44 116.783 20.088 116.783 19.672C116.783 19.2453 116.932 18.8933 117.231 18.616C117.54 18.328 117.935 18.184 118.415 18.184C118.884 18.184 119.268 18.328 119.567 18.616C119.876 18.8933 120.031 19.2453 120.031 19.672C120.031 20.088 119.876 20.44 119.567 20.728C119.268 21.0053 118.884 21.144 118.415 21.144ZM119.775 22.072V31H117.039V22.072H119.775ZM121.214 26.536C121.214 25.608 121.4 24.7973 121.774 24.104C122.158 23.4107 122.686 22.8773 123.358 22.504C124.04 22.1307 124.819 21.944 125.694 21.944C126.814 21.944 127.747 22.2373 128.494 22.824C129.251 23.4107 129.747 24.2373 129.982 25.304H127.07C126.824 24.6213 126.35 24.28 125.646 24.28C125.144 24.28 124.744 24.4773 124.446 24.872C124.147 25.256 123.998 25.8107 123.998 26.536C123.998 27.2613 124.147 27.8213 124.446 28.216C124.744 28.6 125.144 28.792 125.646 28.792C126.35 28.792 126.824 28.4507 127.07 27.768H129.982C129.747 28.8133 129.251 29.6347 128.494 30.232C127.736 30.8293 126.803 31.128 125.694 31.128C124.819 31.128 124.04 30.9413 123.358 30.568C122.686 30.1947 122.158 29.6613 121.774 28.968C121.4 28.2747 121.214 27.464 121.214 26.536ZM136.901 31L134.181 27.256V31H131.445V19.16H134.181V25.704L136.885 22.072H140.261L136.549 26.552L140.293 31H136.901ZM149.752 26.392C149.752 26.648 149.736 26.9147 149.704 27.192H143.512C143.554 27.7467 143.73 28.1733 144.04 28.472C144.36 28.76 144.749 28.904 145.208 28.904C145.89 28.904 146.365 28.616 146.632 28.04H149.544C149.394 28.6267 149.122 29.1547 148.728 29.624C148.344 30.0933 147.858 30.4613 147.272 30.728C146.685 30.9947 146.029 31.128 145.304 31.128C144.429 31.128 143.65 30.9413 142.968 30.568C142.285 30.1947 141.752 29.6613 141.368 28.968C140.984 28.2747 140.792 27.464 140.792 26.536C140.792 25.608 140.978 24.7973 141.352 24.104C141.736 23.4107 142.269 22.8773 142.952 22.504C143.634 22.1307 144.418 21.944 145.304 21.944C146.168 21.944 146.936 22.1253 147.608 22.488C148.28 22.8507 148.802 23.368 149.176 24.04C149.56 24.712 149.752 25.496 149.752 26.392ZM146.952 25.672C146.952 25.2027 146.792 24.8293 146.472 24.552C146.152 24.2747 145.752 24.136 145.272 24.136C144.813 24.136 144.424 24.2693 144.104 24.536C143.794 24.8027 143.602 25.1813 143.528 25.672H146.952ZM156.635 21.976C157.68 21.976 158.512 22.3173 159.131 23C159.76 23.672 160.075 24.6 160.075 25.784V31H157.355V26.152C157.355 25.5547 157.2 25.0907 156.891 24.76C156.582 24.4293 156.166 24.264 155.643 24.264C155.12 24.264 154.704 24.4293 154.395 24.76C154.086 25.0907 153.931 25.5547 153.931 26.152V31H151.195V22.072H153.931V23.256C154.208 22.8613 154.582 22.552 155.051 22.328C155.52 22.0933 156.048 21.976 156.635 21.976Z" fill="#D44000"/>
<circle cx="25" cy="25" r="25" fill="#D44000"/>
<path d="M14.1484 36.131L14.0944 21.1694C22.8792 23.6078 27.9194 23.9933 37.0261 23.6818L33.4399 38.5263C32.9729 39.3667 32.5373 39.5511 31.7211 39.8154C28.7665 40.3712 27.0703 40.3793 23.9968 40.0238C20.4214 39.6859 18.5285 39.2493 15.3536 38.0742C14.6302 37.4804 14.3577 37.0609 14.1484 36.131Z" fill="#FFEBE0" stroke="#612004" stroke-width="0.4"/>
<rect width="19.6457" height="3.56744" transform="matrix(0.993459 0.114186 -0.136364 0.990659 14.1992 35.1938)" fill="#D44000" fill-opacity="0.4"/>
<rect width="21.0128" height="5.78612" transform="matrix(0.989624 0.143681 -0.171307 0.985218 15.7982 18.6045)" fill="#D44000" fill-opacity="0.4"/>
<path d="M25.138 32.1809C23.8754 32.4202 22.3144 31.7799 21.9132 31.8618C21.512 31.9438 21.332 32.197 21.1686 32.6393C21.1261 33.0971 21.1694 33.3356 21.2984 33.7465C21.63 34.3554 21.8376 34.5415 22.2163 34.8101C22.8377 35.1344 23.2035 35.1871 23.8647 35.2164C24.6983 35.1004 25.0941 34.9326 25.6555 34.4209C26.085 33.799 26.2846 33.4324 26.1272 32.6436C25.9187 32.2358 25.6762 32.1682 25.138 32.1809Z" fill="#101524"/>
<path d="M23.4332 33.3502C22.7741 33.4066 22.5779 33.4621 22.2154 33.7161C22.4075 34.1978 22.65 34.3783 23.2908 34.5521C24.1712 34.59 24.581 34.5006 25.0531 33.9969C24.467 33.5211 24.2072 33.4268 23.4332 33.3502Z" fill="#D42600"/>
<path d="M21.5572 28.9615C21.6261 30.2279 20.7533 31.3019 19.6076 31.3605C18.4619 31.419 17.4772 30.4399 17.4083 29.1735C17.3393 27.9072 18.2122 26.8332 19.3579 26.7746C20.5036 26.7161 21.4882 27.6952 21.5572 28.9615Z" fill="#101524"/>
<path d="M30.7511 30.4433C30.4074 31.6718 29.2855 32.4661 28.2452 32.2175C27.2049 31.9688 26.6402 30.7713 26.9839 29.5428C27.3276 28.3143 28.4495 27.5199 29.4898 27.7686C30.5301 28.0172 31.0948 29.2147 30.7511 30.4433Z" fill="#101524"/>
<path d="M20.9879 29.0344C21.0311 29.5122 20.775 29.9223 20.416 29.9502C20.057 29.9781 19.731 29.6134 19.6879 29.1355C19.6448 28.6576 19.9009 28.2476 20.2599 28.2197C20.6189 28.1918 20.9448 28.5565 20.9879 29.0344Z" fill="white"/>
<path d="M28.8767 29.9113C28.7879 30.3742 28.4304 30.703 28.0782 30.6457C27.7261 30.5885 27.5126 30.1668 27.6014 29.7039C27.6902 29.241 28.0477 28.9122 28.3999 28.9694C28.752 29.0267 28.9655 29.4484 28.8767 29.9113Z" fill="white"/>
<path d="M10.978 22.5989C11.6237 22.9423 12.0993 23.0506 12.7247 23.0151C13.2391 22.986 13.7076 22.7418 14.093 22.3997C14.4178 22.1115 14.6226 21.7023 14.9302 21.3957C15.1954 21.1312 15.5393 21.0758 16.0253 20.9974L16.0365 20.9955C17.2212 20.7037 17.9111 20.5903 19.2884 20.6749C21.6412 20.5785 22.9941 20.595 25.4309 20.6749C27.3001 20.941 28.3839 21.0666 30.208 21.5595C30.3951 21.6101 30.5784 21.6764 30.7556 21.755L35.5328 23.8749C35.9774 24.0722 36.2482 24.5225 36.2426 25.0088C36.2411 25.1363 36.2414 25.2654 36.2439 25.4041C36.251 25.809 36.5882 26.1263 36.9932 26.1263C37.8793 26.0205 38.4674 25.8609 38.8694 25.5532C39.5114 25.062 39.6827 24.0913 39.3668 23.3473C39.1346 22.8003 38.8221 22.2772 38.7998 22.2782C38.7689 22.2797 40.1324 21.6746 41.1452 21.047C41.7811 20.6529 42.1691 19.9658 42.179 19.2178C42.1812 19.0513 42.1733 18.8844 42.1533 18.706C42.1086 18.3072 41.9593 17.9261 41.7319 17.5954C41.1661 16.7726 40.5525 16.3322 39.6306 15.9021C39.0908 15.6504 38.4891 15.5506 37.8997 15.636C36.198 15.8824 34.9481 16.4666 34.8253 16.5061C34.8076 16.5118 34.8031 16.4778 34.8086 16.4137C34.9386 14.8849 35.0946 12.8666 34.1026 11.6961C32.8572 10.5555 32.0742 10.0466 30.4894 9.45135C28.6753 8.90123 27.6062 8.84805 26.1551 9.23443C25.6726 9.36291 25.1708 9.49036 24.7471 9.75448C23.8618 10.3063 22.5246 11.4676 22.5403 12.0167C22.5615 12.7568 21.7238 11.0243 19.6497 10.734C18.485 10.6532 17.7985 10.6546 16.8008 10.71C16.533 10.7249 16.2669 10.7681 16.009 10.842C15.291 11.0478 14.8015 11.2303 14.1817 11.5367C13.9722 11.6403 13.775 11.7675 13.5906 11.9112C12.8803 12.4649 12.4179 12.8629 11.7007 13.6201C11.1479 14.1848 10.9173 14.5837 10.7181 15.203C10.6457 15.4282 10.6006 15.7108 10.591 15.9473C10.5417 17.1696 13.3425 19.1927 12.1244 19.0799C12.1068 19.0783 12.086 19.0755 12.062 19.0715C11.6483 19.0029 11.2125 19.1734 10.778 19.5647C10.0938 20.181 9.77631 21.2656 10.29 22.0298C10.4466 22.2628 10.6636 22.439 10.978 22.5989Z" fill="#FFEBE0" stroke="#612004" stroke-width="0.4"/>
<path d="M29.2724 12.1976C28.9027 11.5835 28.6551 11.2454 28.0385 10.6695C27.9179 11.0544 27.8481 11.2696 27.5705 11.6114C27.2138 11.9356 26.9383 12.0586 26.4181 12.2556C25.9373 12.423 25.7216 12.5673 25.429 12.9105C25.2776 13.1528 25.2404 13.3219 25.1975 13.64C25.2241 13.9993 25.2607 14.1988 25.3987 14.5485C25.5763 14.9841 25.5948 15.172 25.5402 15.4788C25.3897 15.6238 25.1813 15.6295 24.7045 15.5167C24.3707 15.2941 24.2674 15.0985 24.2207 14.641C24.2522 14.2152 24.3045 13.9898 24.4071 13.5913C24.1169 13.7778 23.8087 14.0898 23.7666 14.1613C23.7244 14.2327 23.4802 14.5937 23.4251 14.8888C23.3756 15.1672 23.3507 15.3238 23.3601 15.6138C23.3968 15.8942 23.4314 16.0538 23.5685 16.3514C23.7675 16.7409 23.9171 16.9468 24.3493 17.2591C24.9573 17.611 25.331 17.7808 26.1036 17.9946C26.753 18.1186 27.1147 18.175 27.746 18.1957C27.2913 18.0071 27.0742 17.8652 26.779 17.5241C26.6005 17.3006 26.5326 17.171 26.5428 16.9229C26.6898 16.5914 26.789 16.463 27.0107 16.3877C27.4563 16.2527 27.718 16.2024 28.2134 16.174C28.6925 16.105 28.9464 16.0517 29.3451 15.902C29.6966 15.6898 29.8508 15.5548 29.9477 15.2477C30.0554 14.9456 30.026 14.7744 29.8585 14.4667C29.7037 14.786 29.5627 14.9422 29.1398 15.1493C28.8493 15.2737 28.6489 15.3025 28.2291 15.2847C27.8615 15.2031 27.7135 15.1237 27.5899 14.9004C27.5549 14.7116 27.5552 14.6021 27.6384 14.3918C27.8843 14.2276 28.0227 14.136 28.2748 13.9777C28.7123 13.7455 28.9387 13.6073 29.1867 13.2948C29.416 12.881 29.4504 12.642 29.2724 12.1976Z" fill="url(#paint0_linear_249:359)"/>
<path d="M30.0634 16.4398L30.332 15.5285C30.6651 15.8254 30.9412 16.1114 31.081 16.3216C31.2209 16.5318 31.271 16.7433 31.2258 16.8299C31.1805 16.9165 30.9858 17.0145 30.8104 17.1074C30.5891 17.2375 30.472 17.3154 30.2696 17.4587C30.1649 17.5756 30.135 17.6531 30.1924 17.8375C30.2781 17.9872 30.3633 18.0547 30.6004 18.1377C30.744 18.1623 30.8231 18.1639 30.9601 18.1329C30.9601 18.1329 31.1924 18.0763 31.2942 17.9831C31.396 17.8899 31.444 17.826 31.54 17.7253C31.5767 18.0579 31.5261 18.2266 31.3793 18.5131C31.1025 18.694 30.9013 18.7403 30.4768 18.7437C29.9471 18.6892 29.6685 18.6474 29.2836 18.5052C28.7707 18.2377 28.6142 18.0541 28.4842 17.6884C28.5019 17.3023 28.6868 17.1578 29.132 16.9474L30.0634 16.4398Z" fill="url(#paint1_linear_249:359)"/>
<path d="M22.6614 14.8444C22.5695 14.7126 22.2741 14.3673 22.0244 14.1788L21.9039 14.7697C21.8739 15.0168 21.7779 15.0952 21.6385 15.2591C21.4508 15.3829 21.2818 15.4072 21.069 15.4806L20.6455 15.6629C20.4576 15.7782 20.3697 15.8513 20.2712 16.0097C20.2 16.1388 20.1716 16.213 20.2002 16.3581C20.2255 16.4874 20.25 16.5578 20.3286 16.676C20.4013 16.8135 20.4775 16.878 20.6234 16.9894C20.8134 17.09 20.9525 17.1456 21.2339 17.2439C21.4777 17.3259 21.6168 17.3528 21.866 17.3923C22.1246 17.4245 22.2759 17.4335 22.5824 17.3978C22.8036 17.3339 22.9193 17.2906 23.0481 17.144C23.1805 16.9884 23.216 16.8947 23.2445 16.7218C23.2747 16.5655 23.254 16.4778 23.1882 16.3216L23.0524 16.5814C22.9765 16.666 22.9227 16.7094 22.7923 16.7744C22.6659 16.8364 22.5798 16.8418 22.4202 16.8398C22.2407 16.7831 22.1497 16.7438 22.0173 16.6499C21.9415 16.5158 21.9085 16.4494 21.8828 16.3623C21.8645 16.2424 21.9035 16.1887 21.9918 16.0982L22.3743 15.8466C22.5371 15.7719 22.6006 15.7296 22.7091 15.6571L22.7176 15.6514C22.8542 15.5559 22.9054 15.4925 22.9428 15.359C22.9503 15.2703 22.7917 15.0312 22.6614 14.8444Z" fill="url(#paint2_linear_249:359)"/>
<path d="M15.1859 17.9629C14.8247 19.2504 14.8374 19.9119 15.5498 20.8947M24.6455 18.3294C24.4397 19.3658 24.4723 19.9207 24.6455 20.8947M25.3732 20.1618C25.3379 20.452 25.3411 20.6165 25.3732 20.8947M32.6499 21.2612C32.6073 21.8197 32.5191 22.0506 32.2861 22.3607M33.7414 22.3607C33.5163 22.7278 33.3516 22.8801 33.0137 23.0936" stroke="#612004" stroke-width="0.3"/>
<path d="M14.6212 21.5833C13.4241 23.3941 13.6172 23.7572 13.5074 24.9163C16.2594 24.4391 17.9048 24.3223 20.9327 24.2497C24.1215 24.1206 25.9841 24.248 29.4717 24.9163C32.2458 25.64 33.7882 26.2354 36.5257 27.5826C36.6556 26.4003 36.6789 25.692 36.5257 24.2497L34.2981 23.2498C32.7153 22.109 30.1901 21.7441 29.843 21.5833C29.4959 21.4225 26.3944 20.6705 24.2741 20.5834C21.8356 20.5166 20.4593 20.5023 17.9626 20.5834C16.6428 20.7369 16.0155 20.8586 14.6212 21.5833Z" fill="#FFEBE0" stroke="#612004" stroke-width="0.3"/>
<rect x="18.566" y="19.8867" width="1.44529" height="1.28269" fill="#FFEBE0"/>
<rect x="14.2301" y="20.5281" width="1.44529" height="1.28269" fill="#FFEBE0"/>
<rect width="1.28049" height="2.35184" transform="matrix(0.24289 -0.970054 0.981102 0.193491 28.828 21.7524)" fill="#FFEBE0"/>
<rect width="1.28049" height="0.796614" transform="matrix(0.24289 -0.970054 0.981102 0.193491 33.7415 23.6941)" fill="#FFEBE0"/>
<path d="M35.8907 33.5097L39.1193 31.5585L39.9954 32.6587L37.5182 34.4275C37.4329 35.6226 37.1602 36.0908 36.3903 36.6709C35.7302 37.1645 35.3136 37.2008 34.4807 36.8064C34.2225 36.4308 34.1645 36.1895 34.2272 35.7373C33.6677 35.7516 33.4467 35.6054 33.1666 35.156C33.1379 34.9679 33.1245 34.8604 33.1772 34.6064C33.5487 34.0641 33.8121 33.8381 34.4298 33.6457C34.9771 33.4645 35.2932 33.414 35.8907 33.5097Z" fill="#FFEBE0"/>
<path d="M38.1158 31.6095L37.5586 32.4481L37.8085 32.5547L37.7311 32.9783L38.2529 33.0704L38.034 33.5315L38.5559 33.6237L38.5227 33.8052L39.2413 33.5573C39.8903 33.6736 40.2515 33.7006 40.8942 33.7243C41.4598 33.693 41.7804 33.6708 42.4066 33.5541C43.2773 33.4164 43.7371 33.2895 44.4751 32.92C45.7163 32.3009 46.3471 31.8893 47.1461 30.8305C47.5498 30.3927 47.6888 30.0568 47.879 29.3983C47.9991 28.7662 47.9816 28.4069 47.775 27.7558C47.4018 27.2638 47.1844 26.997 46.7015 26.6292C46.5935 26.4518 46.5176 26.3737 46.3654 26.2575C46.1717 26.124 46.0494 26.0545 45.7462 25.9608C45.3122 25.8168 45.053 25.7819 44.5611 25.8139C44.1024 25.8372 43.8761 25.9001 43.5052 26.0648L42.3732 26.3646L41.513 26.6499C40.8318 27.0702 40.4652 27.3187 39.9432 27.8719C39.3072 28.3148 39.0263 28.6513 38.6552 29.3935L38.1158 31.6095Z" fill="#943414"/>
<path d="M13.1014 31.2114L10.7642 28.2772L9.55321 29.0089L11.2503 31.5148C10.9072 32.6644 10.9972 33.1967 11.5139 34.004C11.9582 34.6927 12.336 34.8692 13.2567 34.7846C13.6318 34.5207 13.7716 34.3144 13.8729 33.869C14.3925 34.0739 14.6515 34.0125 15.0733 33.6871C15.1668 33.5205 15.2174 33.4243 15.2579 33.1681C15.1015 32.5326 14.9344 32.2306 14.4233 31.8388C13.9741 31.4817 13.6955 31.3261 13.1014 31.2114Z" fill="#FFEBE0"/>
<path d="M11.6873 28.6687L11.913 29.6456L11.6409 29.66L11.5635 30.0836L11.0415 29.9914L11.0836 30.4986L10.5616 30.4064L10.5285 30.5879L9.94229 30.1096C9.29255 29.9966 8.94421 29.8983 8.33317 29.7005C7.81374 29.4776 7.52098 29.347 6.97506 29.0234C6.20721 28.5962 5.82093 28.32 5.25969 27.721C4.31482 26.7159 3.8689 26.1141 3.49442 24.8481C3.27081 24.2994 3.25934 23.937 3.31402 23.2546C3.42509 22.6209 3.5687 22.29 3.9929 21.7503C4.51708 21.4168 4.81537 21.2411 5.39844 21.0615C5.56254 20.9321 5.66135 20.885 5.84521 20.8281C6.07405 20.7692 6.21344 20.7459 6.53086 20.7618C6.98882 20.7754 7.24427 20.8313 7.69429 21.0297C8.11617 21.2085 8.30618 21.3449 8.59565 21.6262L9.55121 22.2947L10.2568 22.8566C10.7469 23.4838 11.0028 23.8421 11.2965 24.5394C11.7361 25.1723 11.8804 25.5839 11.9658 26.4066L11.6873 28.6687Z" fill="#943414"/>
<defs>
<linearGradient id="paint0_linear_249:359" x1="27.213" y1="10.5369" x2="25.4693" y2="21.396" gradientUnits="userSpaceOnUse">
<stop stop-color="#D42600"/>
<stop offset="1" stop-color="#D44000" stop-opacity="0.69"/>
</linearGradient>
<linearGradient id="paint1_linear_249:359" x1="27.213" y1="10.5369" x2="25.4693" y2="21.396" gradientUnits="userSpaceOnUse">
<stop stop-color="#D42600"/>
<stop offset="1" stop-color="#D44000" stop-opacity="0.69"/>
</linearGradient>
<linearGradient id="paint2_linear_249:359" x1="27.213" y1="10.5369" x2="25.4693" y2="21.396" gradientUnits="userSpaceOnUse">
<stop stop-color="#D42600"/>
<stop offset="1" stop-color="#D44000" stop-opacity="0.69"/>
</linearGradient>
</defs>
</svg>
