<svg width="91" height="22" viewBox="0 0 91 22" fill="none" xmlns="http://www.w3.org/2000/svg">
<path d="M1 15.8989C1 14.775 1.07461 13.8113 1.90375 13.0282C2.54926 12.4185 3.58092 12.4225 4.34918 12.0713C5.15665 11.7021 6.24095 12.0404 7.07371 12.0713C7.95194 12.1038 8.77411 12.6234 9.63875 12.8155C10.0727 12.912 10.4128 13.0032 10.8083 13.201C11.1803 13.387 11.7519 13.2331 12.0576 13.5066C12.9078 14.2673 14.0678 14.515 15.0878 14.942C15.697 15.197 16.315 15.3169 16.9684 15.5401C17.4478 15.7038 17.9908 15.7685 18.437 16.0119C18.5956 16.0984 18.7575 16.2372 18.942 16.2578C19.6426 16.3356 20.5199 17.1744 21.1482 17.507C22.5619 18.2555 23.7915 19.0933 25.3746 19.5803C26.2362 19.8454 27.1399 20.1182 28.0592 20.0854C28.9683 20.0529 29.6676 19.4867 30.4515 19.1551C31.1607 18.855 31.9083 18.1839 32.5713 17.7529C32.9308 17.5192 33.5413 17.1551 33.8406 16.8558C34.1603 16.5361 34.3822 16.1913 34.731 15.8923C34.9375 15.7153 35.0103 15.4712 35.2228 15.2942C35.6959 14.8999 36.1918 14.5542 36.6847 14.1844C37.6771 13.4401 38.7903 13.1433 39.9076 12.6693C40.5651 12.3904 41.0972 12.4417 41.8281 12.4301C42.6588 12.4169 43.3597 11.9517 44.1805 11.9517C44.5393 11.9517 44.8982 11.9517 45.257 11.9517C46.4815 11.9517 48.1307 12.3666 49.1511 13.0548C49.5766 13.3417 50.0114 13.6233 50.4934 13.8123C50.9271 13.9824 51.4127 13.9783 51.8424 14.1778C52.3543 14.4155 52.8181 14.7509 53.3309 14.9885C53.9133 15.2584 54.4018 15.2225 54.866 15.7261C55.7789 16.7168 57.2562 16.8748 58.4145 17.4539C58.8129 17.6531 59.1881 17.6547 59.5043 17.9257C59.7982 18.1776 60.1817 18.1716 60.541 18.1716C61.1796 18.1716 61.7427 18.65 62.3883 18.65C63.1991 18.65 63.9644 19.0089 64.7806 19.0089C65.5347 19.0089 66.475 19.2675 67.1994 19.1019C68.1877 18.876 69.0504 18.6154 70.0702 18.5304C70.8106 18.4687 71.5975 17.3783 72.17 16.9489C72.8352 16.45 73.5604 15.7741 74.0772 15.1281C74.5125 14.584 75.0441 14.4352 75.5192 13.9851C76.252 13.2909 76.9662 13.0226 77.9647 12.882C78.5711 12.7966 79.0998 12.4451 79.7057 12.3105C80.1055 12.2216 80.482 12.0906 80.8753 11.9782C81.7985 11.7145 82.7499 12.2894 83.6795 12.3105C84.357 12.3259 85.5865 12.3221 86.1117 12.789C86.2616 12.9223 86.6286 13.0615 86.8227 13.1478C87.2312 13.3293 87.6758 13.6286 88.0521 13.8655C88.3408 14.0473 89.0356 14.7411 89.0356 15.0616" stroke="white" stroke-width="2" stroke-linecap="round"/>
<path d="M1.0918 4.99876C1.0918 3.87485 1.1664 2.91112 1.99554 2.12804C2.64106 1.51839 3.67272 1.52233 4.44098 1.17113C5.24845 0.801998 6.33275 1.14029 7.16551 1.17113C8.04373 1.20366 8.8659 1.72325 9.73055 1.91539C10.1645 2.01183 10.5046 2.10306 10.9001 2.30081C11.2721 2.48681 11.8436 2.33292 12.1494 2.60649C12.9996 3.36717 14.1596 3.61489 15.1796 4.04185C15.7888 4.29685 16.4068 4.41679 17.0602 4.63992C17.5396 4.80361 18.0826 4.86834 18.5288 5.11173C18.6874 5.19825 18.8493 5.3371 19.0338 5.3576C19.7344 5.43544 20.6117 6.27425 21.24 6.6069C22.6537 7.35531 23.8833 8.19312 25.4664 8.6802C26.328 8.9453 27.2317 9.21807 28.151 9.18524C29.0601 9.15277 29.7594 8.58655 30.5433 8.25491C31.2525 7.95486 32.0001 7.28376 32.6631 6.85277C33.0226 6.6191 33.6331 6.25491 33.9324 5.95567C34.2521 5.63597 34.474 5.29114 34.8228 4.99212C35.0293 4.81511 35.1021 4.57108 35.3146 4.39405C35.7877 3.99973 36.2836 3.65401 36.7765 3.2843C37.7689 2.53999 38.8821 2.2432 39.9994 1.7692C40.6569 1.49027 41.189 1.54157 41.9199 1.52997C42.7506 1.51678 43.4515 1.05152 44.2723 1.05152C44.6311 1.05152 44.99 1.05152 45.3488 1.05152C46.5733 1.05152 48.2225 1.46645 49.2429 2.15462C49.6684 2.44156 50.1032 2.72315 50.5852 2.91217C51.0189 3.08226 51.5045 3.07817 51.9342 3.27766C52.4461 3.51532 52.9099 3.85072 53.4227 4.08837C54.0051 4.35826 54.4936 4.32234 54.9578 4.82599C55.8707 5.81661 57.348 5.97461 58.5063 6.55374C58.9047 6.75295 59.2799 6.75456 59.5961 7.02555C59.89 7.27748 60.2735 7.27142 60.6328 7.27142C61.2714 7.27142 61.8345 7.74987 62.4801 7.74987C63.2909 7.74987 64.0561 8.10871 64.8724 8.10871C65.6265 8.10871 66.5668 8.36734 67.2912 8.20175C68.2795 7.97587 69.1422 7.71524 70.162 7.63026C70.9024 7.56856 71.6893 6.47812 72.2618 6.0487C72.927 5.54985 73.6522 4.87399 74.169 4.22792C74.6043 3.68384 75.1359 3.53509 75.611 3.08495C76.3438 2.39072 77.058 2.12247 78.0565 1.98184C78.6629 1.89643 79.1916 1.54499 79.7975 1.41036C80.1973 1.3215 80.5738 1.19045 80.967 1.0781C81.8903 0.814321 82.8417 1.38923 83.7713 1.41036C84.4488 1.42575 85.6783 1.422 86.2035 1.88881C86.3534 2.02212 86.7204 2.16139 86.9145 2.24765C87.323 2.42919 87.7676 2.72842 88.1439 2.96533C88.4326 3.14712 89.1273 3.84091 89.1273 4.16147" stroke="white" stroke-width="2" stroke-linecap="round"/>
</svg>
