<svg width="224" height="137" viewBox="0 0 224 137" fill="none" xmlns="http://www.w3.org/2000/svg">
<g clip-path="url(#clip0)">
<path d="M148.155 112.004H14.3604V0H148.155V112.004Z" fill="white"/>
<path d="M148.155 112.004H14.3604V0H148.155V112.004ZM16.3207 110.666H146.195V1.33767H16.3207V110.666Z" fill="#E6E6E6"/>
<path d="M148.21 0H14.586V14.3279H148.21V0Z" fill="#D44000"/>
<path d="M33.7439 35.5725C40.027 35.5725 45.1205 31.8254 45.1205 27.203C45.1205 22.5807 40.027 18.8336 33.7439 18.8336C27.4608 18.8336 22.3673 22.5807 22.3673 27.203C22.3673 31.8254 27.4608 35.5725 33.7439 35.5725Z" fill="#E6E6E6"/>
<path d="M93.2365 21.2952H54.2664V23.7568H93.2365V21.2952Z" fill="#E6E6E6"/>
<path d="M140.149 27.203H54.2664V29.6646H140.149V27.203Z" fill="#E6E6E6"/>
<path d="M140.149 33.1109H54.2664V35.5725H140.149V33.1109Z" fill="#E6E6E6"/>
<path d="M33.7439 104.079C40.027 104.079 45.1205 100.332 45.1205 95.71C45.1205 91.0877 40.027 87.3405 33.7439 87.3405C27.4608 87.3405 22.3673 91.0877 22.3673 95.71C22.3673 100.332 27.4608 104.079 33.7439 104.079Z" fill="#E6E6E6"/>
<path d="M93.2365 89.8022H54.2664V92.2638H93.2365V89.8022Z" fill="#E6E6E6"/>
<path d="M140.149 95.71H54.2664V98.1716H140.149V95.71Z" fill="#E6E6E6"/>
<path d="M140.149 101.618H54.2664V104.079H140.149V101.618Z" fill="#E6E6E6"/>
<path d="M35.64 3.66093H18.6866V5.46611H35.64V3.66093Z" fill="white"/>
<path d="M35.64 6.77896H18.6866V8.58414H35.64V6.77896Z" fill="white"/>
<path d="M35.64 9.897H18.6866V11.7022H35.64V9.897Z" fill="white"/>
<path d="M162.516 77.3829H0V45.5302H162.516V77.3829Z" fill="white"/>
<path d="M162.516 77.3829H0V45.5302H162.516V77.3829ZM1.96025 75.9408H160.556V46.9723H1.96025V75.9408Z" fill="#CCCCCC"/>
<path d="M20.1674 69.6852C26.3793 69.6852 31.4151 65.9805 31.4151 61.4105C31.4151 56.8406 26.3793 53.1359 20.1674 53.1359C13.9554 53.1359 8.91965 56.8406 8.91965 61.4105C8.91965 65.9805 13.9554 69.6852 20.1674 69.6852Z" fill="#D44000"/>
<path d="M90.3003 54.4339H43.7656V56.8676H90.3003V54.4339Z" fill="#3F3D56"/>
<path d="M146.318 60.2748H43.7656V62.7085H146.318V60.2748Z" fill="#3F3D56"/>
<path d="M146.318 66.1157H43.7656V68.5494H146.318V66.1157Z" fill="#3F3D56"/>
<path d="M188.514 85.7791C188.657 85.7371 188.805 85.7035 188.955 85.6785L193.917 76.1939L191.812 74.2713L195.341 71.5544C196.36 72.6582 201.403 74.9837 199.868 76.6418L192.167 86.721C192.383 87.0051 192.509 87.3215 192.534 87.6465C192.56 87.9714 192.485 88.2965 192.316 88.5971C192.146 88.8978 191.886 89.1662 191.555 89.3823C191.224 89.5983 190.831 89.7564 190.405 89.8446C186.967 90.6028 185.169 86.7115 188.514 85.7791Z" fill="#EBC1AA"/>
<path d="M193.21 76.1532C192.32 76.342 188.958 72.4963 188.397 72.1618C187.727 71.6959 187.336 71.0536 187.309 70.3759C187.282 69.6982 187.622 69.0402 188.253 68.5464C188.885 68.0525 189.757 67.763 190.678 67.7414C191.599 67.7197 192.494 67.9677 193.167 68.4309L198.338 71.0936C198.484 71.1702 198.607 71.269 198.697 71.3833C198.788 71.4975 198.844 71.6247 198.862 71.7563C198.88 71.8878 198.86 72.0207 198.803 72.146C198.745 72.2713 198.652 72.3862 198.53 72.4829C197.911 72.7922 194.089 76.3893 193.21 76.1532Z" fill="#D44000"/>
<path d="M194.969 133.849L190.964 133.849L190.365 122.483L194.97 122.483L194.969 133.849Z" fill="#EBC1AA"/>
<path d="M195.991 136.705L183.076 136.705C182.955 131.676 191.691 133.047 195.991 132.887L195.991 136.705Z" fill="#2F2E41"/>
<path d="M208.014 132.879L204.036 133.218L200.362 122.09L206.234 121.589L208.014 132.879Z" fill="#EBC1AA"/>
<path d="M209.477 135.629L196.648 136.724C195.739 131.739 204.633 132.36 208.879 131.836L209.477 135.629Z" fill="#2F2E41"/>
<path d="M195.686 131.15H189.1V112.889L185.254 97.6435L179.993 84.0979L192.335 79.6806L194.688 82.4012C195.053 82.6453 200.949 86.6596 201.586 90.6373C202.234 94.6915 195.971 129.564 195.704 131.046L195.686 131.15Z" fill="#2F2E41"/>
<path d="M180.439 86.9351L178.405 80.3786C177.929 80.0412 173.416 76.6379 178.411 72.2886L181.043 67.2398L188.755 65.4825L191.77 67.1997C192.984 67.8904 193.949 68.7901 194.58 69.8197C195.21 70.8492 195.487 71.977 195.386 73.1039L194.563 82.3799L180.439 86.9351Z" fill="#2F2E41"/>
<path d="M187.041 54.6072C194.988 57.9339 188.464 66.7113 180.37 63.5857C172.423 60.2592 178.947 51.4818 187.041 54.6072Z" fill="#EBC1AA"/>
<path d="M165.181 66.434C165.207 66.5558 165.219 66.6789 165.218 66.8022L177.649 72.9962L180.933 71.8283L183.977 75.2439C182.138 75.7668 177.553 79.1239 175.543 77.5214L162.929 69.0479C162.467 69.1463 161.981 69.1664 161.507 69.1066C161.033 69.0469 160.583 68.9088 160.192 68.7029C159.801 68.497 159.479 68.2285 159.249 67.9177C159.019 67.6069 158.888 67.2618 158.866 66.9084C158.619 64.0447 164.661 63.5996 165.181 66.434Z" fill="#EBC1AA"/>
<path d="M177.881 72.4554C177.828 71.7157 184.188 70.0415 184.808 69.6861C185.643 69.279 186.663 69.1322 187.645 69.2777C188.627 69.4232 189.49 69.8492 190.046 70.4623C190.602 71.0754 190.804 71.8256 190.609 72.5484C190.414 73.2711 189.837 73.9075 189.006 74.318L183.904 77.6917C183.758 77.787 183.585 77.8582 183.399 77.9006C183.212 77.9429 183.015 77.9554 182.822 77.9373C182.628 77.9191 182.441 77.8707 182.275 77.7952C182.109 77.7198 181.967 77.6191 181.857 77.4998C181.564 76.9423 177.326 73.0819 177.881 72.4554Z" fill="#D44000"/>
<path d="M200.958 127.53L192.785 112.469L198.23 106.71L210.199 127.012L200.958 127.53Z" fill="#2F2E41"/>
<path d="M223.673 137H169.766C169.68 137 169.597 136.975 169.535 136.93C169.474 136.885 169.44 136.823 169.44 136.76C169.44 136.696 169.474 136.635 169.535 136.59C169.597 136.545 169.68 136.519 169.766 136.519H223.673C223.76 136.519 223.843 136.545 223.904 136.59C223.966 136.635 224 136.696 224 136.76C224 136.823 223.966 136.885 223.904 136.93C223.843 136.975 223.76 137 223.673 137Z" fill="#CCCCCC"/>
<path d="M208.35 58.9775C205.696 59.3377 202.918 58.7421 200.643 57.6728C198.368 56.6036 196.541 55.0921 194.919 53.5046C194.006 52.6109 193.123 51.6683 191.88 51.0251C190.637 50.3819 188.917 50.0967 187.59 50.6405C186.419 51.1199 185.903 52.3784 186.59 53.166C184.746 52.826 182.791 52.9283 180.927 53.2183C179.132 53.4978 177.308 53.9799 176.065 54.9734C174.823 55.9669 174.353 57.5812 175.403 58.6884L176.96 58.886C179.805 58.4087 181.119 58.6207 183.963 59.0979C183.867 58.7279 184.656 58.5309 185.056 58.7668C185.455 59.0026 185.312 59.4717 185.569 59.7972C186.668 61.1836 186.67 62.8849 186.108 64.1737C188.926 63.3128 190.991 60.9822 191.568 58.7781C191.853 57.8155 191.748 56.8125 191.266 55.8934C191.034 55.491 190.715 55.1185 190.323 54.7901C191.379 55.0181 192.353 55.4152 193.177 55.9529C194.628 56.8813 195.677 58.0931 196.836 59.2213C197.996 60.3496 199.35 61.4428 201.132 61.9741C203.865 62.7888 207.111 62.0762 209.354 60.6685C211.104 59.5701 212.342 58.1141 213.327 56.5723C212.759 57.1982 212.026 57.7337 211.171 58.1469C210.316 58.5601 209.357 58.8426 208.35 58.9775V58.9775Z" fill="#2F2E41"/>
<path d="M213.327 56.5723C213.682 56.1676 213.945 55.723 214.106 55.256C213.863 55.6977 213.605 56.1382 213.327 56.5723Z" fill="#2F2E41"/>
</g>
<defs>
<clipPath id="clip0">
<rect width="224" height="137" fill="white"/>
</clipPath>
</defs>
</svg>
