<svg width="43" height="44" viewBox="0 0 43 44" fill="none" xmlns="http://www.w3.org/2000/svg">
<path d="M35.8512 28.1967C33.6475 28.1967 31.5154 27.83 29.5267 27.17C28.8996 26.95 28.2008 27.115 27.7171 27.61L24.9042 31.2217C19.8337 28.7467 15.0858 24.0717 12.5596 18.7L16.0533 15.6567C16.5371 15.1433 16.6804 14.4283 16.4833 13.7867C15.8204 11.7517 15.48 9.57 15.48 7.315C15.48 6.325 14.6737 5.5 13.7063 5.5H7.50708C6.53958 5.5 5.375 5.94 5.375 7.315C5.375 24.3467 19.2246 38.5 35.8512 38.5C37.1233 38.5 37.625 37.345 37.625 36.3367V30.0117C37.625 29.0217 36.8188 28.1967 35.8512 28.1967Z" fill="#D42600"/>
</svg>
