<svg width="224" height="137" viewBox="0 0 224 137" fill="none" xmlns="http://www.w3.org/2000/svg">
<path d="M20.6717 136.786L20.6613 136.84C20.6489 136.788 20.6369 136.733 20.6256 136.68C20.6049 136.594 20.5869 136.508 20.5699 136.421C19.8973 133.03 20.2674 129.559 21.6483 126.309C21.9137 125.674 22.216 125.051 22.5552 124.44C23.8523 122.073 25.6912 119.922 27.9769 118.096C28.719 117.488 29.5657 116.968 30.4915 116.551C30.6274 116.494 30.764 116.439 30.9037 116.389C31.7599 116.056 32.7238 115.944 33.6626 116.068C34.0037 116.12 34.3342 116.209 34.6449 116.333C34.7538 116.375 34.8587 116.422 34.9616 116.471C35.5891 116.801 36.1249 117.23 36.5355 117.733C36.946 118.236 37.2224 118.802 37.3475 119.394C37.5258 120.278 37.485 121.182 37.2275 122.053C37.2053 122.136 37.1816 122.219 37.1562 122.302C36.9735 122.882 36.7441 123.453 36.4693 124.01C33.7185 129.678 27.8069 134.706 20.6717 136.786Z" fill="#F2F2F2"/>
<path d="M34.6265 116.351C32.4801 118.821 30.4525 121.353 28.5437 123.948C26.6372 126.541 24.8554 129.19 23.1983 131.894C22.2712 133.407 21.3848 134.935 20.5388 136.478C20.4451 136.649 20.7611 136.798 20.856 136.625C22.3668 133.869 24.0063 131.163 25.7745 128.504C27.5417 125.849 29.433 123.249 31.4483 120.706C32.576 119.284 33.7411 117.88 34.9437 116.497C35.0782 116.342 34.7605 116.197 34.6265 116.351Z" fill="white"/>
<path d="M36.9233 122.068C35.3103 123.746 32.9361 124.848 30.3154 125.135C29.5843 125.214 28.8441 125.226 28.1096 125.17C27.8746 125.152 27.8729 125.445 28.1059 125.463C30.8393 125.647 33.5531 124.96 35.6581 123.552C36.2485 123.156 36.7796 122.708 37.2404 122.214C37.3816 122.064 37.0634 121.918 36.9233 122.068V122.068Z" fill="white"/>
<path d="M23.1471 131.173C22.7721 130.746 22.4605 130.284 22.2187 129.799C21.6661 128.692 21.47 127.492 21.6483 126.309C21.9137 125.674 22.216 125.051 22.5552 124.44C22.5758 124.464 22.5881 124.492 22.5911 124.521C22.5941 124.55 22.5875 124.579 22.5721 124.606C22.3333 125.064 22.1616 125.543 22.0605 126.033C21.6974 127.781 22.2014 129.574 23.4649 131.028C23.4809 131.044 23.4916 131.063 23.4958 131.083C23.5001 131.103 23.4978 131.124 23.4893 131.143C23.4751 131.168 23.4529 131.191 23.4248 131.207C23.3967 131.223 23.3637 131.234 23.3291 131.237C23.2945 131.24 23.2595 131.236 23.2276 131.225C23.1957 131.213 23.1679 131.196 23.1471 131.173V131.173Z" fill="white"/>
<path d="M30.5462 116.366C30.1047 117.774 30.2362 119.259 30.9215 120.604C30.9457 120.637 30.9856 120.662 31.0323 120.672C31.079 120.682 31.1289 120.677 31.1712 120.658C31.2124 120.638 31.2425 120.606 31.2552 120.569C31.2679 120.532 31.2622 120.492 31.2393 120.458C30.5976 119.182 30.4786 117.776 30.8993 116.443C30.9102 116.406 30.9028 116.367 30.8785 116.334C30.8543 116.301 30.8151 116.278 30.7693 116.268C30.7235 116.258 30.6746 116.262 30.633 116.28C30.5913 116.299 30.5602 116.329 30.5462 116.366H30.5462Z" fill="white"/>
<path d="M20.6267 129.707L20.6489 129.759C20.6073 129.717 20.5653 129.674 20.5243 129.631C20.456 129.562 20.39 129.492 20.3247 129.422C17.762 126.669 16.0763 123.458 15.4136 120.066C15.2806 119.405 15.187 118.741 15.1328 118.074C14.9085 115.495 15.2888 112.906 16.2541 110.439C16.5585 109.625 17.0065 108.849 17.5846 108.136C17.6716 108.034 17.7609 107.935 17.8553 107.838C18.4206 107.225 19.2093 106.768 20.1128 106.528C20.4446 106.447 20.7889 106.403 21.1358 106.397C21.2569 106.394 21.3768 106.396 21.4967 106.402C22.2436 106.46 22.9674 106.642 23.6227 106.934C24.2781 107.227 24.8509 107.625 25.3054 108.103C25.976 108.82 26.4639 109.635 26.7413 110.502C26.77 110.584 26.797 110.666 26.8224 110.749C26.9975 111.331 27.1254 111.922 27.2051 112.517C28.0569 118.559 25.7388 125.211 20.6267 129.707Z" fill="#F2F2F2"/>
<path d="M21.1301 106.42C20.6621 109.406 20.3357 112.403 20.1508 115.411C19.9667 118.416 19.9251 121.424 20.0261 124.435C20.0827 126.12 20.1842 127.803 20.3303 129.484C20.3465 129.67 20.7125 129.684 20.6961 129.496C20.4358 126.494 20.3175 123.487 20.3413 120.475C20.3658 117.466 20.5328 114.461 20.8423 111.459C21.0155 109.78 21.2334 108.104 21.4959 106.432C21.5252 106.244 21.1593 106.233 21.1301 106.42V106.42Z" fill="white"/>
<path d="M26.4805 110.628C26.0259 112.715 24.5626 114.574 22.4078 115.802C21.8067 116.145 21.158 116.43 20.4747 116.654C20.2563 116.725 20.4249 116.986 20.6415 116.915C23.1689 116.061 25.1738 114.443 26.2209 112.413C26.5145 111.843 26.7244 111.248 26.8463 110.64C26.8841 110.454 26.518 110.444 26.4805 110.628V110.628Z" fill="white"/>
<path d="M19.5629 123.816C18.9827 123.577 18.4392 123.284 17.9434 122.945C16.8121 122.17 15.9421 121.18 15.4136 120.066C15.2806 119.405 15.187 118.741 15.1328 118.074C15.1649 118.087 15.192 118.107 15.2115 118.132C15.231 118.157 15.2421 118.185 15.2438 118.214C15.2983 118.709 15.4241 119.197 15.6189 119.669C16.3113 121.352 17.7973 122.751 19.7601 123.569C19.7834 123.578 19.8038 123.59 19.8192 123.607C19.8347 123.623 19.8447 123.642 19.8482 123.662C19.8505 123.69 19.8436 123.718 19.8283 123.743C19.8129 123.768 19.7897 123.789 19.7608 123.805C19.732 123.82 19.6985 123.83 19.6638 123.832C19.6291 123.834 19.5943 123.828 19.5629 123.816V123.816Z" fill="white"/>
<path d="M17.5254 107.951C17.9516 109.363 18.9293 110.628 20.3162 111.564C20.3572 111.585 20.4067 111.592 20.454 111.584C20.5013 111.575 20.5426 111.552 20.569 111.52C20.594 111.487 20.6021 111.447 20.5918 111.41C20.5814 111.372 20.5533 111.339 20.5133 111.317C19.205 110.426 18.2839 109.225 17.8829 107.888C17.8711 107.851 17.8419 107.819 17.8014 107.799C17.761 107.779 17.7125 107.773 17.6661 107.781C17.6197 107.789 17.5791 107.811 17.5529 107.843C17.5266 107.875 17.5168 107.913 17.5254 107.951L17.5254 107.951Z" fill="white"/>
<path d="M20.7851 136.822L20.8388 136.856C20.7753 136.839 20.7107 136.82 20.6473 136.802C20.5435 136.773 20.4411 136.743 20.3385 136.712C16.328 135.498 12.7478 133.519 9.90803 130.946C9.35167 130.447 8.82622 129.928 8.33169 129.389C6.40845 127.313 4.98738 124.967 4.14186 122.473C3.85043 121.655 3.70624 120.808 3.71363 119.958C3.71852 119.835 3.72704 119.713 3.74169 119.591C3.80563 118.83 4.16243 118.105 4.76292 117.513C4.98774 117.302 5.24805 117.116 5.53644 116.961C5.63647 116.907 5.73899 116.857 5.84391 116.81C6.51249 116.537 7.24422 116.378 7.9933 116.342C8.74239 116.306 9.49268 116.394 10.1972 116.601C11.2441 116.915 12.2034 117.392 13.0205 118.003C13.0997 118.06 13.1778 118.117 13.2548 118.176C13.7939 118.591 14.2988 119.033 14.7664 119.501C19.5479 124.225 22.0686 130.829 20.7851 136.822Z" fill="#F2F2F2"/>
<path d="M5.54708 116.983C7.1608 119.701 8.90136 122.367 10.7688 124.981C12.635 127.593 14.6232 130.146 16.7332 132.639C17.9139 134.034 19.1312 135.408 20.3853 136.762C20.5241 136.912 20.8419 136.766 20.7014 136.614C18.463 134.197 16.3411 131.714 14.3356 129.166C12.3324 126.62 10.4519 124.016 8.69379 121.353C7.7103 119.864 6.76675 118.358 5.86313 116.835C5.76203 116.665 5.44634 116.814 5.54708 116.983Z" fill="white"/>
<path d="M12.8857 118.222C13.9059 120.176 13.9232 122.373 12.9337 124.338C12.6576 124.886 12.3032 125.406 11.8776 125.889C11.7417 126.043 12.0589 126.19 12.1936 126.037C13.749 124.227 14.3504 122 13.8672 119.837C13.7315 119.231 13.5082 118.639 13.2017 118.074C13.1087 117.901 12.7933 118.05 12.8857 118.222Z" fill="white"/>
<path d="M15.9268 132.317C15.2769 132.366 14.6222 132.354 13.9758 132.281C12.5016 132.116 11.1028 131.657 9.90804 130.946C9.35167 130.447 8.82623 129.928 8.3317 129.389C8.36795 129.387 8.40435 129.392 8.4373 129.404C8.47025 129.417 8.49861 129.436 8.51959 129.459C8.89834 129.853 9.33274 130.21 9.81409 130.523C11.5293 131.643 13.7228 132.181 15.9268 132.024C15.9519 132.021 15.9777 132.023 16.0016 132.03C16.0255 132.037 16.0468 132.049 16.0633 132.064C16.084 132.087 16.0969 132.113 16.1008 132.141C16.1047 132.168 16.0995 132.196 16.0857 132.222C16.0719 132.248 16.0499 132.27 16.022 132.287C15.9942 132.303 15.9613 132.314 15.9268 132.317V132.317Z" fill="white"/>
<path d="M3.53947 119.828C4.84802 120.833 6.52321 121.478 8.32123 121.669C8.42005 121.679 8.50331 121.594 8.50425 121.522C8.5031 121.484 8.48346 121.447 8.44938 121.42C8.4153 121.392 8.36941 121.377 8.32123 121.376C6.61946 121.189 5.03568 120.575 3.79829 119.621C3.62864 119.49 3.36947 119.697 3.53946 119.828H3.53947Z" fill="white"/>
<path d="M45.7684 98.1647C46.1259 97.9684 46.4252 97.7119 46.6454 97.413C46.8657 97.1141 47.0014 96.7802 47.043 96.4347C47.0846 96.0893 47.0311 95.7408 46.8863 95.4137C46.7415 95.0866 46.5089 94.7889 46.2049 94.5416L47.3548 73.9876L41.5005 74.5138L41.8407 94.6185C41.3557 95.055 41.0875 95.6188 41.0869 96.2031C41.0863 96.7873 41.3534 97.3515 41.8376 97.7886C42.3217 98.2257 42.9893 98.5054 43.7137 98.5747C44.4382 98.644 45.1693 98.4981 45.7684 98.1647V98.1647Z" fill="#FFB8B8"/>
<path d="M56.4482 132.958L59.7802 133.427L63.0733 123.359L58.7076 122.667L56.4482 132.958Z" fill="#FFB8B8"/>
<path d="M65.6619 136.809L55.1902 135.335L55.9015 132.095L62.3273 133C62.8586 133.075 63.3663 133.232 63.8215 133.464C64.2766 133.696 64.6702 133.998 64.9799 134.351C65.2895 134.705 65.5091 135.104 65.6262 135.526C65.7432 135.948 65.7553 136.384 65.6619 136.809V136.809V136.809Z" fill="#2F2E41"/>
<path d="M47.3028 134.294L50.6859 134.293L52.2952 123.844L47.3023 123.844L47.3028 134.294Z" fill="#FFB8B8"/>
<path d="M57.2103 136.809L46.5779 136.809L46.5778 133.52L53.1021 133.519C54.1916 133.519 55.2365 133.866 56.0069 134.483C56.7774 135.1 57.2102 135.936 57.2103 136.809V136.809L57.2103 136.809Z" fill="#2F2E41"/>
<path d="M61.6939 131.432C61.6411 131.432 61.5884 131.43 61.5359 131.425L57.5541 131.162C57.3728 131.145 57.1977 131.099 57.0395 131.026C56.8813 130.953 56.7433 130.855 56.6338 130.738C56.5243 130.621 56.4456 130.488 56.4026 130.346C56.3595 130.203 56.353 130.056 56.3834 129.912L60.0602 113.41L57.5758 102.919C57.5555 102.834 57.4974 102.758 57.4123 102.704C57.3271 102.65 57.2206 102.623 57.1124 102.628C57.0042 102.632 56.9016 102.667 56.8235 102.727C56.7454 102.788 56.6971 102.868 56.6875 102.955L53.5816 130.935C53.5474 131.216 53.3785 131.475 53.1102 131.658C52.842 131.841 52.4956 131.934 52.144 131.916L48.3926 131.804C48.0638 131.785 47.755 131.671 47.5244 131.482C47.2937 131.294 47.1573 131.044 47.1408 130.781L46.8886 97.2449L66.3375 95.2983L67.6961 112.101L67.6907 112.119L63.0022 130.608C62.9308 130.843 62.763 131.052 62.5258 131.201C62.2886 131.351 61.9957 131.432 61.6939 131.432V131.432Z" fill="#2F2E41"/>
<path d="M53.3009 60.6684C57.044 60.6684 60.0784 58.2385 60.0784 55.2412C60.0784 52.2438 57.044 49.814 53.3009 49.814C49.5578 49.814 46.5235 52.2438 46.5235 55.2412C46.5235 58.2385 49.5578 60.6684 53.3009 60.6684Z" fill="#FFB8B8"/>
<path d="M59.6869 99.696C58.6269 99.701 57.5873 99.4629 56.691 99.0097C53.408 97.3666 49.6791 98.0196 47.7485 98.5552C47.557 98.6089 47.3527 98.6272 47.151 98.6088C46.9494 98.5904 46.7555 98.5358 46.5839 98.4489C46.4143 98.3636 46.271 98.2488 46.1647 98.1128C46.0584 97.9769 45.9919 97.8235 45.9701 97.6641L42.4594 72.5565C41.8711 68.3498 45.0356 64.3947 49.9838 63.1522C50.1696 63.1055 50.3587 63.0612 50.5509 63.0194C52.0907 62.6851 53.7033 62.625 55.2752 62.8435C56.8472 63.062 58.3402 63.5536 59.6493 64.2839C60.9827 65.0222 62.0979 65.9855 62.9163 67.1061C63.7348 68.2267 64.2365 69.4774 64.3864 70.77L67.3418 96.0458C67.362 96.2095 67.3344 96.3746 67.2613 96.5283C67.1881 96.6819 67.0715 96.8199 66.9204 96.9313C65.8844 97.6987 62.8774 99.6957 59.6869 99.696Z" fill="#D44000"/>
<path d="M48.9966 77.9407L41.0761 77.2433C40.8507 77.2235 40.6333 77.165 40.4388 77.0718C40.2442 76.9786 40.077 76.853 39.9485 76.7034C39.8201 76.5538 39.7334 76.3838 39.6944 76.2049C39.6553 76.0261 39.6649 75.8426 39.7224 75.667L41.7385 69.5138C41.8718 68.5911 42.4567 67.7484 43.3647 67.1704C44.2728 66.5925 45.43 66.3264 46.5827 66.4306C47.7353 66.5349 48.7893 67.0009 49.5136 67.7264C50.2379 68.452 50.5733 69.3779 50.4463 70.3012L50.7456 76.6375C50.7541 76.819 50.7137 76.9997 50.627 77.1675C50.5404 77.3353 50.4097 77.4861 50.2437 77.6098C50.0777 77.7335 49.8804 77.8271 49.6652 77.8842C49.45 77.9413 49.2219 77.9606 48.9966 77.9407V77.9407Z" fill="#D44000"/>
<path d="M67.3102 97.2846C67.6355 97.0553 67.8941 96.7717 68.0677 96.4537C68.2413 96.1357 68.3258 95.7912 68.3151 95.4442C68.3044 95.0973 68.1989 94.7565 68.0059 94.4457C67.813 94.135 67.5373 93.8619 67.1983 93.6457L65.2465 73.1306L59.5101 74.1647L62.8774 94.1432C62.4616 94.6234 62.2802 95.209 62.3676 95.789C62.4549 96.3691 62.805 96.9034 63.3514 97.2906C63.8978 97.6778 64.6026 97.891 65.3322 97.8899C66.0618 97.8888 66.7656 97.6734 67.3102 97.2846V97.2846Z" fill="#FFB8B8"/>
<path d="M57.3108 76.651C57.1448 76.5274 57.014 76.3766 56.9274 76.2088C56.8408 76.041 56.8004 75.8602 56.809 75.6788L57.1083 69.3425C56.9813 68.4192 57.3167 67.4933 58.041 66.7677C58.7653 66.0421 59.8193 65.5762 60.9719 65.4719C62.1246 65.3677 63.2818 65.6338 64.1899 66.2117C65.0979 66.7897 65.6828 67.6324 65.8161 68.5551L67.8322 74.7083C67.8897 74.8839 67.8992 75.0674 67.8602 75.2462C67.8212 75.4251 67.7345 75.5951 67.6061 75.7447C67.4776 75.8943 67.3104 76.0199 67.1158 76.1131C66.9213 76.2063 66.7039 76.2648 66.4785 76.2846L58.558 76.982C58.3326 77.0019 58.1045 76.9827 57.8893 76.9256C57.674 76.8685 57.4767 76.7748 57.3108 76.651V76.651Z" fill="#D44000"/>
<path d="M52.8978 60.8729C52.7773 60.8727 52.6572 60.8615 52.54 60.8394L52.5056 60.8327C46.5467 60.1027 45.2298 57.3389 44.9408 56.1846C44.6416 54.9896 44.9823 53.8361 45.7521 53.3881C45.3324 52.3269 45.3997 51.3859 45.9528 50.5902C46.9173 49.2025 49.0105 48.7332 49.2912 48.6758C50.9629 47.6883 52.9631 48.3475 53.327 48.4812C56.5606 47.5232 57.7966 48.3207 58.0201 48.4987C59.4656 48.7066 60.3466 49.1537 60.6391 49.8279C61.1885 51.0943 59.4511 52.6695 59.3769 52.736L59.3383 52.7704L56.7499 52.8692C56.5043 52.8785 56.2639 52.9292 56.0443 53.0177C55.8247 53.1063 55.6308 53.2309 55.4752 53.3833C55.3196 53.5357 55.2057 53.7127 55.141 53.9026C55.0762 54.0926 55.0621 54.2913 55.0995 54.4859V54.4859C55.1695 54.7371 55.258 54.9846 55.3645 55.2274C55.8066 56.3336 56.1378 57.2787 55.7106 57.638C55.6138 57.7075 55.4945 57.7538 55.3664 57.7716C55.2383 57.7894 55.1065 57.7779 54.9861 57.7385C54.5815 57.652 54.3067 57.6701 54.1698 57.7926C53.9572 57.9825 54.0221 58.4631 54.3525 59.1461C54.4561 59.3621 54.484 59.5966 54.4332 59.8244C54.3823 60.0521 54.2546 60.2644 54.0639 60.4381C53.9203 60.5738 53.7417 60.6829 53.5404 60.7579C53.3391 60.833 53.1198 60.8722 52.8978 60.8729Z" fill="#2F2E41"/>
<path d="M132.939 78.2226H99.5495C98.3057 78.2214 97.1134 77.8253 96.2339 77.1211C95.3545 76.4169 94.8598 75.462 94.8584 74.4661V34.2872C94.8598 33.2913 95.3545 32.3365 96.2339 31.6322C97.1134 30.928 98.3057 30.5319 99.5495 30.5308H132.939C134.182 30.5319 135.375 30.928 136.254 31.6322C137.134 32.3365 137.628 33.2913 137.63 34.2872V74.4661C137.628 75.462 137.134 76.4169 136.254 77.1211C135.375 77.8253 134.182 78.2214 132.939 78.2226V78.2226ZM99.5495 30.9727C98.4521 30.9737 97.4 31.3232 96.624 31.9446C95.848 32.566 95.4115 33.4085 95.4103 34.2872V74.4661C95.4115 75.3449 95.848 76.1874 96.624 76.8087C97.4 77.4301 98.4521 77.7796 99.5495 77.7806H132.939C134.036 77.7796 135.088 77.4301 135.864 76.8087C136.64 76.1874 137.077 75.3449 137.078 74.4661V34.2872C137.077 33.4085 136.64 32.566 135.864 31.9446C135.088 31.3232 134.036 30.9737 132.939 30.9727H99.5495Z" fill="#3F3D56"/>
<path d="M127.834 49.8469H104.654C104.032 49.8463 103.436 49.6483 102.997 49.2961C102.557 48.944 102.31 48.4666 102.309 47.9686V39.1299C102.31 38.632 102.557 38.1546 102.997 37.8024C103.436 37.4503 104.032 37.2523 104.654 37.2517H127.834C128.455 37.2523 129.052 37.4504 129.491 37.8025C129.931 38.1546 130.178 38.632 130.179 39.1299V47.9686C130.178 48.4666 129.931 48.944 129.491 49.2961C129.052 49.6482 128.455 49.8463 127.834 49.8469Z" fill="#D44000"/>
<path d="M126.178 58.1331H106.31C105.725 58.1331 105.163 57.9469 104.749 57.6154C104.335 57.2839 104.102 56.8342 104.102 56.3654C104.102 55.8966 104.335 55.4469 104.749 55.1154C105.163 54.7839 105.725 54.5977 106.31 54.5977H126.178C126.763 54.5977 127.325 54.7839 127.739 55.1154C128.153 55.4469 128.385 55.8966 128.385 56.3654C128.385 56.8342 128.153 57.2839 127.739 57.6154C127.325 57.9469 126.763 58.1331 126.178 58.1331Z" fill="#CCCCCC"/>
<path d="M126.178 64.7622H106.31C105.725 64.7622 105.163 64.5759 104.749 64.2444C104.335 63.9129 104.102 63.4633 104.102 62.9944C104.102 62.5256 104.335 62.076 104.749 61.7444C105.163 61.4129 105.725 61.2267 106.31 61.2267H126.178C126.763 61.2267 127.325 61.4129 127.739 61.7444C128.153 62.076 128.385 62.5256 128.385 62.9944C128.385 63.4633 128.153 63.9129 127.739 64.2444C127.325 64.5759 126.763 64.7622 126.178 64.7622Z" fill="#CCCCCC"/>
<path d="M126.178 71.3912H106.31C105.725 71.3912 105.163 71.205 104.749 70.8734C104.335 70.5419 104.102 70.0923 104.102 69.6235C104.102 69.1546 104.335 68.705 104.749 68.3735C105.163 68.042 105.725 67.8557 106.31 67.8557H126.178C126.763 67.8557 127.325 68.042 127.739 68.3735C128.153 68.705 128.385 69.1546 128.385 69.6235C128.385 70.0923 128.153 70.5419 127.739 70.8734C127.325 71.205 126.763 71.3912 126.178 71.3912Z" fill="#CCCCCC"/>
<path d="M214.342 100.761H180.953C179.709 100.76 178.517 100.364 177.637 99.6598C176.758 98.9556 176.263 98.0008 176.262 97.0049V56.8259C176.263 55.83 176.758 54.8752 177.637 54.171C178.517 53.4667 179.709 53.0706 180.953 53.0695H214.342C215.586 53.0706 216.778 53.4667 217.658 54.171C218.537 54.8752 219.032 55.83 219.033 56.8259V97.0049C219.032 98.0008 218.537 98.9556 217.658 99.6598C216.778 100.364 215.586 100.76 214.342 100.761ZM180.953 53.5114C179.855 53.5124 178.803 53.8619 178.027 54.4833C177.251 55.1047 176.815 55.9472 176.814 56.8259V97.0049C176.815 97.8836 177.251 98.7261 178.027 99.3475C178.803 99.9688 179.855 100.318 180.953 100.319H214.342C215.439 100.318 216.492 99.9688 217.268 99.3475C218.043 98.7261 218.48 97.8836 218.481 97.0049V56.8259C218.48 55.9472 218.043 55.1047 217.268 54.4833C216.492 53.8619 215.439 53.5124 214.342 53.5114H180.953Z" fill="#3F3D56"/>
<path d="M207.581 62.9944H187.713C187.128 62.9944 186.566 62.8082 186.152 62.4767C185.738 62.1452 185.506 61.6955 185.506 61.2267C185.506 60.7579 185.738 60.3082 186.152 59.9767C186.566 59.6452 187.128 59.459 187.713 59.459H207.581C208.167 59.459 208.728 59.6452 209.142 59.9767C209.556 60.3082 209.789 60.7579 209.789 61.2267C209.789 61.6955 209.556 62.1452 209.142 62.4767C208.728 62.8082 208.167 62.9944 207.581 62.9944Z" fill="#CCCCCC"/>
<path d="M207.581 69.6235H187.713C187.128 69.6235 186.566 69.4372 186.152 69.1057C185.738 68.7742 185.506 68.3246 185.506 67.8557C185.506 67.3869 185.738 66.9373 186.152 66.6057C186.566 66.2742 187.128 66.088 187.713 66.088H207.581C208.167 66.088 208.728 66.2742 209.142 66.6057C209.556 66.9373 209.789 67.3869 209.789 67.8557C209.789 68.3246 209.556 68.7742 209.142 69.1057C208.728 69.4372 208.167 69.6235 207.581 69.6235Z" fill="#CCCCCC"/>
<path d="M209.237 86.5275H186.058C185.436 86.5269 184.84 86.3288 184.4 85.9767C183.96 85.6246 183.713 85.1472 183.712 84.6492V75.8105C183.713 75.3126 183.96 74.8352 184.4 74.4831C184.84 74.1309 185.436 73.9329 186.058 73.9323H209.237C209.859 73.9329 210.455 74.1309 210.895 74.4831C211.334 74.8352 211.582 75.3126 211.583 75.8105V84.6492C211.582 85.1472 211.334 85.6246 210.895 85.9767C210.455 86.3288 209.859 86.5269 209.237 86.5275V86.5275Z" fill="#E6E6E6"/>
<path d="M207.581 94.3718H187.713C187.128 94.3718 186.566 94.1856 186.152 93.8541C185.738 93.5226 185.506 93.0729 185.506 92.6041C185.506 92.1353 185.738 91.6856 186.152 91.3541C186.566 91.0226 187.128 90.8364 187.713 90.8364H207.581C208.167 90.8364 208.728 91.0226 209.142 91.3541C209.556 91.6856 209.789 92.1353 209.789 92.6041C209.789 93.0729 209.556 93.5226 209.142 93.8541C208.728 94.1856 208.167 94.3718 207.581 94.3718Z" fill="#CCCCCC"/>
<path d="M193.922 36.9016H160.533C159.289 36.9005 158.097 36.5044 157.217 35.8002C156.338 35.0959 155.843 34.1411 155.842 33.1452V8.21306C155.843 7.21713 156.338 6.26231 157.217 5.55808C158.097 4.85385 159.289 4.45772 160.533 4.4566H193.922C195.166 4.45772 196.358 4.85385 197.238 5.55808C198.117 6.26231 198.612 7.21713 198.613 8.21306V33.1452C198.612 34.1411 198.117 35.0959 197.238 35.8002C196.358 36.5044 195.166 36.9005 193.922 36.9016V36.9016ZM160.533 4.89854C159.436 4.89953 158.384 5.24906 157.608 5.87044C156.832 6.49182 156.395 7.3343 156.394 8.21306V33.1452C156.395 34.0239 156.832 34.8664 157.608 35.4878C158.384 36.1092 159.436 36.4587 160.533 36.4597H193.922C195.02 36.4587 196.072 36.1092 196.848 35.4878C197.624 34.8664 198.06 34.0239 198.061 33.1452V8.21306C198.06 7.3343 197.624 6.49182 196.848 5.87044C196.072 5.24906 195.02 4.89953 193.922 4.89854H160.533Z" fill="#3F3D56"/>
<path d="M187.162 29.0759H167.294C166.708 29.0759 166.147 28.8896 165.733 28.5581C165.319 28.2266 165.086 27.777 165.086 27.3082C165.086 26.8393 165.319 26.3897 165.733 26.0582C166.147 25.7267 166.708 25.5404 167.294 25.5404H187.162C187.747 25.5404 188.308 25.7267 188.722 26.0582C189.136 26.3897 189.369 26.8393 189.369 27.3082C189.369 27.777 189.136 28.2266 188.722 28.5581C188.308 28.8896 187.747 29.0759 187.162 29.0759Z" fill="#CCCCCC"/>
<path d="M187.162 22.4469H167.294C166.708 22.4469 166.147 22.2606 165.733 21.9291C165.319 21.5976 165.086 21.148 165.086 20.6791C165.086 20.2103 165.319 19.7607 165.733 19.4291C166.147 19.0976 166.708 18.9114 167.294 18.9114H187.162C187.747 18.9114 188.308 19.0976 188.722 19.4291C189.136 19.7607 189.369 20.2103 189.369 20.6791C189.369 21.148 189.136 21.5976 188.722 21.9291C188.308 22.2606 187.747 22.4469 187.162 22.4469Z" fill="#CCCCCC"/>
<path d="M187.162 15.8178H167.294C166.708 15.8178 166.147 15.6316 165.733 15.3001C165.319 14.9686 165.086 14.5189 165.086 14.0501C165.086 13.5813 165.319 13.1316 165.733 12.8001C166.147 12.4686 166.708 12.2823 167.294 12.2823H187.162C187.747 12.2823 188.308 12.4686 188.722 12.8001C189.136 13.1316 189.369 13.5813 189.369 14.0501C189.369 14.5189 189.136 14.9686 188.722 15.3001C188.308 15.6316 187.747 15.8178 187.162 15.8178Z" fill="#CCCCCC"/>
<path d="M134.87 36.6806C138.375 36.6806 141.217 34.4052 141.217 31.5984C141.217 28.7915 138.375 26.5161 134.87 26.5161C131.365 26.5161 128.523 28.7915 128.523 31.5984C128.523 34.4052 131.365 36.6806 134.87 36.6806Z" fill="#D44000"/>
<path d="M134.241 33.5372C134.098 33.5374 133.959 33.5004 133.845 33.4318L133.838 33.4276L132.346 32.5131C132.277 32.4708 132.219 32.418 132.175 32.3576C132.131 32.2973 132.102 32.2306 132.091 32.1613C132.079 32.0921 132.085 32.0217 132.107 31.9543C132.13 31.8868 132.169 31.8235 132.222 31.768C132.275 31.7126 132.341 31.6661 132.416 31.6312C132.492 31.5963 132.575 31.5737 132.662 31.5646C132.748 31.5556 132.836 31.5603 132.92 31.5785C133.005 31.5967 133.083 31.628 133.152 31.6707L134.119 32.2639L136.402 29.8797C136.455 29.8244 136.521 29.778 136.596 29.7431C136.671 29.7083 136.754 29.6856 136.841 29.6765C136.927 29.6674 137.015 29.672 137.099 29.69C137.183 29.708 137.262 29.7391 137.331 29.7815L137.316 29.7969L137.331 29.7817C137.47 29.8674 137.561 29.9939 137.584 30.1334C137.607 30.2729 137.56 30.4139 137.454 30.5257L134.768 33.3301C134.706 33.3947 134.626 33.447 134.535 33.4829C134.443 33.5188 134.343 33.5374 134.241 33.5372V33.5372Z" fill="white"/>
<path d="M217.653 59.4403C221.158 59.4403 224 57.1649 224 54.3581C224 51.5512 221.158 49.2758 217.653 49.2758C214.148 49.2758 211.307 51.5512 211.307 54.3581C211.307 57.1649 214.148 59.4403 217.653 59.4403Z" fill="#3F3D56"/>
<path d="M217.024 56.2968C216.881 56.297 216.742 56.2601 216.628 56.1915L216.621 56.1872L215.13 55.2728C215.06 55.2305 215.002 55.1776 214.958 55.1173C214.914 55.0569 214.886 54.9902 214.874 54.921C214.862 54.8518 214.868 54.7814 214.89 54.7139C214.913 54.6464 214.952 54.5831 215.005 54.5277C215.058 54.4722 215.124 54.4257 215.2 54.3908C215.275 54.3559 215.358 54.3333 215.445 54.3243C215.531 54.3152 215.619 54.3199 215.703 54.3381C215.788 54.3563 215.867 54.3877 215.936 54.4304L216.902 55.0235L219.185 52.6393C219.238 52.584 219.304 52.5376 219.379 52.5028C219.454 52.4679 219.538 52.4453 219.624 52.4361C219.71 52.427 219.798 52.4316 219.882 52.4496C219.966 52.4676 220.045 52.4987 220.114 52.5411L220.1 52.5566L220.114 52.5414C220.253 52.6271 220.345 52.7536 220.368 52.893C220.391 53.0325 220.344 53.1736 220.237 53.2853L217.551 56.0897C217.489 56.1543 217.409 56.2066 217.318 56.2426C217.227 56.2785 217.126 56.297 217.024 56.2968Z" fill="white"/>
<path d="M197.509 10.1645C201.015 10.1645 203.856 7.88911 203.856 5.08226C203.856 2.2754 201.015 0 197.509 0C194.004 0 191.163 2.2754 191.163 5.08226C191.163 7.88911 194.004 10.1645 197.509 10.1645Z" fill="#3F3D56"/>
<path d="M196.88 7.02106C196.738 7.02128 196.599 6.9843 196.484 6.91571L196.477 6.91145L194.986 5.99701C194.916 5.95473 194.858 5.90189 194.814 5.84152C194.77 5.78116 194.742 5.71445 194.73 5.64523C194.718 5.57601 194.724 5.50563 194.746 5.43814C194.769 5.37065 194.808 5.30737 194.861 5.25193C194.914 5.19649 194.98 5.14999 195.056 5.11508C195.131 5.08016 195.215 5.05754 195.301 5.04849C195.388 5.03945 195.475 5.04417 195.56 5.06238C195.644 5.08058 195.723 5.11192 195.792 5.1546L196.758 5.7478L199.041 3.36358C199.094 3.30828 199.16 3.26187 199.235 3.22701C199.31 3.19214 199.394 3.16951 199.48 3.16039C199.566 3.15127 199.654 3.15584 199.738 3.17386C199.822 3.19187 199.901 3.22297 199.97 3.26537L199.956 3.2808L199.97 3.26559C200.11 3.35132 200.201 3.4778 200.224 3.61727C200.247 3.75675 200.2 3.89783 200.093 4.00956L197.408 6.81397C197.345 6.8786 197.266 6.93089 197.174 6.96681C197.083 7.00272 196.982 7.02129 196.88 7.02106Z" fill="white"/>
<path d="M105.41 137H0.275944C0.202759 137 0.132571 136.977 0.0808218 136.935C0.0290723 136.894 0 136.838 0 136.779C0 136.72 0.0290723 136.664 0.0808218 136.623C0.132571 136.581 0.202759 136.558 0.275944 136.558H105.41C105.484 136.558 105.554 136.581 105.606 136.623C105.657 136.664 105.686 136.72 105.686 136.779C105.686 136.838 105.657 136.894 105.606 136.935C105.554 136.977 105.484 137 105.41 137Z" fill="#3F3D56"/>
</svg>
