<svg width="224" height="137" viewBox="0 0 224 137" fill="none" xmlns="http://www.w3.org/2000/svg">
<g clip-path="url(#clip0)">
<path opacity="0.1" d="M81.5397 136.053C126.573 136.053 163.079 135.031 163.079 133.77C163.079 132.509 126.573 131.486 81.5397 131.486C36.5066 131.486 0 132.509 0 133.77C0 135.031 36.5066 136.053 81.5397 136.053Z" fill="#D44000"/>
<path opacity="0.1" d="M60.1033 4.14607C65.298 0.508309 73.452 -0.233086 80.8742 0.0566926C104.187 0.96688 125.231 9.81146 143.434 19.8157C150.024 23.4373 156.512 27.3404 160.79 32.3278C169.497 42.4804 166.914 56.5451 154.806 64.9091C150.687 67.7548 145.693 69.9363 140.566 71.8701C131.45 75.3085 121.614 78.0688 111.268 78.8544C103.89 79.4147 96.4208 78.9592 89.0859 78.1775C68.5927 75.9934 48.4771 71.164 31.6174 62.9012C24.2228 59.2772 17.253 54.7717 14.205 48.909C11.1571 43.0463 13.1078 35.617 20.6584 32.1469C23.7813 30.7116 27.5151 30.0634 31.1706 29.4548C36.5513 28.5589 42.0184 27.6757 46.8741 25.8543C51.8894 23.9731 57.828 20.3351 56.835 16.1712C55.7695 11.7034 54.9147 7.77957 60.1033 4.14607Z" fill="#D44000"/>
<path opacity="0.1" d="M202.192 137C214.236 137 224 136.321 224 135.484C224 134.646 214.236 133.968 202.192 133.968C190.148 133.968 180.385 134.646 180.385 135.484C180.385 136.321 190.148 137 202.192 137Z" fill="#D44000"/>
<path d="M113.738 51.5967C113.383 51.0566 111.506 47.7002 111.506 47.7002L108.361 41.296C108.361 41.296 106.129 38.5955 106.129 38.094C106.129 37.5924 102.07 35.5863 102.07 35.5863C102.07 35.5863 98.7732 34.8148 98.5195 34.7376C98.2659 34.6604 94.3599 33.645 94.3599 33.645C94.3599 33.645 92.8218 32.0556 92.6027 32.4707L92.6025 32.4717C92.5945 32.4612 92.5863 32.4521 92.5784 32.4414C92.2641 31.9799 92.0651 31.4755 91.992 30.9553C91.9836 30.9091 91.9765 30.8603 91.969 30.8121C92.9821 30.2725 93.8125 29.5469 94.3882 28.6982C94.9639 27.8495 95.2676 26.9033 95.273 25.9415C95.2723 25.6883 95.2506 25.4354 95.2081 25.1845C95.236 25.1708 95.2651 25.1587 95.2953 25.1484C95.3584 25.1268 95.3424 25.1093 95.2961 25.091C95.312 25.0845 95.3278 25.0775 95.3438 25.0722C95.4278 25.0435 95.3717 25.0218 95.2904 24.996L95.2953 24.994C95.4097 24.955 95.265 24.9291 95.1488 24.8878C95.1425 24.8611 95.1367 24.8343 95.13 24.8077C95.1557 24.7569 95.1714 24.7033 95.1766 24.6487C95.1869 24.6528 95.1963 24.6571 95.2072 24.6609C95.2355 24.5614 95.2348 24.4583 95.2051 24.3591C95.1978 24.3792 95.189 24.399 95.1787 24.4184C95.186 24.3284 95.1624 24.2386 95.1105 24.1583C95.0585 24.078 94.9801 24.0101 94.8834 23.9617C94.8776 23.9577 94.8712 23.9534 94.8652 23.9493L95.0804 22.2186C98.2526 22.1008 98.8091 17.8597 98.0856 17.6241C97.3621 17.3885 98.0856 16.878 98.0856 15.857C98.0856 14.836 95.6926 13.6972 95.6926 13.6972C95.6926 13.6972 94.6908 14.0899 93.1326 12.1265C91.5744 10.1631 85.8422 9.8489 85.4527 10.3594C85.0631 10.8699 82.5031 11.5375 79.164 12.2836C75.8249 13.0297 76.4371 16.1319 76.9936 16.7995C77.452 17.3514 77.7205 17.9873 77.7727 18.6451C77.7727 19.0378 78.8301 20.6871 78.8301 20.6871C78.4966 21.2586 79.3453 24.3894 79.5967 25.2793C79.5927 25.3066 79.5885 25.3339 79.5851 25.3613C79.5829 25.364 79.5801 25.3663 79.578 25.369C79.5661 25.3834 79.5552 25.3984 79.5456 25.4138C79.4916 25.506 79.4738 25.6087 79.4943 25.7089C79.4759 25.8185 79.4954 25.9299 79.5506 26.0315C79.5697 26.8698 79.8165 27.6952 80.2745 28.4525C80.7325 29.2097 81.3912 29.8814 82.2063 30.4224C82.2102 30.4759 82.2141 30.5298 82.2179 30.5849C82.2646 31.3118 82.2909 32.1713 82.2422 32.9938C82.2397 33.0359 82.2357 33.0771 82.2328 33.119C82.0487 33.1482 81.876 33.2111 81.7286 33.3025C81.5811 33.3938 81.463 33.5112 81.3839 33.645C81.0694 34.1203 79.2432 34.8533 79.2432 34.8533C79.2432 34.8533 76.0474 34.9691 75.7431 35.432C75.4387 35.895 70.8226 37.4381 70.8226 37.4381C70.8226 37.4381 68.3877 38.5569 68.7427 39.83C68.9283 40.4953 68.4074 41.5288 67.8678 42.3644C66.739 42.028 65.5635 41.7977 64.3659 41.6783L66.952 43.6225C66.8978 43.6889 66.8659 43.7265 66.8659 43.7265L65.3948 47.8159C65.3948 47.8159 64.8875 49.2433 64.3802 49.5906C63.873 49.9378 64.8368 53.1013 64.8368 53.1013C64.8368 53.1013 64.2788 55.3389 63.8222 55.9175C63.3657 56.4962 64.5324 57.9237 64.5324 57.9237L66.8659 62.0902L73.0545 63.3247C73.0545 63.3247 73.4669 63.3933 74.1334 63.5055C74.1124 63.605 74.091 63.7042 74.0691 63.8031C73.7708 65.1302 73.3792 66.3509 72.9024 66.6811C71.7356 67.4913 71.7864 71.1177 71.7864 71.1177L71.8371 76.2487C71.8371 76.2487 72.2429 82.5757 72.04 82.8072C71.9119 82.9533 72.1689 83.1916 72.8471 83.4057C72.8277 83.5009 72.8087 83.5975 72.7908 83.696C72.6 84.7454 72.5148 85.9429 72.9531 86.4722C73.1434 86.7585 73.2475 87.0752 73.2574 87.3981C73.2574 87.8996 74.2213 88.9413 74.2213 88.9413C74.2213 88.9413 73.4604 93.2235 74.7285 94.6895C75.9967 96.1555 77.062 98.8175 76.4533 99.4348C76.4533 99.4348 75.388 101.248 75.8953 102.058C76.4025 102.868 75.8953 103.331 75.2358 103.524C74.5764 103.717 74.6332 105.299 74.6332 105.299L75.8445 112.822C75.8445 112.822 76.504 114.365 75.946 114.905C75.388 115.445 75.388 118.146 76.2504 119.072C77.1127 119.997 75.0329 121.695 75.0329 121.695C75.0329 121.695 73.7647 123.122 75.7938 123.585C75.7938 123.585 76.1996 123.662 75.4387 124.28C74.6778 124.897 74.5256 125.669 75.0329 125.939C75.1381 125.988 75.2481 126.031 75.3619 126.067C75.3431 126.159 75.3227 126.253 75.2987 126.354C75.1039 127.159 74.7367 128.209 74.0691 128.716C72.7752 129.758 71.6587 130.927 70.7475 132.195C70.0515 133.232 69.7471 134.202 70.5182 134.658C72.3444 135.738 74.6778 136.085 76.0474 135.661C77.4171 135.236 79.3447 133.925 79.3447 133.925L79.8012 132.42C79.8012 132.42 79.4969 131.494 81.0187 131.147C82.5405 130.8 83.9609 129.565 83.9609 129.565V127.565C84.3293 127.4 84.685 127.217 85.0261 127.019C85.0261 127.019 85.7363 125.051 85.0261 124.395C84.3159 123.74 84.0623 123.508 84.9754 123.084C85.8885 122.659 86.0123 121.734 85.3427 120.923C84.671 120.113 83.6058 118.917 84.5188 117.22C85.4319 115.522 85.7667 110.314 85.7667 110.314C85.7667 110.314 85.3406 106.765 85.7667 105.955C86.1929 105.145 85.2798 103.524 85.2798 103.524C85.2798 103.524 85.5841 101.518 86.1421 100.592C86.7001 99.6663 87.1567 94.7667 87.1567 94.7667C87.1567 94.7667 88.1712 92.6835 88.1712 91.3332C88.1712 89.9829 86.5987 86.7423 88.9321 85.8935C88.9321 85.8935 89.9466 86.5879 89.5408 89.3656C89.5408 89.3656 90.7075 92.6063 90.7075 93.6094C90.7075 94.6124 91.5699 98.2389 91.5699 98.2389C91.5699 98.2389 91.6714 99.3962 92.0264 99.8206C92.3815 100.245 92.0264 101.402 92.0264 101.402C92.0264 101.402 93.3454 102.367 92.9903 102.984C92.6352 103.601 93.0511 104.993 93.0511 104.993L92.7366 113.632C92.7366 113.632 91.8235 117.336 93.9541 119.573C93.9541 119.573 93.1932 122.852 92.7366 123.084C92.2801 123.315 94.4106 125.321 94.4106 125.321C94.4106 125.321 93.8201 126.621 95.0194 126.685V128.832C95.4357 129.41 96.0069 129.91 96.6933 130.298C97.8093 130.915 97.3528 133.037 97.3528 133.037C97.3528 133.037 98.7731 135.738 102.527 135.159C106.281 134.58 106.788 134.31 106.585 133.346C106.512 132.994 106.35 132.366 106.116 131.653C105.713 130.414 105.094 128.919 104.353 128.181C103.186 127.019 102.223 124.588 102.223 124.588C102.223 124.588 101.766 123.778 102.223 123.508C102.679 123.238 102.476 122.737 102.476 122.737C102.476 122.737 102.921 121.734 102.521 121.116C102.121 120.499 103.288 119.226 103.288 119.226L102.933 113.285L103.288 104.643C103.288 104.643 101.715 103.216 102.375 102.367C103.034 101.518 101.614 100.322 101.614 100.322C101.614 100.322 101.462 100.284 101.868 99.3191C102.11 98.7507 102.074 98.1315 101.766 97.583C101.766 97.583 100.904 95.1911 102.425 93.3779C102.425 93.3779 103.085 90.986 103.288 89.7515C103.428 88.8935 104.304 85.6883 104.826 83.8134C104.855 83.7074 104.884 83.606 104.911 83.509C105.662 83.5413 106.23 83.5788 106.23 83.5788C106.23 83.5788 105.063 77.2133 106.23 75.9016C107.397 74.5899 105.317 64.5593 105.317 64.5593C105.317 64.5593 104.82 62.8063 104.513 61.0177C104.496 60.9158 104.48 60.814 104.464 60.7122C105.406 60.653 106.351 60.6365 107.295 60.6628C109.73 60.7785 112.114 60.0455 112.165 59.3125C112.216 58.5795 113.535 55.6861 113.738 55.0303C113.941 54.3744 114.093 52.1368 113.738 51.5967Z" fill="url(#paint0_linear)"/>
<path d="M84.1383 126.02V129.592C84.1383 129.592 82.7697 130.822 81.3034 131.167C79.837 131.513 80.1303 132.435 80.1303 132.435L79.6904 133.933C79.6904 133.933 77.833 135.239 76.5132 135.661C75.1935 136.084 72.9451 135.738 71.1854 134.663C70.4425 134.209 70.7357 133.243 71.4064 132.211C72.2801 130.953 73.3558 129.789 74.607 128.747C75.2502 128.242 75.6041 127.197 75.7918 126.395C75.9306 125.794 75.9756 125.329 75.9756 125.329L84.1383 126.02Z" fill="#4C495A"/>
<path opacity="0.1" d="M84.1383 128.686V129.592C84.1383 129.592 82.7697 130.822 81.3034 131.167C79.837 131.513 80.1303 132.435 80.1303 132.435L79.6904 133.933C79.6904 133.933 77.833 135.239 76.5132 135.661C75.1935 136.084 72.9451 135.738 71.1854 134.663C70.4425 134.209 70.7357 133.243 71.4064 132.211C71.3751 133.295 71.7837 134.514 73.776 134.471C75.9263 134.417 77.9985 133.825 79.6904 132.781C79.6904 132.781 79.6415 130.245 81.8899 129.669C82.7117 129.456 83.4747 129.122 84.1383 128.686V128.686Z" fill="black"/>
<path d="M102.028 135.162C98.411 135.738 97.0424 133.049 97.0424 133.049C97.0424 133.049 97.4823 130.937 96.407 130.322C95.742 129.933 95.1918 129.435 94.794 128.863V125.329L99.1931 122.871L101.574 124.527L101.735 124.637C101.735 124.637 102.663 127.057 103.788 128.214C104.501 128.949 105.098 130.437 105.487 131.671C105.712 132.381 105.868 133.006 105.938 133.357C106.134 134.317 105.645 134.586 102.028 135.162Z" fill="#4C495A"/>
<path opacity="0.1" d="M102.028 135.162C98.411 135.738 97.0424 133.049 97.0424 133.049C97.0424 133.049 97.4823 130.937 96.407 130.322C95.742 129.933 95.1918 129.435 94.794 128.863V127.494C95.492 128.073 96.8078 129.195 97.0913 129.669C97.4823 130.322 97.5312 132.704 99.3397 133.126C101.148 133.549 104.667 133.933 104.961 132.857C105.083 132.449 105.259 132.051 105.487 131.671C105.712 132.381 105.868 133.006 105.938 133.357C106.134 134.317 105.645 134.586 102.028 135.162Z" fill="black"/>
<path opacity="0.1" d="M75.9755 125.329L84.1383 126.02V127.909C83.2174 128.337 81.8977 128.792 81.1567 128.325C80.0618 127.637 76.8065 126.762 75.7918 126.395C75.9306 125.794 75.9755 125.329 75.9755 125.329Z" fill="black"/>
<path opacity="0.1" d="M101.735 124.945C100.611 124.637 98.6065 125.982 95.9671 126.827C95.6002 126.963 95.1995 127.033 94.794 127.033V125.329L99.1931 122.871L101.574 124.527C101.611 124.67 101.665 124.81 101.735 124.945Z" fill="black"/>
<path d="M104.619 82.6543C104.619 82.6543 104.464 83.2197 104.243 84.0402C103.741 85.9069 102.896 89.0981 102.761 89.9524C102.566 91.1815 101.93 93.563 101.93 93.563C100.464 95.3683 101.295 97.7498 101.295 97.7498C101.592 98.2978 101.627 98.9118 101.393 99.4783C101.002 100.439 101.148 100.477 101.148 100.477C101.148 100.477 102.517 101.668 101.881 102.513C101.246 103.358 102.761 104.779 102.761 104.779L102.419 113.383L102.761 119.298C102.761 119.298 101.637 120.566 102.022 121.18C102.407 121.795 101.979 122.794 101.979 122.794C101.979 122.794 102.175 123.293 101.735 123.562C101.295 123.831 101.735 124.637 101.735 124.637C100.61 124.33 98.6065 125.675 95.967 126.52C93.3275 127.365 94.2074 125.367 94.2074 125.367C94.2074 125.367 92.1544 123.37 92.5944 123.139C93.0343 122.909 93.7674 119.644 93.7674 119.644C91.7145 117.416 92.5944 113.729 92.5944 113.729L92.8974 105.128C92.8974 105.128 92.4966 103.742 92.8387 103.127C93.1809 102.513 91.91 101.552 91.91 101.552C91.91 101.552 92.2522 100.4 91.91 99.9776C91.5679 99.5551 91.4701 98.4028 91.4701 98.4028C91.4701 98.4028 90.6392 94.7922 90.6392 93.7935C90.6392 92.7948 89.515 89.5683 89.515 89.5683C89.906 86.8027 88.9284 86.1113 88.9284 86.1113C86.68 86.9563 88.1952 90.1829 88.1952 91.5272C88.1952 92.8716 87.2177 94.9458 87.2177 94.9458C87.2177 94.9458 86.7778 99.824 86.2401 100.746C85.7024 101.668 85.4091 103.665 85.4091 103.665C85.4091 103.665 86.289 105.278 85.8784 106.085C85.4678 106.892 85.8784 110.425 85.8784 110.425C85.8784 110.425 85.5558 115.611 84.676 117.301C83.7961 118.991 84.8226 120.182 85.4698 120.988C86.115 121.795 85.9957 122.717 85.1159 123.139C84.236 123.562 84.4804 123.792 85.1647 124.445C85.8491 125.098 85.1647 127.057 85.1647 127.057C85.1647 127.057 82.3786 128.786 81.1567 128.018C79.9347 127.249 76.0244 126.251 75.5356 125.982C75.0468 125.713 75.1934 124.945 75.9266 124.33C76.6598 123.716 76.2688 123.639 76.2688 123.639C74.3136 123.178 75.5356 121.757 75.5356 121.757C75.5356 121.757 77.5396 120.067 76.7087 119.145C75.8778 118.223 75.8778 115.534 76.4154 114.996C76.9531 114.459 76.3177 112.922 76.3177 112.922L75.1504 105.432C75.1504 105.432 75.0957 103.857 75.7311 103.665C76.3665 103.473 76.8553 103.012 76.3665 102.205C75.8778 101.399 76.9042 99.5935 76.9042 99.5935C77.4908 98.9789 76.4643 96.3286 75.2423 94.869C74.0204 93.4094 74.7535 89.1457 74.7535 89.1457C74.7535 89.1457 73.8248 88.1086 73.8248 87.6093C73.8157 87.2887 73.7155 86.9737 73.5316 86.6875C73.1093 86.1605 73.1914 84.9682 73.3751 83.9234C73.5531 82.9124 73.8248 82.0397 73.8248 82.0397L104.619 82.6543Z" fill="#5F5D7E"/>
<path d="M95.0383 39.1347L85.4092 40.9016C85.4092 40.9016 80.6679 37.7519 81.841 36.0618C82.2438 35.481 82.4217 34.49 82.4823 33.4422C82.5292 32.6233 82.5038 31.7675 82.4588 31.0438C82.3904 29.9975 82.2809 29.2247 82.2809 29.2247C82.2809 29.2247 92.1544 24.8458 91.8123 29.2247C91.7427 29.9539 91.7643 30.6867 91.8768 31.4126C91.9466 31.9291 92.1382 32.4308 92.4418 32.8922C92.9697 33.6312 93.6208 33.6419 93.6208 33.6419L95.0383 39.1347Z" fill="#FDC2CC"/>
<path opacity="0.1" d="M91.8768 31.4126C90.4852 32.197 88.7964 32.5876 87.0859 32.5206C85.3754 32.4537 83.7443 31.9331 82.4588 31.0438C82.3904 29.9975 82.2809 29.2247 82.2809 29.2247C82.2809 29.2247 92.1545 24.8458 91.8123 29.2247C91.7428 29.9539 91.7644 30.6867 91.8768 31.4126V31.4126Z" fill="black"/>
<path d="M87.4621 32.3744C91.6463 32.3744 95.0383 29.7088 95.0383 26.4207C95.0383 23.1325 91.6463 20.467 87.4621 20.467C83.2778 20.467 79.8858 23.1325 79.8858 26.4207C79.8858 29.7088 83.2778 32.3744 87.4621 32.3744Z" fill="#FDC2CC"/>
<path opacity="0.1" d="M95.0383 39.1347L85.4092 40.9016C85.4092 40.9016 80.6679 37.7519 81.841 36.0618C82.2438 35.481 82.4217 34.49 82.4823 33.4422C82.6949 34.3534 83.3173 35.1741 84.2361 35.7545C86.4356 36.9069 86.0935 38.3281 86.0935 38.3281L90.0526 38.2128C89.8082 36.9453 91.2746 36.2539 91.7634 36.1002C92.2522 35.9466 92.0078 35.2552 92.0078 35.2552L92.4418 32.8922C92.9697 33.6312 93.6208 33.6419 93.6208 33.6419L95.0383 39.1347Z" fill="black"/>
<path opacity="0.1" d="M104.619 82.6543C104.619 82.6543 104.464 83.2197 104.243 84.0402C103.18 83.9956 101.774 83.9633 101.148 84.0755C100.073 84.2676 95.7715 84.3444 95.7715 84.3444L85.1159 84.6409V84.3828C83.8902 84.3906 82.6662 84.4547 81.45 84.5749C79.6415 84.7669 76.8065 84.498 74.998 84.2676C74.4413 84.2049 73.8964 84.0893 73.3752 83.9234C73.5531 82.9124 73.8249 82.0397 73.8249 82.0397L104.619 82.6543Z" fill="black"/>
<path d="M103.788 58.2633C103.633 58.9809 103.747 60.1701 103.942 61.3439C104.237 63.1246 104.716 64.87 104.716 64.87C104.716 64.87 106.72 74.8569 105.596 76.1628C104.472 77.4688 105.596 83.8066 105.596 83.8066C105.596 83.8066 102.224 83.5762 101.148 83.7682C100.073 83.9603 95.7715 84.0371 95.7715 84.0371L85.1159 84.3336V84.0755C83.8902 84.0833 82.6662 84.1474 81.45 84.2675C79.6415 84.4596 76.8065 84.1907 74.998 83.9603C73.1895 83.7298 72.4563 83.2689 72.6518 83.0384C72.8473 82.8079 72.4563 76.5085 72.4563 76.5085L72.4074 71.3999C72.4074 71.3999 72.3585 67.7893 73.4827 66.9826C73.9422 66.6538 74.3196 65.4385 74.607 64.1172C75.0195 62.2043 75.2424 60.0687 75.2424 60.0687L67.8128 44.4354L67.6662 44.1281C67.6662 44.1281 69.8168 41.5162 69.4747 40.2486C69.1325 38.9811 71.4787 37.8671 71.4787 37.8671C71.4787 37.8671 75.9267 36.3307 76.22 35.8698C76.5132 35.4088 79.5926 35.2936 79.5926 35.2936C79.5926 35.2936 81.3522 34.5638 81.6553 34.0906C81.7291 33.9584 81.8418 33.8419 81.9843 33.7508C82.1268 33.6597 82.2948 33.5966 82.4745 33.5667C82.6816 34.489 83.3075 35.321 84.2361 35.9082C86.4357 37.0605 86.0935 38.4817 86.0935 38.4817L90.0527 38.3665C89.8083 37.0989 91.2747 36.4075 91.7635 36.2539C92.2522 36.1002 92.0078 35.4089 92.0078 35.4089L92.4654 32.9214C92.6765 32.5081 94.1585 34.0906 94.1585 34.0906C94.1585 34.0906 97.9222 35.1016 98.1666 35.1784C98.411 35.2552 101.588 36.0234 101.588 36.0234C101.588 36.0234 105.498 38.0208 105.498 38.5201C105.498 39.0195 107.649 41.7082 107.649 41.7082C107.649 41.7082 107.624 41.8158 107.577 42.0125C107.08 44.1297 104.145 56.6117 103.788 58.2633Z" fill="#D44000"/>
<path d="M88.1464 52.0408C88.1464 52.0408 79.6904 50.2739 78.8594 49.8513C78.0285 49.4288 73.1406 51.8871 79.1038 55.2289C79.1038 55.2289 86.3957 56.4196 88.3464 55.2289C90.2971 54.0381 88.1464 52.0408 88.1464 52.0408Z" fill="#FDC2CC"/>
<path opacity="0.1" d="M106.427 41.5162L107.454 41.5546L110.484 47.9308C110.484 47.9308 112.293 51.2726 112.635 51.8103C112.977 52.3481 112.83 54.5759 112.635 55.2289C112.439 55.8819 111.168 58.7627 111.12 59.4925C111.071 60.2223 108.773 60.9521 106.427 60.8369C104.081 60.7216 98.6065 61.2978 98.6065 61.2978C98.6065 61.2978 92.76 60.8176 89.1729 62.2581C89.1729 62.2581 86.8755 58.5322 87.1199 51.5798C87.1199 51.5798 91.1769 51.3878 92.2033 51.6951C93.2298 52.0024 98.2155 52.8858 98.8509 52.4249C99.4863 51.9639 102.37 53.2699 102.37 53.2699C102.517 53.0166 102.593 52.7416 102.593 52.4633C102.593 52.185 102.517 51.9099 102.37 51.6567C101.881 50.7348 101.05 47.854 102.126 46.9321C103.201 46.0103 106.427 41.5162 106.427 41.5162Z" fill="black"/>
<path opacity="0.1" d="M103.942 61.3439C101.516 61.473 98.802 61.7587 98.802 61.7587C98.802 61.7587 92.9561 61.2778 89.3684 62.719C89.3684 62.719 87.0711 58.9932 87.3155 52.0408C87.3155 52.0408 91.3724 51.8487 92.3989 52.156C93.4253 52.4633 98.411 53.3468 99.0464 52.8858C99.6818 52.4249 102.566 53.7309 102.566 53.7309C102.712 53.4776 102.788 53.2025 102.788 52.9242C102.788 52.6459 102.712 52.3709 102.566 52.1176C102.077 51.1957 101.246 48.3149 102.321 47.3931C103.397 46.4712 106.623 41.9771 106.623 41.9771L107.577 42.0124C107.08 44.1297 104.145 56.6117 103.788 58.2633C103.633 58.9809 103.747 60.1701 103.942 61.3439Z" fill="black"/>
<path d="M106.623 41.6698L107.649 41.7082L110.68 48.0844C110.68 48.0844 112.488 51.4262 112.83 51.9639C113.172 52.5017 113.026 54.7295 112.83 55.3825C112.635 56.0355 111.364 58.9163 111.315 59.6461C111.266 60.3759 108.969 61.1057 106.623 60.9905C104.276 60.8753 98.802 61.4514 98.802 61.4514C98.802 61.4514 92.9555 60.9712 89.3684 62.4117C89.3684 62.4117 87.0711 58.6858 87.3155 51.7335C87.3155 51.7335 91.3724 51.5414 92.3989 51.8487C93.4253 52.156 98.411 53.0394 99.0464 52.5785C99.6818 52.1176 102.566 53.4236 102.566 53.4236C102.712 53.1703 102.788 52.8952 102.788 52.6169C102.788 52.3386 102.712 52.0636 102.566 51.8103C102.077 50.8884 101.246 48.0076 102.321 47.0857C103.397 46.1639 106.623 41.6698 106.623 41.6698Z" fill="#D44000"/>
<path d="M96.2959 55.7787L97.5155 56.3721L104.312 47.7462L103.092 47.1528L96.2959 55.7787Z" fill="#DFE6F5"/>
<path d="M107.797 46.578C108.998 45.0535 108.869 43.281 107.508 42.6189C106.148 41.9569 104.071 42.656 102.87 44.1805C101.669 45.7049 101.798 47.4775 103.159 48.1395C104.519 48.8016 106.596 48.1025 107.797 46.578Z" fill="#DFE6F5"/>
<path opacity="0.1" d="M107.102 46.2397C107.964 45.1455 107.871 43.8731 106.895 43.3979C105.918 42.9227 104.427 43.4245 103.565 44.5188C102.703 45.613 102.796 46.8853 103.772 47.3606C104.749 47.8358 106.24 47.334 107.102 46.2397Z" fill="black"/>
<path d="M92.822 60.1874L94.0417 60.7809L98.2707 55.4136L97.051 54.8202L92.822 60.1874Z" fill="#53526B"/>
<path d="M85.6536 60.568L88.6352 59.915C88.6352 59.915 103.348 60.2223 98.411 55.4593C98.411 55.4593 95.8204 53.5004 90.3948 55.0752C84.9693 56.6501 83.454 56.8421 83.454 56.8421L85.6536 60.568Z" fill="#FDC2CC"/>
<path opacity="0.1" d="M83.454 40.4791C83.7779 40.4791 84.0406 40.2727 84.0406 40.0182C84.0406 39.7636 83.7779 39.5572 83.454 39.5572C83.1301 39.5572 82.8674 39.7636 82.8674 40.0182C82.8674 40.2727 83.1301 40.4791 83.454 40.4791Z" fill="black"/>
<path opacity="0.1" d="M93.5231 40.2102C93.847 40.2102 94.1096 40.0038 94.1096 39.7493C94.1096 39.4947 93.847 39.2883 93.5231 39.2883C93.1991 39.2883 92.9365 39.4947 92.9365 39.7493C92.9365 40.0038 93.1991 40.2102 93.5231 40.2102Z" fill="black"/>
<path d="M83.454 40.3254C83.7779 40.3254 84.0406 40.1191 84.0406 39.8645C84.0406 39.6099 83.7779 39.4036 83.454 39.4036C83.1301 39.4036 82.8674 39.6099 82.8674 39.8645C82.8674 40.1191 83.1301 40.3254 83.454 40.3254Z" fill="white"/>
<path opacity="0.1" d="M84.285 46.8553C84.6089 46.8553 84.8715 46.6489 84.8715 46.3944C84.8715 46.1398 84.6089 45.9334 84.285 45.9334C83.961 45.9334 83.6984 46.1398 83.6984 46.3944C83.6984 46.6489 83.961 46.8553 84.285 46.8553Z" fill="black"/>
<path opacity="0.1" d="M93.8164 46.3944C94.1403 46.3944 94.4029 46.188 94.4029 45.9334C94.4029 45.6789 94.1403 45.4725 93.8164 45.4725C93.4924 45.4725 93.2298 45.6789 93.2298 45.9334C93.2298 46.188 93.4924 46.3944 93.8164 46.3944Z" fill="black"/>
<path d="M84.285 46.7017C84.6089 46.7017 84.8715 46.4953 84.8715 46.2407C84.8715 45.9862 84.6089 45.7798 84.285 45.7798C83.961 45.7798 83.6984 45.9862 83.6984 46.2407C83.6984 46.4953 83.961 46.7017 84.285 46.7017Z" fill="white"/>
<path opacity="0.1" d="M93.5719 68.6369C93.8959 68.6369 94.1585 68.4306 94.1585 68.176C94.1585 67.9214 93.8959 67.7151 93.5719 67.7151C93.248 67.7151 92.9854 67.9214 92.9854 68.176C92.9854 68.4306 93.248 68.6369 93.5719 68.6369Z" fill="black"/>
<path opacity="0.1" d="M85.8525 68.6369C86.1764 68.6369 86.439 68.4306 86.439 68.176C86.439 67.9214 86.1764 67.7151 85.8525 67.7151C85.5285 67.7151 85.2659 67.9214 85.2659 68.176C85.2659 68.4306 85.5285 68.6369 85.8525 68.6369Z" fill="black"/>
<path d="M93.5719 68.4833C93.8959 68.4833 94.1585 68.2769 94.1585 68.0223C94.1585 67.7678 93.8959 67.5614 93.5719 67.5614C93.248 67.5614 92.9854 67.7678 92.9854 68.0223C92.9854 68.2769 93.248 68.4833 93.5719 68.4833Z" fill="white"/>
<path opacity="0.1" d="M86.439 76.3549C86.763 76.3549 87.0256 76.1485 87.0256 75.894C87.0256 75.6394 86.763 75.433 86.439 75.433C86.1151 75.433 85.8525 75.6394 85.8525 75.894C85.8525 76.1485 86.1151 76.3549 86.439 76.3549Z" fill="black"/>
<path opacity="0.1" d="M93.8164 75.894C94.1403 75.894 94.4029 75.6876 94.4029 75.433C94.4029 75.1785 94.1403 74.9721 93.8164 74.9721C93.4924 74.9721 93.2298 75.1785 93.2298 75.433C93.2298 75.6876 93.4924 75.894 93.8164 75.894Z" fill="black"/>
<path d="M86.439 76.2013C86.763 76.2013 87.0256 75.9949 87.0256 75.7403C87.0256 75.4857 86.763 75.2794 86.439 75.2794C86.1151 75.2794 85.8525 75.4857 85.8525 75.7403C85.8525 75.9949 86.1151 76.2013 86.439 76.2013Z" fill="white"/>
<path d="M85.8525 68.4833C86.1764 68.4833 86.439 68.2769 86.439 68.0223C86.439 67.7678 86.1764 67.5614 85.8525 67.5614C85.5285 67.5614 85.2659 67.7678 85.2659 68.0223C85.2659 68.2769 85.5285 68.4833 85.8525 68.4833Z" fill="white"/>
<path d="M93.8164 75.7403C94.1403 75.7403 94.4029 75.5339 94.4029 75.2794C94.4029 75.0248 94.1403 74.8185 93.8164 74.8185C93.4924 74.8185 93.2298 75.0248 93.2298 75.2794C93.2298 75.5339 93.4924 75.7403 93.8164 75.7403Z" fill="white"/>
<path d="M93.5231 40.0566C93.847 40.0566 94.1096 39.8502 94.1096 39.5956C94.1096 39.3411 93.847 39.1347 93.5231 39.1347C93.1991 39.1347 92.9365 39.3411 92.9365 39.5956C92.9365 39.8502 93.1991 40.0566 93.5231 40.0566Z" fill="white"/>
<path d="M93.8164 46.2407C94.1403 46.2407 94.4029 46.0343 94.4029 45.7798C94.4029 45.5252 94.1403 45.3188 93.8164 45.3188C93.4924 45.3188 93.2298 45.5252 93.2298 45.7798C93.2298 46.0343 93.4924 46.2407 93.8164 46.2407Z" fill="white"/>
<path opacity="0.1" d="M94.6962 61.9508C94.6962 61.9508 94.7939 72.4754 95.0872 74.3575C95.0872 74.3575 95.1937 62.4469 94.6962 61.9508Z" fill="black"/>
<path opacity="0.1" d="M97.189 66.829C96.9875 66.829 101.197 79.1589 101.393 80.0423C101.588 80.9258 98.3621 66.829 97.189 66.829Z" fill="black"/>
<path opacity="0.1" d="M100.513 64.8316C100.513 64.9469 102.859 71.5151 104.032 71.8608C105.205 72.2065 100.513 64.8316 100.513 64.8316Z" fill="black"/>
<path opacity="0.1" d="M109.751 52.0408C109.751 52.0408 104.765 52.2154 104.619 52.7811C104.472 53.3467 109.751 52.0408 109.751 52.0408Z" fill="black"/>
<path opacity="0.1" d="M100.953 102.129C100.953 102.129 97.3845 103.319 97.9222 103.396C98.4598 103.473 100.953 102.129 100.953 102.129Z" fill="black"/>
<path opacity="0.1" d="M93.572 100.362C93.433 100.116 95.9671 101.36 95.9671 101.514C95.9671 101.668 93.7675 100.707 93.572 100.362Z" fill="black"/>
<path opacity="0.1" d="M96.8958 104.395C96.8958 104.395 99.6819 104.284 99.8774 105.127C100.073 105.97 96.8958 104.395 96.8958 104.395Z" fill="black"/>
<path opacity="0.1" d="M76.8554 104.39C76.8554 104.39 79.8859 103.924 80.1303 104.39C80.3747 104.856 76.8554 104.39 76.8554 104.39Z" fill="black"/>
<path opacity="0.1" d="M77.9796 118.876C77.9796 118.876 78.1783 120.835 77.4435 121.296C76.7087 121.757 77.9796 118.876 77.9796 118.876Z" fill="black"/>
<path opacity="0.1" d="M77.6094 123.024C78.5661 123.101 83.6006 122.41 83.5518 123.024C83.5029 123.639 77.6094 123.024 77.6094 123.024Z" fill="black"/>
<path opacity="0.1" d="M100.708 120.643C100.708 120.643 98.9912 120.435 99.4098 121.346L100.708 120.643Z" fill="black"/>
<path opacity="0.1" d="M68.7904 43.9745H67.8617L66.4442 48.046C66.4442 48.046 65.9554 49.4672 65.4666 49.8129C64.9778 50.1586 65.9065 53.3083 65.9065 53.3083C65.9065 53.3083 65.3688 55.5362 64.9289 56.1123C64.489 56.6885 65.6132 58.1097 65.6132 58.1097L67.8617 62.2581L73.8249 63.4872C73.8249 63.4872 84.3339 65.2925 84.8227 65.5614C85.3114 65.8303 85.7513 65.4462 86.0935 62.9495C86.4357 60.4528 87.3643 55.613 88.0975 55.3825C88.0975 55.3825 82.2321 55.8819 81.7433 55.8051C81.2545 55.7282 78.9083 55.8435 78.9083 55.8435C78.9083 55.8435 75.8289 55.6898 75.3401 55.9203C74.8514 56.1507 75.9756 54.8046 75.9756 54.8046C76.1814 54.1883 76.1814 53.5406 75.9756 52.9242C75.6334 51.8871 75.4379 40.1334 68.7904 43.9745Z" fill="black"/>
<path opacity="0.1" d="M87.902 55.8434C87.1688 56.0739 86.2401 60.9137 85.898 63.4104C85.5558 65.9071 85.1159 66.2912 84.6271 66.0223C84.2302 65.8042 77.2249 64.5719 74.6069 64.1171C75.0195 62.2043 75.2423 60.0686 75.2423 60.0686L67.8128 44.4354H68.5948C75.2424 40.5943 75.4379 52.348 75.78 53.3851C75.9858 54.0016 75.9858 54.6493 75.78 55.2657C75.78 55.2657 74.6558 56.6117 75.1446 56.3812C75.6334 56.1507 78.7128 56.3044 78.7128 56.3044C78.7128 56.3044 81.0589 56.1891 81.5477 56.266C82.0365 56.3428 87.902 55.8434 87.902 55.8434Z" fill="black"/>
<path d="M68.5949 44.1281H67.6662L66.2487 48.1997C66.2487 48.1997 65.7599 49.6209 65.2711 49.9666C64.7823 50.3123 65.711 53.462 65.711 53.462C65.711 53.462 65.1734 55.6898 64.7334 56.266C64.2935 56.8421 65.4178 58.2633 65.4178 58.2633L67.6662 62.4117L73.6294 63.6409C73.6294 63.6409 84.1384 65.4462 84.6271 65.7151C85.1159 65.984 85.5558 65.5998 85.898 63.1031C86.2402 60.6064 87.1688 55.7666 87.902 55.5362C87.902 55.5362 82.0366 56.0355 81.5478 55.9587C81.059 55.8819 78.7128 55.9971 78.7128 55.9971C78.7128 55.9971 75.6334 55.8435 75.1446 56.0739C74.6559 56.3044 75.7801 54.9583 75.7801 54.9583C75.9859 54.3419 75.9859 53.6942 75.7801 53.0779C75.4379 52.0408 75.2424 40.287 68.5949 44.1281Z" fill="#D44000"/>
<path opacity="0.1" d="M71.772 58.0329C71.772 58.0329 69.0837 62.0276 68.5949 61.5667C68.1061 61.1058 71.772 58.0329 71.772 58.0329Z" fill="black"/>
<path opacity="0.1" d="M68.9859 55.7581C68.9859 55.7581 66.493 57.3799 67.6661 57.8024C68.8392 58.2249 68.9859 55.7581 68.9859 55.7581Z" fill="black"/>
<path opacity="0.1" d="M71.3321 53.7693C71.5276 53.8077 74.9491 54.3417 74.998 54.574C75.0469 54.8064 71.3321 53.7693 71.3321 53.7693Z" fill="black"/>
<path opacity="0.1" d="M95.0599 25.6309C94.9536 25.6603 94.8629 25.7169 94.8023 25.7915C94.7417 25.8661 94.7147 25.9546 94.7255 26.0427C94.5261 26.181 94.2465 26.0181 94.0842 25.8414C93.92 25.6663 93.7343 25.4496 93.486 25.4742C93.368 25.5038 93.2535 25.5413 93.1438 25.5864C92.7528 25.6847 92.4224 25.3237 92.2034 25.0071C91.8221 24.4525 91.4409 23.8984 91.0596 23.3447C90.2951 23.6935 89.3919 23.3278 88.6333 22.9668C87.8747 22.6057 86.9714 22.2385 86.205 22.5873C85.0808 23.0974 85.0397 24.7982 83.8744 25.2176C83.499 25.3528 83.063 25.3236 82.715 25.5096C82.3709 25.6939 82.1852 26.0488 82.0307 26.3884C81.9735 26.5817 81.8393 26.7556 81.6475 26.8847C81.5256 26.9347 81.39 26.9606 81.2525 26.96C80.907 27.0061 80.5518 26.9669 80.2359 26.8478C80.0702 26.766 79.9451 26.6422 79.8811 26.497C79.8171 26.3517 79.8181 26.1936 79.8839 26.0488C79.8932 26.0335 79.9036 26.0186 79.9152 26.0043C80.0405 25.8853 80.1529 25.7584 80.2515 25.6248C80.3688 25.3805 80.2007 25.0963 80.2378 24.832C80.2984 24.3803 80.9065 24.1421 81.0101 23.6981C81.0531 23.5245 81.0082 23.3386 81.0492 23.1634C81.0549 23.1405 81.0628 23.1179 81.0727 23.0958L80.7149 23.2894C81.1157 22.9222 81.3171 22.4121 81.6104 21.9665C81.9361 21.4787 82.3845 21.0478 82.9282 20.7C83.4719 20.3522 84.0998 20.0947 84.7738 19.943C86.0486 19.6511 87.3956 19.731 88.6821 19.9784C89.9055 20.2179 91.0774 20.5973 92.1604 21.1046C92.5472 21.2676 92.891 21.4872 93.1731 21.7514C93.4095 22.0254 93.6106 22.3173 93.7734 22.6226C94.1527 23.2402 95.1889 23.8118 94.3638 23.8978C93.6776 23.97 94.3032 24.348 94.663 24.6031C94.7441 24.6531 94.8141 24.7133 94.8702 24.7813C94.9299 24.8785 94.9573 24.9859 94.9498 25.0937C94.9423 25.2014 94.9001 25.3059 94.8272 25.3974C94.6884 25.5357 95.2515 25.5633 95.0599 25.6309Z" fill="black"/>
<path d="M95.0598 25.4773C94.9536 25.5067 94.8629 25.5632 94.8023 25.6379C94.7417 25.7125 94.7146 25.8009 94.7255 25.8891C94.5261 26.0273 94.2465 25.8645 94.0842 25.6878C93.92 25.5126 93.7343 25.296 93.486 25.3206C93.368 25.3501 93.2535 25.3877 93.1438 25.4327C92.7528 25.5311 92.4223 25.17 92.2034 24.8535C91.8221 24.2989 91.4408 23.7447 91.0596 23.1911C90.2951 23.5399 89.3918 23.1742 88.6332 22.8131C87.8746 22.452 86.9714 22.0848 86.205 22.4336C85.0807 22.9437 85.0397 24.6446 83.8744 25.064C83.499 25.1992 83.063 25.17 82.715 25.3559C82.3709 25.5403 82.1851 25.8952 82.0307 26.2348C81.9735 26.4281 81.8392 26.6019 81.6475 26.731C81.5256 26.7811 81.39 26.8069 81.2525 26.8063C80.907 26.8525 80.5518 26.8133 80.2358 26.6942C80.0702 26.6124 79.945 26.4886 79.881 26.3433C79.8171 26.198 79.8181 26.04 79.8839 25.8952C79.8932 25.8799 79.9036 25.865 79.9152 25.8507C80.0404 25.7317 80.1529 25.6047 80.2515 25.4712C80.3688 25.2269 80.2006 24.9426 80.2378 24.6783C80.2984 24.2266 80.9065 23.9885 81.0101 23.5445C81.0531 23.3708 81.0081 23.1849 81.0492 23.0098C81.0549 22.9868 81.0628 22.9642 81.0727 22.9422L80.7149 23.1358C81.1157 22.7686 81.3171 22.2585 81.6103 21.8129C81.9361 21.325 82.3844 20.8942 82.9282 20.5464C83.4719 20.1986 84.0998 19.9411 84.7738 19.7894C86.0485 19.4975 87.3956 19.5774 88.6821 19.8247C89.9055 20.0642 91.0774 20.4437 92.1603 20.9509C92.5472 21.114 92.8909 21.3335 93.1731 21.5978C93.4095 21.8718 93.6106 22.1636 93.7734 22.4689C94.1526 23.0866 95.1889 23.6581 94.3638 23.7442C93.6776 23.8164 94.3032 24.1944 94.663 24.4494C94.7441 24.4994 94.8141 24.5596 94.8702 24.6276C94.9299 24.7248 94.9573 24.8323 94.9498 24.9401C94.9423 25.0478 94.9001 25.1523 94.8272 25.2438C94.6883 25.382 95.2515 25.4097 95.0598 25.4773Z" fill="#865A61"/>
<path opacity="0.1" d="M94.6629 24.4494L94.5847 25.0963C94.5847 25.0963 86.3809 16.9255 79.9993 26.1518C79.9993 26.1518 79.9679 26.0396 79.9152 25.8506C80.0404 25.7317 80.1529 25.6047 80.2515 25.4712C80.3688 25.2269 80.2006 24.9426 80.2378 24.6783C80.2984 24.2266 80.9064 23.9885 81.0101 23.5445C81.0531 23.3708 81.0081 23.1849 81.0492 23.0098C81.0549 22.9868 81.0628 22.9642 81.0726 22.9422L80.7148 23.1358C81.1157 22.7686 81.317 22.2585 81.6103 21.8129C81.9361 21.325 82.3844 20.8942 82.9281 20.5464C83.4719 20.1986 84.0997 19.9411 84.7737 19.7894C86.0485 19.4975 87.3956 19.5774 88.6821 19.8247C89.9055 20.0642 91.0774 20.4437 92.1603 20.9509C92.5472 21.114 92.8909 21.3335 93.1731 21.5978C93.4095 21.8718 93.6106 22.1636 93.7734 22.4689C94.1526 23.0866 95.1889 23.6581 94.3638 23.7442C93.6775 23.8164 94.3032 24.1944 94.6629 24.4494Z" fill="black"/>
<g opacity="0.1">
<path opacity="0.1" d="M94.8652 25.3936C94.8248 25.4294 94.7953 25.4719 94.7792 25.5181C94.7631 25.5642 94.7607 25.6126 94.7722 25.6596C94.5728 25.7978 94.2932 25.635 94.1309 25.4583C93.9667 25.2831 93.781 25.0665 93.5327 25.0911C93.4147 25.1206 93.3002 25.1582 93.1905 25.2032C92.7995 25.3016 92.469 24.9405 92.2501 24.624C91.8688 24.0693 91.4876 23.5152 91.1063 22.9616C90.3418 23.3104 89.4385 22.9447 88.6799 22.5836C87.9213 22.2225 87.0181 21.8553 86.2516 22.2041C85.1274 22.7142 85.0863 24.415 83.9211 24.8345C83.5457 24.9697 83.1097 24.9405 82.7617 25.1264C82.4175 25.3108 82.2318 25.6657 82.0774 26.0053C82.0202 26.1985 81.8859 26.3724 81.6942 26.5015C81.5723 26.5516 81.4367 26.5774 81.2992 26.5768C80.9537 26.623 80.5985 26.5838 80.2825 26.4647C80.0932 26.366 79.9573 26.2154 79.9015 26.0423C79.8627 26.1799 79.8784 26.3236 79.9465 26.454C80.0146 26.5845 80.1319 26.6954 80.2825 26.7719C80.5985 26.8911 80.9537 26.9302 81.2992 26.8841C81.4367 26.8847 81.5723 26.8589 81.6942 26.8088C81.8859 26.6797 82.0202 26.5058 82.0774 26.3125C82.2318 25.973 82.4175 25.6181 82.7617 25.4337C83.1097 25.2478 83.5457 25.277 83.9211 25.1418C85.0863 24.7223 85.1274 23.0215 86.2516 22.5114C87.0181 22.1626 87.9213 22.5298 88.6799 22.8909C89.4385 23.252 90.3418 23.6176 91.1063 23.2689C91.4875 23.822 91.8688 24.3761 92.2501 24.9313C92.469 25.2478 92.7995 25.6088 93.1905 25.5105C93.3002 25.4655 93.4147 25.4279 93.5327 25.3984C93.781 25.3738 93.9667 25.5904 94.1309 25.7656C94.2932 25.9423 94.5728 26.1051 94.7722 25.9668C94.7613 25.8787 94.7884 25.7903 94.849 25.7156C94.9096 25.641 95.0003 25.5845 95.1065 25.5551C95.259 25.5013 94.9348 25.4726 94.8652 25.3936Z" fill="black"/>
<path opacity="0.1" d="M94.2259 23.8586C94.285 23.8399 94.3471 23.8276 94.4105 23.822C94.7743 23.784 94.7758 23.6516 94.6317 23.4625C94.5633 23.4916 94.488 23.5093 94.4105 23.5147C94.0179 23.556 94.0552 23.6974 94.2259 23.8586Z" fill="black"/>
<path opacity="0.1" d="M94.9743 25.1456C95.0015 25.0465 95.0008 24.944 94.9723 24.8451C94.955 24.9064 94.9214 24.964 94.8737 25.0143C94.8128 25.0753 94.8878 25.1147 94.9743 25.1456Z" fill="black"/>
<path opacity="0.1" d="M80.2956 24.703C80.2915 24.7206 80.2869 24.7379 80.2845 24.7561C80.2767 24.8945 80.2893 25.0331 80.322 25.1691C80.3446 25.0136 80.3357 24.8562 80.2956 24.703V24.703Z" fill="black"/>
<path opacity="0.1" d="M81.0896 22.8285C80.9976 22.9654 80.8876 23.0945 80.7616 23.2136L81.0771 23.0428C81.0756 22.9712 81.0797 22.8996 81.0896 22.8285V22.8285Z" fill="black"/>
</g>
<path d="M79.9988 25.9981C79.9988 25.9981 78.8191 21.8538 79.1945 21.1891C79.1945 21.1891 78.1756 19.547 78.1756 19.1561C78.1262 18.5036 77.868 17.8716 77.4249 17.3185C76.8886 16.6538 76.2988 13.5651 79.5162 12.8222C82.7337 12.0794 85.2004 11.4147 85.5758 10.9065C85.9511 10.3982 91.4744 10.711 92.9759 12.6658C94.4774 14.6207 95.4426 14.2298 95.4426 14.2298C95.4426 14.2298 97.7485 15.3636 97.7485 16.3801C97.7485 17.3967 97.0513 17.9049 97.7485 18.1395C98.4456 18.3741 97.9093 22.5967 94.8527 22.7139L94.5846 24.9425C94.5846 24.9425 86.3801 16.7711 79.9988 25.9981Z" fill="#D44000"/>
<path opacity="0.1" d="M80.3502 13.6298C80.3502 13.6298 79.6415 16.8948 80.9367 17.9895L80.3502 13.6298Z" fill="black"/>
<path opacity="0.1" d="M83.674 12.8808C83.674 12.8808 81.8655 16.3762 82.3054 17.0484L83.674 12.8808Z" fill="black"/>
<path opacity="0.1" d="M85.2381 11.7669C85.2381 11.7669 84.0161 16.3186 84.6026 16.6835L85.2381 11.7669Z" fill="black"/>
<path opacity="0.1" d="M87.3398 12.996C87.3398 12.996 85.8246 15.9153 86.4356 16.3186L87.3398 12.996Z" fill="black"/>
<path opacity="0.1" d="M90.1993 13.3418C90.1993 13.3418 88.4152 15.7232 88.7818 16.1458L90.1993 13.3418Z" fill="black"/>
<path opacity="0.1" d="M93.8652 15.6656C93.8652 15.6656 91.959 16.0689 92.35 16.5491L93.8652 15.6656Z" fill="black"/>
<path opacity="0.1" d="M95.6737 18.1431C95.6737 18.1431 93.9629 18.7961 94.2806 19.1418L95.6737 18.1431Z" fill="black"/>
<path opacity="0.1" d="M79.1945 21.1891C79.1945 21.1891 90.1214 17.7013 94.8527 22.7139C94.8527 22.714 89.1098 18.8768 79.1945 21.1891Z" fill="black"/>
<path d="M75.2458 49.848L76.7684 48.6377L81.0731 51.9815L79.5506 53.1921L75.5916 50.1168L75.2458 49.848Z" fill="#53526B"/>
<path d="M65.2573 42.0888C65.2573 42.0888 71.9212 42.5344 78.1235 48.0204L75.5384 50.0754L65.2573 42.0888Z" fill="#DFE6F5"/>
<path d="M85.2454 51.8978C85.2454 51.8978 78.8404 50.063 78.211 49.6242C77.5816 49.1855 73.8793 51.7383 78.3961 55.2085C78.3961 55.2085 83.9193 56.445 85.3968 55.2085C86.8744 53.972 85.2454 51.8978 85.2454 51.8978Z" fill="#FDC2CC"/>
<path d="M203.805 86.9666H202.503V109.994H203.805V86.9666Z" fill="#535461"/>
<path d="M211.985 109.924L211.902 110.961L211.787 112.425L211.74 113.035L211.625 114.5L211.575 115.111L211.46 116.575L210.146 133.224C210.09 133.941 209.688 134.613 209.023 135.105C208.357 135.596 207.478 135.87 206.565 135.87H199.743C198.83 135.87 197.951 135.596 197.286 135.105C196.621 134.613 196.219 133.94 196.163 133.224L194.848 116.575L194.733 115.111L194.685 114.5L194.568 113.035L194.52 112.425L194.405 110.961L194.323 109.924C194.307 109.725 194.344 109.526 194.43 109.338C194.516 109.15 194.65 108.979 194.824 108.833C194.998 108.688 195.208 108.572 195.441 108.493C195.674 108.414 195.925 108.373 196.179 108.373H210.131C210.385 108.373 210.636 108.414 210.869 108.493C211.101 108.573 211.311 108.688 211.485 108.834C211.659 108.979 211.793 109.151 211.879 109.338C211.965 109.526 212.001 109.725 211.985 109.924V109.924Z" fill="#65617D"/>
<path d="M211.902 110.961L211.787 112.425H194.52L194.405 110.961H211.902Z" fill="#9D9CB5"/>
<path d="M211.74 113.035L211.625 114.501H194.685L194.568 113.035H211.74Z" fill="#9D9CB5"/>
<path d="M211.575 115.111L211.46 116.575H194.848L194.733 115.111H211.575Z" fill="#9D9CB5"/>
<path d="M192.418 95.5977C199.998 99.9067 203.154 106.647 203.154 106.647C203.154 106.647 194.02 106.401 186.44 102.092C178.86 97.7828 175.704 91.0426 175.704 91.0426C175.704 91.0426 184.837 91.2888 192.418 95.5977Z" fill="#D44000"/>
<path d="M175.704 91.0426C175.704 91.0426 185.184 95.1782 188.225 98.6019C191.267 102.025 203.154 106.647 203.154 106.647" stroke="#535461" stroke-width="2" stroke-miterlimit="10"/>
<path d="M197.31 86.9157C201.436 89.2611 203.154 92.9297 203.154 92.9297C203.154 92.9297 198.182 92.7958 194.056 90.4504C189.931 88.105 188.213 84.4364 188.213 84.4364C188.213 84.4364 193.184 84.5704 197.31 86.9157Z" fill="#D44000"/>
<path d="M188.213 84.4364C188.213 84.4364 193.373 86.6874 195.028 88.5508C196.684 90.4143 203.154 92.9297 203.154 92.9297" stroke="#535461" stroke-width="2" stroke-miterlimit="10"/>
<path d="M209.149 92.743C204.41 96.8361 203.408 102.184 203.408 102.184C203.408 102.184 210.089 100.896 214.828 96.8029C219.567 92.7097 220.569 87.3616 220.569 87.3616C220.569 87.3616 213.888 88.6498 209.149 92.743Z" fill="#D44000"/>
<path d="M220.569 87.3616C220.569 87.3616 214.396 91.5573 212.827 94.4481C211.259 97.339 203.408 102.184 203.408 102.184" stroke="#535461" stroke-width="2" stroke-miterlimit="10"/>
</g>
<defs>
<linearGradient id="paint0_linear" x1="88.8334" y1="135.836" x2="88.8334" y2="10.1425" gradientUnits="userSpaceOnUse">
<stop stop-color="#808080" stop-opacity="0.25"/>
<stop offset="0.53514" stop-color="#808080" stop-opacity="0.12"/>
<stop offset="1" stop-color="#808080" stop-opacity="0.1"/>
</linearGradient>
<clipPath id="clip0">
<rect width="224" height="137" fill="white"/>
</clipPath>
</defs>
</svg>
