<svg width="89" height="43" viewBox="0 0 89 43" fill="none" xmlns="http://www.w3.org/2000/svg">
<rect width="89" height="28" rx="14" fill="#2E2727"/>
<path d="M17.336 12.24C17.184 11.96 16.964 11.748 16.676 11.604C16.396 11.452 16.064 11.376 15.68 11.376C15.016 11.376 14.484 11.596 14.084 12.036C13.684 12.468 13.484 13.048 13.484 13.776C13.484 14.552 13.692 15.16 14.108 15.6C14.532 16.032 15.112 16.248 15.848 16.248C16.352 16.248 16.776 16.12 17.12 15.864C17.472 15.608 17.728 15.24 17.888 14.76H15.284V13.248H19.748V15.156C19.596 15.668 19.336 16.144 18.968 16.584C18.608 17.024 18.148 17.38 17.588 17.652C17.028 17.924 16.396 18.06 15.692 18.06C14.86 18.06 14.116 17.88 13.46 17.52C12.812 17.152 12.304 16.644 11.936 15.996C11.576 15.348 11.396 14.608 11.396 13.776C11.396 12.944 11.576 12.204 11.936 11.556C12.304 10.9 12.812 10.392 13.46 10.032C14.108 9.664 14.848 9.48 15.68 9.48C16.688 9.48 17.536 9.724 18.224 10.212C18.92 10.7 19.38 11.376 19.604 12.24H17.336ZM23.9326 18.096C23.2766 18.096 22.6846 17.956 22.1566 17.676C21.6366 17.396 21.2246 16.996 20.9206 16.476C20.6246 15.956 20.4766 15.348 20.4766 14.652C20.4766 13.964 20.6286 13.36 20.9326 12.84C21.2366 12.312 21.6526 11.908 22.1806 11.628C22.7086 11.348 23.3006 11.208 23.9566 11.208C24.6126 11.208 25.2046 11.348 25.7326 11.628C26.2606 11.908 26.6766 12.312 26.9806 12.84C27.2846 13.36 27.4366 13.964 27.4366 14.652C27.4366 15.34 27.2806 15.948 26.9686 16.476C26.6646 16.996 26.2446 17.396 25.7086 17.676C25.1806 17.956 24.5886 18.096 23.9326 18.096ZM23.9326 16.32C24.3246 16.32 24.6566 16.176 24.9286 15.888C25.2086 15.6 25.3486 15.188 25.3486 14.652C25.3486 14.116 25.2126 13.704 24.9406 13.416C24.6766 13.128 24.3486 12.984 23.9566 12.984C23.5566 12.984 23.2246 13.128 22.9606 13.416C22.6966 13.696 22.5646 14.108 22.5646 14.652C22.5646 15.188 22.6926 15.6 22.9486 15.888C23.2126 16.176 23.5406 16.32 23.9326 16.32ZM31.5733 18.096C30.9173 18.096 30.3253 17.956 29.7973 17.676C29.2773 17.396 28.8653 16.996 28.5613 16.476C28.2653 15.956 28.1173 15.348 28.1173 14.652C28.1173 13.964 28.2693 13.36 28.5732 12.84C28.8773 12.312 29.2933 11.908 29.8213 11.628C30.3493 11.348 30.9413 11.208 31.5973 11.208C32.2533 11.208 32.8453 11.348 33.3733 11.628C33.9013 11.908 34.3173 12.312 34.6213 12.84C34.9253 13.36 35.0773 13.964 35.0773 14.652C35.0773 15.34 34.9213 15.948 34.6093 16.476C34.3053 16.996 33.8853 17.396 33.3493 17.676C32.8213 17.956 32.2293 18.096 31.5733 18.096ZM31.5733 16.32C31.9653 16.32 32.2973 16.176 32.5693 15.888C32.8493 15.6 32.9893 15.188 32.9893 14.652C32.9893 14.116 32.8533 13.704 32.5813 13.416C32.3173 13.128 31.9893 12.984 31.5973 12.984C31.1973 12.984 30.8653 13.128 30.6013 13.416C30.3373 13.696 30.2053 14.108 30.2053 14.652C30.2053 15.188 30.3333 15.6 30.5893 15.888C30.8533 16.176 31.1813 16.32 31.5733 16.32ZM35.7579 14.64C35.7579 13.952 35.8859 13.348 36.1419 12.828C36.4059 12.308 36.7619 11.908 37.2099 11.628C37.6579 11.348 38.1579 11.208 38.7099 11.208C39.1499 11.208 39.5499 11.3 39.9099 11.484C40.2779 11.668 40.5659 11.916 40.7739 12.228V9.12H42.8259V18H40.7739V17.04C40.5819 17.36 40.3059 17.616 39.9459 17.808C39.5939 18 39.1819 18.096 38.7099 18.096C38.1579 18.096 37.6579 17.956 37.2099 17.676C36.7619 17.388 36.4059 16.984 36.1419 16.464C35.8859 15.936 35.7579 15.328 35.7579 14.64ZM40.7739 14.652C40.7739 14.14 40.6299 13.736 40.3419 13.44C40.0619 13.144 39.7179 12.996 39.3099 12.996C38.9019 12.996 38.5539 13.144 38.2659 13.44C37.9859 13.728 37.8459 14.128 37.8459 14.64C37.8459 15.152 37.9859 15.56 38.2659 15.864C38.5539 16.16 38.9019 16.308 39.3099 16.308C39.7179 16.308 40.0619 16.16 40.3419 15.864C40.6299 15.568 40.7739 15.164 40.7739 14.652Z" fill="#D44000"/>
<path d="M50.5854 16.26V18H49.5414C48.7974 18 48.2174 17.82 47.8014 17.46C47.3854 17.092 47.1774 16.496 47.1774 15.672V13.008H46.3614V11.304H47.1774V9.672H49.2294V11.304H50.5734V13.008H49.2294V15.696C49.2294 15.896 49.2774 16.04 49.3734 16.128C49.4694 16.216 49.6294 16.26 49.8534 16.26H50.5854ZM51.3204 14.64C51.3204 13.952 51.4484 13.348 51.7044 12.828C51.9684 12.308 52.3244 11.908 52.7724 11.628C53.2204 11.348 53.7204 11.208 54.2724 11.208C54.7444 11.208 55.1564 11.304 55.5084 11.496C55.8684 11.688 56.1444 11.94 56.3364 12.252V11.304H58.3884V18H56.3364V17.052C56.1364 17.364 55.8564 17.616 55.4964 17.808C55.1444 18 54.7324 18.096 54.2604 18.096C53.7164 18.096 53.2204 17.956 52.7724 17.676C52.3244 17.388 51.9684 16.984 51.7044 16.464C51.4484 15.936 51.3204 15.328 51.3204 14.64ZM56.3364 14.652C56.3364 14.14 56.1924 13.736 55.9044 13.44C55.6244 13.144 55.2804 12.996 54.8724 12.996C54.4644 12.996 54.1164 13.144 53.8284 13.44C53.5484 13.728 53.4084 14.128 53.4084 14.64C53.4084 15.152 53.5484 15.56 53.8284 15.864C54.1164 16.16 54.4644 16.308 54.8724 16.308C55.2804 16.308 55.6244 16.16 55.9044 15.864C56.1924 15.568 56.3364 15.164 56.3364 14.652ZM62.5969 18.096C62.0129 18.096 61.4929 17.996 61.0369 17.796C60.5809 17.596 60.2209 17.324 59.9569 16.98C59.6929 16.628 59.5449 16.236 59.5129 15.804H61.5409C61.5649 16.036 61.6729 16.224 61.8649 16.368C62.0569 16.512 62.2929 16.584 62.5729 16.584C62.8289 16.584 63.0249 16.536 63.1609 16.44C63.3049 16.336 63.3769 16.204 63.3769 16.044C63.3769 15.852 63.2769 15.712 63.0769 15.624C62.8769 15.528 62.5529 15.424 62.1049 15.312C61.6249 15.2 61.2249 15.084 60.9049 14.964C60.5849 14.836 60.3089 14.64 60.0769 14.376C59.8449 14.104 59.7289 13.74 59.7289 13.284C59.7289 12.9 59.8329 12.552 60.0409 12.24C60.2569 11.92 60.5689 11.668 60.9769 11.484C61.3929 11.3 61.8849 11.208 62.4529 11.208C63.2929 11.208 63.9529 11.416 64.4329 11.832C64.9209 12.248 65.2009 12.8 65.2729 13.488H63.3769C63.3449 13.256 63.2409 13.072 63.0649 12.936C62.8969 12.8 62.6729 12.732 62.3929 12.732C62.1529 12.732 61.9689 12.78 61.8409 12.876C61.7129 12.964 61.6489 13.088 61.6489 13.248C61.6489 13.44 61.7489 13.584 61.9489 13.68C62.1569 13.776 62.4769 13.872 62.9089 13.968C63.4049 14.096 63.8089 14.224 64.1209 14.352C64.4329 14.472 64.7049 14.672 64.9369 14.952C65.1769 15.224 65.3009 15.592 65.3089 16.056C65.3089 16.448 65.1969 16.8 64.9729 17.112C64.7569 17.416 64.4409 17.656 64.0249 17.832C63.6169 18.008 63.1409 18.096 62.5969 18.096ZM70.2963 16.26V18H69.2523C68.5083 18 67.9283 17.82 67.5123 17.46C67.0963 17.092 66.8883 16.496 66.8883 15.672V13.008H66.0723V11.304H66.8883V9.672H68.9403V11.304H70.2843V13.008H68.9403V15.696C68.9403 15.896 68.9883 16.04 69.0843 16.128C69.1803 16.216 69.3403 16.26 69.5643 16.26H70.2963ZM77.7513 14.544C77.7513 14.736 77.7393 14.936 77.7153 15.144H73.0713C73.1033 15.56 73.2353 15.88 73.4673 16.104C73.7073 16.32 73.9993 16.428 74.3433 16.428C74.8553 16.428 75.2113 16.212 75.4113 15.78H77.5953C77.4833 16.22 77.2793 16.616 76.9833 16.968C76.6953 17.32 76.3313 17.596 75.8913 17.796C75.4513 17.996 74.9593 18.096 74.4153 18.096C73.7593 18.096 73.1753 17.956 72.6633 17.676C72.1513 17.396 71.7513 16.996 71.4633 16.476C71.1753 15.956 71.0313 15.348 71.0313 14.652C71.0313 13.956 71.1713 13.348 71.4513 12.828C71.7393 12.308 72.1393 11.908 72.6513 11.628C73.1633 11.348 73.7513 11.208 74.4153 11.208C75.0633 11.208 75.6393 11.344 76.1433 11.616C76.6473 11.888 77.0393 12.276 77.3193 12.78C77.6073 13.284 77.7513 13.872 77.7513 14.544ZM75.6513 14.004C75.6513 13.652 75.5313 13.372 75.2913 13.164C75.0513 12.956 74.7513 12.852 74.3913 12.852C74.0473 12.852 73.7553 12.952 73.5153 13.152C73.2833 13.352 73.1393 13.636 73.0833 14.004H75.6513Z" fill="white"/>
<path d="M69.502 41.9983L57.8728 24.7437L81.2588 24.8304L69.502 41.9983Z" fill="#2E2727"/>
</svg>
