<svg width="224" height="137" viewBox="0 0 224 137" fill="none" xmlns="http://www.w3.org/2000/svg">
<path d="M204.898 47.9347C204.663 48.1093 204.428 48.2763 204.187 48.4407H144.797C144.355 48.2763 143.914 48.1076 143.476 47.9347C137.206 45.4686 131.37 42.1848 126.155 38.1881C122.692 35.5364 119.506 32.7986 117.196 30.233C113.974 26.6526 111.006 22.751 109.626 18.3053C108.249 13.8596 108.66 8.76366 111.737 5.07707C112.69 3.94302 113.861 2.97359 115.195 2.21534C115.416 2.08882 115.64 1.96737 115.869 1.85351C119.559 -0.0188843 124.215 -0.474335 128.369 0.494757C134.319 1.88387 139.262 5.76277 142.79 10.3122C146.317 14.8591 148.608 20.0815 150.864 25.2458C153.154 16.0281 160.089 7.7718 169.456 3.57409C178.821 -0.623621 190.456 -0.573015 199.621 3.97387C202.505 5.41319 205.11 7.26772 207.334 9.46454C207.555 9.67962 207.771 9.89975 207.984 10.1224C212.454 14.8009 215.251 20.7925 215.481 26.9715C215.775 34.9317 211.693 42.9273 204.898 47.9347Z" fill="#F2F2F2"/>
<path d="M147.171 48.4407H146.331C146.32 48.2712 146.306 48.1042 146.289 47.9347C145.996 44.625 145.381 41.345 144.453 38.1324C142.323 30.7982 138.684 23.8918 133.728 17.7739C128.785 11.6365 122.554 6.43835 115.391 2.47594C115.338 2.4488 115.293 2.41123 115.259 2.36607C115.225 2.32091 115.203 2.26936 115.195 2.21532C115.181 2.14466 115.19 2.07194 115.22 2.00563C115.25 1.93931 115.301 1.88214 115.366 1.84077C115.43 1.7994 115.507 1.77554 115.586 1.77197C115.666 1.7684 115.744 1.78526 115.813 1.8206C115.833 1.83067 115.851 1.84164 115.869 1.85349C119.928 4.08937 123.696 6.7307 127.101 9.72768C133.193 15.0985 138.105 21.4627 141.578 28.4845C144.642 34.6343 146.518 41.2126 147.127 47.9347C147.143 48.1042 147.157 48.2737 147.171 48.4407Z" fill="white"/>
<path d="M207.984 10.1224C207.978 10.1252 207.971 10.127 207.964 10.1275C207.351 10.2287 206.735 10.3349 206.125 10.4488C201.115 11.3787 196.211 12.7246 191.474 14.4694C186.751 16.2117 182.207 18.3285 177.897 20.7951C173.58 23.2603 169.51 26.0609 165.733 29.1652C161.955 32.2649 158.489 35.6621 155.377 39.3166C153.051 42.0547 150.936 44.9342 149.047 47.9347C148.941 48.1017 148.837 48.2712 148.733 48.4407H147.773C147.874 48.2712 147.978 48.1017 148.084 47.9347C150.369 44.2582 152.989 40.7602 155.917 37.4771C159.155 33.8436 162.744 30.4778 166.642 27.4193C170.516 24.3781 174.673 21.6453 179.067 19.2516C183.479 16.8482 188.119 14.8025 192.93 13.1385C197.6 11.5251 202.421 10.2955 207.334 9.46454C207.471 9.44176 207.606 9.41899 207.743 9.39622C208.266 9.31018 208.49 10.0237 207.984 10.1224Z" fill="white"/>
<path d="M55.3418 49.945C56.8353 47.3968 57.0819 44.078 55.2248 41.7332C54.1194 40.3374 52.3933 39.4212 50.5822 38.9044C48.7712 38.3876 46.8606 38.2358 44.9665 38.1102C43.0915 37.9858 41.1832 37.8863 39.3516 38.2696C37.5201 38.6529 35.746 39.5892 34.8537 41.0848C33.3464 43.6114 34.7195 46.8511 33.6124 49.5416C32.5965 52.0105 29.705 53.454 26.8626 54.0365C24.0202 54.619 21.0534 54.557 18.2096 55.1339C15.3658 55.7107 12.4695 57.1408 11.4355 59.6036C10.6878 61.3846 11.0593 63.4361 12.0445 65.12C13.0297 66.8039 14.5728 68.1672 16.2106 69.3661C18.654 71.1545 21.5127 72.6863 24.6522 72.8413C27.9602 73.0047 31.1948 71.5814 33.5758 69.4994C35.9567 67.4173 37.5777 64.7267 38.8728 61.9706C39.6943 60.2222 40.4706 58.3406 42.117 57.1599C43.3268 56.2923 44.8655 55.9122 46.3578 55.5528L48.0476 55.1457C49.5788 54.7836 51.0118 54.1422 52.2585 53.2609C53.5052 52.3796 54.5391 51.2771 55.2968 50.0212C55.3119 49.9958 55.3269 49.9704 55.3418 49.945Z" fill="#2F2E41"/>
<path d="M42.0157 133.766H38.5837L36.9507 121.801H42.0165L42.0157 133.766Z" fill="#FFB8B8"/>
<path d="M36.132 132.88H42.7513V136.647H31.9643C31.9643 136.152 32.0721 135.662 32.2816 135.205C32.491 134.748 32.798 134.333 33.185 133.983C33.572 133.633 34.0314 133.356 34.5371 133.167C35.0427 132.977 35.5847 132.88 36.132 132.88V132.88Z" fill="#2F2E41"/>
<path d="M70.5713 133.766H67.1393L65.5063 121.801H70.5722L70.5713 133.766Z" fill="#FFB8B8"/>
<path d="M64.6876 132.88H71.3069V136.647H60.52C60.52 136.152 60.6278 135.662 60.8372 135.205C61.0467 134.748 61.3536 134.333 61.7406 133.983C62.1277 133.633 62.5871 133.356 63.0927 133.167C63.5984 132.977 64.1403 132.88 64.6876 132.88V132.88Z" fill="#2F2E41"/>
<path d="M48.6134 124.256C48.5655 124.256 48.5177 124.254 48.4701 124.249L34.5066 122.897C34.3211 122.879 34.142 122.826 33.9812 122.74C33.8204 122.655 33.6816 122.54 33.5739 122.402C33.4663 122.264 33.3924 122.107 33.357 121.942C33.3217 121.776 33.3258 121.606 33.369 121.442L45.7326 78.941C45.7905 78.7247 45.9141 78.5274 46.0895 78.3713C46.2649 78.2151 46.4851 78.1064 46.7252 78.0573L58.1945 75.1677C58.4244 75.1221 58.6637 75.1328 58.8876 75.1987C59.1115 75.2646 59.3118 75.3834 59.4679 75.5427C66.8421 83.0602 72.3992 99.7248 76.6088 120.729C76.6406 120.888 76.6363 121.051 76.5963 121.208C76.5562 121.365 76.4813 121.513 76.3759 121.643C76.2706 121.773 76.1371 121.882 75.9836 121.964C75.83 122.045 75.6597 122.098 75.4829 122.119L64.0417 123.439C63.7171 123.477 63.3886 123.404 63.1207 123.234C62.8528 123.064 62.6649 122.81 62.5941 122.521L57.0275 100.091C56.9763 99.8843 56.8482 99.7 56.6646 99.5687C56.481 99.4374 56.2531 99.3671 56.019 99.3696C55.785 99.372 55.5589 99.4471 55.3787 99.5821C55.1986 99.7172 55.0752 99.9041 55.0293 100.112L49.8976 123.302C49.8395 123.571 49.6795 123.813 49.4452 123.987C49.2109 124.162 48.9168 124.257 48.6134 124.256V124.256Z" fill="#2F2E41"/>
<path d="M46.4895 55.781C50.287 55.781 53.3655 52.9986 53.3655 49.5664C53.3655 46.1342 50.287 43.3518 46.4895 43.3518C42.6919 43.3518 39.6134 46.1342 39.6134 49.5664C39.6134 52.9986 42.6919 55.781 46.4895 55.781Z" fill="#FFB8B8"/>
<path d="M46.2974 79.0605C46.0083 79.0603 45.7275 78.9737 45.4985 78.8141C45.2696 78.6546 45.1054 78.4312 45.0316 78.1786L40.895 64.1332C40.5965 63.124 40.7201 62.0507 41.2423 61.1186C41.7645 60.1866 42.6486 59.4614 43.7254 59.0816C47.0552 57.9069 50.2276 57.4711 53.1545 57.7858C55.7558 58.0661 58.9649 71.9853 58.7526 72.2822L59.7791 75.0654C59.8373 75.2233 59.8582 75.3904 59.8403 75.556C59.8224 75.7216 59.7662 75.882 59.6754 76.0267C59.5845 76.1714 59.461 76.2972 59.3129 76.396C59.1647 76.4947 58.9953 76.5642 58.8155 76.6L46.5827 79.0322C46.489 79.0509 46.3934 79.0604 46.2974 79.0605V79.0605Z" fill="#CCCCCC"/>
<path d="M50.0047 93.424C50.0636 93.1476 50.0548 92.8628 49.9788 92.5898C49.9027 92.3168 49.7614 92.0622 49.5648 91.8439C49.3681 91.6256 49.1209 91.4489 48.8405 91.3263C48.5601 91.2037 48.2534 91.1382 47.9419 91.1343L45.5587 84.6391L43.1228 87.4317L45.7595 93.1715C45.7869 93.6448 46.0055 94.0926 46.3739 94.4299C46.7422 94.7673 47.2347 94.9708 47.758 95.002C48.2813 95.0331 48.799 94.8896 49.2131 94.5988C49.6272 94.308 49.9088 93.89 50.0047 93.424V93.424Z" fill="#FFB8B8"/>
<path d="M80.6453 77.8142C80.5026 77.564 80.3009 77.3451 80.0545 77.1729C79.8081 77.0007 79.5229 76.8794 79.219 76.8176C78.9152 76.7558 78.6 76.755 78.2957 76.8152C77.9914 76.8754 77.7055 76.9952 77.458 77.1661L71.1433 73.3904L71.1376 76.9464L77.1349 79.9867C77.4801 80.3435 77.9582 80.5734 78.4784 80.6329C78.9987 80.6924 79.525 80.5774 79.9577 80.3096C80.3904 80.0419 80.6994 79.6399 80.8261 79.18C80.9528 78.7201 80.8885 78.2341 80.6453 77.8142H80.6453Z" fill="#FFB8B8"/>
<path d="M45.008 90.4231C44.7319 90.4232 44.4627 90.3445 44.2388 90.1984C44.015 90.0522 43.8478 89.846 43.7611 89.609L38.1741 78.9271C37.9449 78.3011 37.8282 77.646 37.8284 76.9866L39.5081 63.1027C39.5081 62.3254 39.8363 61.5773 40.4257 61.0112C41.0152 60.4452 41.8215 60.1038 42.68 60.0568C43.5385 60.0098 44.3845 60.2607 45.0453 60.7583C45.706 61.2559 46.1318 61.9627 46.2355 62.7344L43.6656 78.5817L47.7666 88.308C47.8315 88.5668 47.7984 88.8378 47.6726 89.0775C47.5467 89.3172 47.3355 89.5118 47.0728 89.6301L45.5951 90.2979C45.4129 90.3803 45.2118 90.4232 45.008 90.4231Z" fill="#CCCCCC"/>
<path d="M74.847 79.2166C74.6413 79.2167 74.4384 79.173 74.2549 79.0891L63.144 74.0167C62.4926 73.7196 61.8982 73.3301 61.3834 72.8628L50.5387 63.0296C49.9315 62.4791 49.5797 61.7399 49.5551 60.9629C49.5305 60.1859 49.835 59.4297 50.4063 58.8487C50.9777 58.2676 51.7728 57.9056 52.6295 57.8365C53.4861 57.7674 54.3397 57.9963 55.0159 58.4767L66.7636 70.2684L76.0758 75.6123C76.3239 75.7541 76.5121 75.9672 76.6102 76.2172C76.7083 76.4673 76.7107 76.7399 76.6169 76.9913L76.092 78.4071C76.0045 78.6429 75.8372 78.8479 75.6138 78.9932C75.3904 79.1384 75.1222 79.2166 74.847 79.2166L74.847 79.2166Z" fill="#CCCCCC"/>
<path d="M38.6683 46.3534C39.8363 47.7344 41.5152 48.6892 43.3982 49.0434C45.3067 49.3998 47.2931 49.1426 49.0141 48.3161C50.399 47.6399 51.5072 46.6249 52.5926 45.6256C53.0455 45.2086 53.528 44.7276 53.5052 44.1587C53.4699 43.2772 52.2974 42.7953 51.2911 42.6031C47.988 41.9803 44.551 42.3296 41.4835 43.6C40.1173 44.1735 38.6939 45.2112 38.899 46.5011" fill="#2F2E41"/>
<path d="M219.241 47.9347H84.3013C83.0396 47.9363 81.8301 48.39 80.938 49.1963C80.0458 50.0027 79.5438 51.0958 79.542 52.2361V99.2991C79.5438 100.439 80.0458 101.533 80.938 102.339C81.8301 103.145 83.0396 103.599 84.3013 103.601H219.241C220.502 103.599 221.712 103.145 222.604 102.339C223.496 101.533 223.998 100.439 224 99.2991V52.2361C223.998 51.0958 223.496 50.0027 222.604 49.1963C221.712 48.39 220.502 47.9363 219.241 47.9347V47.9347ZM223.44 99.2991C223.439 100.305 222.996 101.27 222.209 101.981C221.421 102.693 220.354 103.093 219.241 103.094H84.3013C83.188 103.093 82.1206 102.693 81.3334 101.981C80.5462 101.27 80.1033 100.305 80.1019 99.2991V52.2361C80.1033 51.2299 80.5462 50.2652 81.3334 49.5537C82.1206 48.8422 83.188 48.442 84.3013 48.4407H219.241C220.354 48.442 221.421 48.8422 222.209 49.5537C222.996 50.2652 223.439 51.2299 223.44 52.2361V99.2991Z" fill="#3F3D56"/>
<path d="M108.801 90.4431C105.59 90.4431 102.451 89.5824 99.7803 87.9698C97.11 86.3573 95.0288 84.0653 93.7999 81.3837C92.5709 78.7021 92.2493 75.7513 92.8758 72.9045C93.5024 70.0578 95.0489 67.4428 97.3197 65.3904C99.5906 63.338 102.484 61.9403 105.634 61.374C108.783 60.8078 112.048 61.0984 115.015 62.2092C117.982 63.3199 120.518 65.2009 122.302 67.6143C124.087 70.0277 125.039 72.865 125.039 75.7676C125.034 79.6584 123.322 83.3887 120.278 86.1399C117.234 88.8911 113.106 90.4387 108.801 90.4431V90.4431ZM108.801 61.5981C105.701 61.5981 102.67 62.4291 100.091 63.9861C97.5132 65.5431 95.5038 67.756 94.3172 70.3452C93.1306 72.9343 92.8201 75.7833 93.425 78.5319C94.0299 81.2805 95.5231 83.8053 97.7156 85.7869C99.9082 87.7686 102.702 89.1181 105.743 89.6648C108.784 90.2115 111.936 89.9309 114.801 88.8585C117.666 87.786 120.114 85.9699 121.837 83.6397C123.56 81.3096 124.479 78.57 124.479 75.7676C124.474 72.0109 122.821 68.4093 119.882 65.753C116.943 63.0966 112.958 61.6024 108.801 61.5981Z" fill="#3F3D56"/>
<path d="M207.199 66.4056H142.529C141.625 66.4061 140.756 66.7227 140.105 67.2892C139.453 67.8557 139.07 68.6281 139.035 69.4445C139.03 69.4856 139.028 69.527 139.029 69.5684C139.03 70.4069 139.399 71.2107 140.055 71.8036C140.711 72.3965 141.601 72.7301 142.529 72.7313H207.199C208.127 72.7313 209.017 72.3981 209.673 71.8049C210.329 71.2118 210.698 70.4073 210.698 69.5684C210.698 68.7296 210.329 67.9251 209.673 67.332C209.017 66.7388 208.127 66.4056 207.199 66.4056Z" fill="#D44000"/>
<path d="M207.199 78.8039H142.529C141.625 78.8044 140.756 79.1211 140.105 79.6876C139.453 80.2541 139.07 81.0264 139.035 81.8428C139.03 81.8839 139.028 81.9254 139.029 81.9667C139.03 82.8052 139.399 83.609 140.055 84.2019C140.711 84.7948 141.601 85.1284 142.529 85.1296H207.199C208.127 85.1296 209.017 84.7963 209.673 84.2032C210.329 83.61 210.698 82.8056 210.698 81.9667C210.698 81.1279 210.329 80.3234 209.673 79.7303C209.017 79.1371 208.127 78.8039 207.199 78.8039V78.8039Z" fill="#D44000"/>
<path d="M106.99 82.1797C106.537 82.1805 106.096 82.0481 105.733 81.8024L105.711 81.7872L100.978 78.5125C100.759 78.3607 100.575 78.1714 100.437 77.9554C100.299 77.7393 100.209 77.5008 100.173 77.2534C100.137 77.006 100.155 76.7546 100.226 76.5136C100.297 76.2725 100.42 76.0464 100.588 75.8483C100.756 75.6503 100.966 75.484 101.205 75.3591C101.444 75.2342 101.708 75.153 101.981 75.1203C102.255 75.0875 102.533 75.1038 102.8 75.1682C103.067 75.2326 103.317 75.3439 103.536 75.4957L106.601 77.62L113.845 69.0818C114.013 68.8838 114.222 68.7176 114.462 68.5928C114.701 68.4679 114.965 68.3869 115.238 68.3542C115.512 68.3215 115.79 68.3379 116.057 68.4024C116.324 68.467 116.574 68.5783 116.793 68.7302L116.748 68.7854L116.794 68.731C117.236 69.038 117.525 69.4909 117.598 69.9904C117.671 70.4898 117.522 70.9951 117.183 71.3952L108.663 81.4381C108.466 81.6695 108.212 81.8568 107.922 81.9854C107.632 82.114 107.313 82.1805 106.99 82.1797V82.1797Z" fill="#D44000"/>
<path d="M106.944 137H0.279973C0.205723 137 0.134515 136.973 0.0820126 136.926C0.0295105 136.878 1.52588e-05 136.814 1.52588e-05 136.747C1.52588e-05 136.68 0.0295105 136.616 0.0820126 136.568C0.134515 136.521 0.205723 136.494 0.279973 136.494H106.944C107.018 136.494 107.089 136.521 107.142 136.568C107.194 136.616 107.224 136.68 107.224 136.747C107.224 136.814 107.194 136.878 107.142 136.926C107.089 136.973 107.018 137 106.944 137Z" fill="#3F3D56"/>
<path d="M191.283 36.5357C185.435 35.8087 179.495 35.9297 173.689 36.8942C167.9 37.8508 162.311 39.6169 157.123 42.1289C154.208 43.5448 151.441 45.197 148.856 47.0653C148.434 47.3702 149.032 47.9041 149.45 47.6021C153.985 44.3415 159.069 41.7587 164.508 39.9517C169.904 38.1479 175.576 37.1079 181.324 36.8685C184.576 36.7335 187.835 36.8671 191.06 37.2677C191.167 37.2909 191.28 37.2764 191.376 37.2272C191.472 37.178 191.543 37.0977 191.576 37.0026C191.605 36.9055 191.591 36.8021 191.536 36.7147C191.481 36.6273 191.39 36.563 191.283 36.5357H191.283Z" fill="white"/>
</svg>
