<svg width="224" height="137" viewBox="0 0 224 137" fill="none" xmlns="http://www.w3.org/2000/svg">
<g clip-path="url(#clip0)">
<path d="M121.554 72.4721V72.7696C121.553 75.5019 120.592 78.1222 118.881 80.054C117.17 81.9857 114.85 83.0707 112.431 83.0703H9.46674C7.04821 83.07 4.7288 81.9847 3.01864 80.053C1.30848 78.1213 0.347627 75.5014 0.347397 72.7696V72.4721H121.554Z" fill="#F2F2F2"/>
<path d="M21.8825 23.4367C14.4417 25.5125 7.76202 19.0463 6.59573 13.0477L7.11379 12.9431C13.3854 11.3772 20.3862 16.4409 21.8825 23.4367Z" fill="#D44000"/>
<path d="M201.741 134.529C199.589 133.479 199.1 129.655 200.902 127.961C202.703 126.266 205.944 127.501 206.468 130.082L204.461 113.861C203.999 110.132 203.63 105.964 205.625 102.947C207.494 100.123 211.143 99.2175 214.074 100.433C217.004 101.649 219.169 104.683 220.088 108.053C221.007 111.422 220.79 115.084 219.988 118.492C219.186 121.9 217.823 125.1 216.444 128.264C215.032 131.506 213.318 135.019 210.299 136.212C207.415 137.352 201.741 134.529 201.741 134.529Z" fill="#F2F2F2"/>
<path d="M211.172 100.126C212.491 104.776 213.119 109.642 213.031 114.524C212.948 119.385 212.175 124.199 210.741 128.783C209.925 131.383 208.891 133.89 207.653 136.269C207.6 136.381 207.587 136.512 207.617 136.634C207.648 136.757 207.719 136.861 207.816 136.925C207.914 136.989 208.029 137.008 208.139 136.978C208.248 136.948 208.343 136.871 208.403 136.764C210.625 132.474 212.204 127.799 213.076 122.927C213.961 118.033 214.138 113.009 213.601 108.051C213.298 105.272 212.766 102.531 212.009 99.8651C211.839 99.2668 211 99.5226 211.172 100.126V100.126Z" fill="white"/>
<path d="M200.465 128.558L207.337 136.714C207.723 137.173 208.336 136.478 207.951 136.021L201.079 127.864C200.693 127.406 200.08 128.1 200.465 128.558V128.558Z" fill="white"/>
<path d="M194.628 97.7597C194.383 97.7602 194.146 97.6609 193.961 97.4799C189.718 94.3591 185.941 90.4961 182.772 86.0356C182.578 85.8277 182.464 85.5425 182.454 85.2408C182.444 84.9391 182.539 84.6449 182.718 84.4211L184.801 81.823L185.23 82.262L183.147 84.8601C183.068 84.9588 183.027 85.089 183.033 85.222C183.039 85.355 183.091 85.4799 183.178 85.5693L183.209 85.6055C186.346 90.0263 190.088 93.8535 194.293 96.9432L194.331 96.976C194.418 97.0653 194.533 97.1118 194.651 97.1053C194.769 97.0987 194.879 97.0395 194.958 96.9408L199.023 91.8713C199.098 91.777 199.139 91.6539 199.138 91.5267C199.136 91.3995 199.091 91.2778 199.013 91.1862C198.072 90.6066 197.153 89.9747 196.281 89.3076L196.606 88.7665C197.472 89.4297 198.387 90.0575 199.324 90.6326L199.38 90.6776C199.48 90.7795 199.56 90.9026 199.618 91.0398C199.675 91.177 199.709 91.3256 199.715 91.4772C199.722 91.6288 199.702 91.7804 199.657 91.9233C199.612 92.0663 199.542 92.1977 199.452 92.3102L195.388 97.3798C195.298 97.4926 195.189 97.5842 195.067 97.6492C194.946 97.7141 194.814 97.7512 194.68 97.7583C194.662 97.7592 194.645 97.7597 194.628 97.7597Z" fill="#3F3D56"/>
<path d="M190.148 89.2254C191.424 90.5298 192.735 91.2457 193.077 90.8207C193.121 90.7486 193.149 90.6653 193.158 90.578C193.167 90.4907 193.157 90.4023 193.129 90.3205C192.99 89.8394 192.769 89.3939 192.477 89.0097C191.343 88.0976 190.24 87.1136 189.169 86.0577C188.834 85.9335 188.576 85.9368 188.452 86.0937C188.434 86.1161 188.419 86.1415 188.408 86.1689C188.194 86.6625 188.938 87.9865 190.148 89.2254Z" fill="#D44000"/>
<path d="M182.455 78.7155C182.466 79.0131 182.58 79.2939 182.773 79.4967C184.488 81.89 186.373 84.1215 188.408 86.1688C189.898 87.6699 191.475 89.0569 193.128 90.3205C193.403 90.533 193.681 90.7389 193.962 90.9416C194.146 91.1238 194.383 91.2238 194.628 91.2228C194.645 91.2228 194.662 91.2195 194.68 91.2195C194.814 91.2125 194.946 91.1753 195.068 91.1102C195.19 91.0451 195.299 90.9534 195.389 90.8403L199.452 85.7733C199.634 85.5457 199.729 85.2456 199.716 84.9391C199.702 84.6326 199.581 84.3447 199.38 84.1388L199.325 84.093C194.889 81.3864 191.097 77.5095 188.272 72.792L188.229 72.7331C188.027 72.5273 187.762 72.4204 187.49 72.4357C187.219 72.451 186.964 72.5874 186.782 72.8148L182.718 77.8818C182.628 77.9943 182.558 78.1259 182.513 78.2689C182.468 78.412 182.448 78.5638 182.455 78.7155V78.7155ZM183.034 78.6828C183.031 78.6174 183.039 78.552 183.059 78.4903C183.078 78.4286 183.108 78.3718 183.147 78.3232L187.21 73.2529C187.249 73.2037 187.297 73.1639 187.35 73.1359C187.403 73.1078 187.461 73.092 187.52 73.0894C187.626 73.0822 187.731 73.1194 187.815 73.1941C190.681 77.9701 194.521 81.8985 199.012 84.6487C199.09 84.7398 199.135 84.861 199.137 84.9878C199.139 85.1146 199.099 85.2376 199.024 85.332L194.958 90.4022C194.919 90.4516 194.872 90.4916 194.819 90.5197C194.766 90.5478 194.709 90.5634 194.651 90.5657C194.533 90.5722 194.418 90.5264 194.33 90.4382L194.292 90.4055C193.678 89.9609 193.074 89.4956 192.477 89.0096C191.343 88.0976 190.24 87.1136 189.169 86.0577C187.007 83.9271 185.012 81.5886 183.207 79.0685L183.178 79.0326C183.092 78.9418 183.04 78.8162 183.034 78.6828V78.6828Z" fill="#3F3D56"/>
<path d="M193.076 84.2839C193.416 83.8596 192.657 82.457 191.38 81.1509C190.103 79.8449 188.792 79.13 188.452 79.5542C188.112 79.9784 188.871 81.3811 190.148 82.6871C191.425 83.9932 192.736 84.7081 193.076 84.2839Z" fill="#D44000"/>
<path d="M167.543 132.903L163.995 132.902L162.306 117.444L167.543 117.444L167.543 132.903Z" fill="#FFB8B8"/>
<path d="M168.448 136.787L157.007 136.787V136.624C157.007 135.963 157.122 135.309 157.346 134.699C157.57 134.088 157.898 133.534 158.311 133.067C158.725 132.6 159.216 132.229 159.756 131.977C160.296 131.724 160.875 131.594 161.46 131.594H161.46L168.448 131.594L168.448 136.787Z" fill="#2F2E41"/>
<path d="M177.961 132.903L174.414 132.902L172.725 117.444L177.962 117.444L177.961 132.903Z" fill="#FFB8B8"/>
<path d="M178.866 136.787L167.426 136.787V136.624C167.426 135.963 167.541 135.309 167.765 134.699C167.988 134.088 168.316 133.534 168.73 133.067C169.144 132.6 169.634 132.229 170.175 131.977C170.715 131.724 171.294 131.594 171.879 131.594H171.879L178.867 131.594L178.866 136.787Z" fill="#2F2E41"/>
<path d="M180.343 70.4288L179.495 127.21C179.493 127.39 179.457 127.567 179.391 127.731C179.325 127.894 179.23 128.041 179.111 128.161C178.993 128.281 178.854 128.372 178.703 128.429C178.552 128.485 178.392 128.506 178.233 128.49L174.081 128.064C173.809 128.036 173.554 127.9 173.362 127.68C173.17 127.46 173.053 127.17 173.032 126.862L170.601 91.4441C170.595 91.3609 170.562 91.2833 170.507 91.2273C170.452 91.1712 170.381 91.1409 170.307 91.1425C170.233 91.1442 170.162 91.1777 170.11 91.2361C170.057 91.2946 170.026 91.3736 170.023 91.457L168.808 127.686C168.797 128.024 168.67 128.344 168.454 128.579C168.239 128.813 167.951 128.944 167.652 128.944H163.199C162.904 128.944 162.62 128.817 162.406 128.589C162.191 128.361 162.061 128.049 162.043 127.717L158.926 70.1018L177.449 64.8714L180.343 70.4288Z" fill="#2F2E41"/>
<path d="M166.908 17.112C170.834 17.112 174.016 13.5173 174.016 9.08291C174.016 4.64858 170.834 1.05383 166.908 1.05383C162.982 1.05383 159.8 4.64858 159.8 9.08291C159.8 13.5173 162.982 17.112 166.908 17.112Z" fill="#FFB8B8"/>
<path d="M158.292 72.1178C158.169 71.9835 158.07 71.8229 158.003 71.6452C157.935 71.4676 157.899 71.2766 157.897 71.0832L157.418 32.364C157.389 30.3944 157.913 28.4651 158.916 26.8533C159.919 25.2416 161.348 24.0302 162.998 23.3933C163.664 19.9806 167.208 19.5532 169.275 19.6042C169.79 19.6168 170.296 19.7696 170.748 20.0497C171.2 20.3299 171.586 20.7291 171.873 21.2135L173.354 23.7231L176.619 25.8847C178.129 26.8808 179.321 28.3932 180.022 30.2038C180.723 32.0144 180.896 34.0295 180.517 35.9587L180.014 38.541C178.245 47.681 178.413 57.1642 180.506 66.2167L181.517 70.5724C181.57 70.7993 181.574 71.037 181.529 71.2659C181.483 71.4948 181.39 71.7082 181.257 71.8882C181.124 72.0683 180.955 72.2098 180.764 72.3009C180.572 72.3921 180.365 72.4302 180.158 72.4122L178.983 72.31C178.678 72.2839 178.391 72.1373 178.172 71.8959C177.954 71.6545 177.817 71.3337 177.787 70.99L177.593 68.7942C177.589 68.7539 177.572 68.7165 177.546 68.6893C177.519 68.6621 177.484 68.647 177.449 68.647C177.413 68.647 177.378 68.6621 177.351 68.6893C177.325 68.7165 177.308 68.7539 177.305 68.7942L177.116 70.9201C177.085 71.2792 176.937 71.6126 176.702 71.8568C176.467 72.1011 176.16 72.2391 175.841 72.2446L159.219 72.5335C159.212 72.5335 159.206 72.5338 159.199 72.5338C158.86 72.5346 158.534 72.3852 158.292 72.1178Z" fill="#3F3D56"/>
<path d="M167.464 13.711C167.493 14.846 168.191 15.5027 169.047 16.0972C169.904 16.6917 170.905 16.9494 171.886 17.1981C172.017 17.2771 172.165 17.3165 172.314 17.3123C172.463 17.3082 172.609 17.2607 172.737 17.1745C172.865 17.0883 172.971 16.9662 173.046 16.82C173.12 16.6739 173.159 16.5086 173.161 16.3401L174.06 12.4751C174.378 11.2404 174.61 9.97935 174.753 8.70358C174.969 6.24882 174.454 3.60812 172.938 1.83327C171.421 0.0584252 168.79 -0.572061 166.972 0.79543C164.815 -2.31662 154.955 4.55906 157.387 6.7231C157.82 7.10808 158.481 6.62094 159.031 6.57373C159.58 6.52651 160.195 6.63563 160.544 7.1171C161 7.74613 160.801 8.68314 160.989 9.46783C161.067 9.74393 161.192 9.99992 161.358 10.221C161.524 10.4422 161.727 10.624 161.955 10.7562C162.183 10.8883 162.432 10.9681 162.688 10.991C162.944 11.0138 163.201 10.9793 163.445 10.8893C163.899 10.6366 164.326 10.3264 164.718 9.96464C165.139 9.64768 165.672 9.41348 166.146 9.61338C166.771 9.87689 166.993 10.7413 167.05 11.4923C167.145 12.2413 167.283 12.9824 167.464 13.711Z" fill="#2F2E41"/>
<path opacity="0.2" d="M165.804 35.2297L164.646 51.2479L158.568 67.92L167.54 51.5748L165.804 35.2297Z" fill="black"/>
<path d="M157.147 74.1287C157.479 73.8278 157.748 73.4484 157.936 73.0173C158.124 72.5861 158.226 72.1136 158.235 71.6332C158.244 71.1527 158.159 70.6759 157.987 70.2363C157.815 69.7968 157.56 69.4052 157.239 69.0891L161.111 58.2569L155.843 59.4585L152.974 69.5608C152.539 70.2041 152.329 71.0051 152.383 71.812C152.436 72.6188 152.75 73.3755 153.264 73.9385C153.779 74.5016 154.458 74.8319 155.174 74.867C155.889 74.902 156.592 74.6393 157.147 74.1287V74.1287Z" fill="#FFB8B8"/>
<path d="M156.865 69.3513L153.883 68.1373C153.576 68.0104 153.322 67.7581 153.171 67.4302C153.021 67.1023 152.984 66.7225 153.069 66.3656L157.988 46.0259L158.738 27.6433C158.76 27.0885 158.88 26.5442 159.091 26.0423C159.301 25.5403 159.598 25.0906 159.964 24.7193C160.33 24.348 160.757 24.0625 161.221 23.8795C161.686 23.6965 162.178 23.6195 162.668 23.6531C163.159 23.6867 163.639 23.8302 164.081 24.0753C164.522 24.3203 164.916 24.662 165.239 25.0805C165.562 25.499 165.809 25.9859 165.964 26.5129C166.119 27.0399 166.18 27.5966 166.143 28.1505L164.804 48.279L158.536 68.4549C158.441 68.7597 158.26 69.0208 158.02 69.198C157.781 69.3751 157.497 69.4586 157.211 69.4354C157.093 69.4252 156.977 69.3969 156.865 69.3513V69.3513Z" fill="#3F3D56"/>
<path d="M187.597 75.1911C187.8 74.769 187.919 74.3017 187.946 73.8221C187.972 73.3424 187.905 72.8621 187.749 72.4149C187.593 71.9677 187.353 71.5645 187.044 71.2338C186.735 70.903 186.366 70.6528 185.963 70.5006L185.841 58.8195L181.389 62.221L182.188 72.792C182.006 73.5747 182.085 74.4054 182.41 75.1267C182.734 75.848 183.282 76.4097 183.949 76.7054C184.616 77.0011 185.355 77.0103 186.028 76.7312C186.7 76.4521 187.258 75.9041 187.597 75.1911L187.597 75.1911Z" fill="#FFB8B8"/>
<path d="M185.707 70.9052L182.541 71.0827C182.215 71.0993 181.894 70.977 181.643 70.7401C181.392 70.5031 181.229 70.1686 181.185 69.8024L178.787 48.8921L173.209 31.6023C173.04 31.0805 172.965 30.526 172.988 29.9712C173.011 29.4164 173.132 28.8722 173.343 28.3705C173.554 27.8687 173.851 27.4193 174.217 27.0483C174.583 26.6774 175.01 26.3924 175.475 26.2098C175.939 26.0272 176.431 25.9507 176.922 25.9848C177.413 26.0188 177.893 26.1628 178.334 26.4082C178.775 26.6536 179.168 26.9957 179.491 27.4144C179.814 27.8332 180.061 28.3203 180.215 28.8475L185.845 48.005L186.943 69.351C186.959 69.6737 186.881 69.9934 186.721 70.2611C186.56 70.5287 186.327 70.7294 186.055 70.8322C185.943 70.8742 185.826 70.8988 185.707 70.9052V70.9052Z" fill="#3F3D56"/>
<path d="M223.711 136.953H113.444C113.367 136.953 113.294 136.919 113.239 136.858C113.185 136.796 113.155 136.713 113.155 136.626C113.155 136.54 113.185 136.457 113.239 136.395C113.294 136.334 113.367 136.299 113.444 136.299H223.711C223.787 136.299 223.861 136.334 223.915 136.395C223.969 136.457 224 136.54 224 136.626C224 136.713 223.969 136.796 223.915 136.858C223.861 136.919 223.787 136.953 223.711 136.953Z" fill="#3F3D56"/>
<path d="M93.5438 66.3754C91.8816 66.3754 90.5597 65.817 89.6144 64.7156C87.4781 62.2262 87.6119 57.4278 87.7195 53.5722C87.7507 52.4505 87.7803 51.391 87.7504 50.5035L87.7502 50.4901C87.7578 48.7561 88.3707 47.0954 89.456 45.869C90.5412 44.6425 92.0111 43.9493 93.5463 43.9399H107.327C108.987 43.9399 110.308 44.4974 111.252 45.5974C113.388 48.0848 113.256 52.882 113.15 56.7367C113.119 57.8607 113.089 58.9225 113.12 59.8116C113.115 61.5482 112.502 63.2121 111.416 64.4413C110.33 65.6706 108.858 66.3657 107.321 66.3754H93.5438ZM88.329 50.4854C88.3593 51.3942 88.3295 52.4622 88.2979 53.5928C88.1939 57.325 88.0644 61.97 90.03 64.2606C90.8738 65.2437 92.0232 65.7216 93.5437 65.7216H107.32C108.703 65.7133 110.027 65.0892 111.004 63.9848C111.982 62.8804 112.534 61.3849 112.541 59.8232C112.51 58.9249 112.54 57.8521 112.571 56.7162C112.674 52.9849 112.802 48.3411 110.837 46.0526C109.994 45.0709 108.845 44.5937 107.327 44.5937H93.5471C92.1659 44.6024 90.8435 45.2259 89.8666 46.3288C88.8897 47.4318 88.3373 48.9253 88.329 50.4854V50.4854Z" fill="#3F3D56"/>
<path d="M18.838 24.0383C16.4216 24.0217 14.0578 23.2397 12.0153 21.7811C9.02315 19.6809 6.76388 16.3174 6.1192 13.0035L6.05458 12.6713L6.86319 12.5079C13.2283 10.9211 20.4276 16.0346 21.97 23.2422L22.0376 23.5583L21.7581 23.6363C20.8027 23.9034 19.8222 24.0384 18.838 24.0383ZM6.75455 13.1941C7.44908 16.2341 9.55694 19.2857 12.3208 21.2257C14.9932 23.1575 18.2316 23.8226 21.3349 23.0769C19.7212 16.3618 12.9643 11.6496 6.98252 13.1478L6.75455 13.1941Z" fill="#3F3D56"/>
<path d="M10.8089 61.1882C8.91538 61.1882 7.37704 60.2311 6.47388 58.4852C5.96767 57.4694 5.70159 56.3235 5.70126 55.1579C5.70094 53.9923 5.96639 52.8462 6.47205 51.8301C7.38964 50.0543 8.96467 49.091 10.9098 49.1247H29.2713C31.2099 49.0968 32.7861 50.0558 33.7042 51.8336C34.2099 52.8495 34.4755 53.9953 34.4754 55.1607C34.4754 56.3262 34.2096 57.472 33.7037 58.4877C32.7859 60.2614 31.2102 61.2088 29.2669 61.1874H10.9051C10.873 61.1879 10.8409 61.1881 10.8089 61.1882ZM10.8196 49.7777C9.13099 49.7777 7.76695 50.6211 6.97195 52.1597C6.51641 53.0751 6.27728 54.1076 6.27759 55.1577C6.27789 56.2078 6.51762 57.2402 6.97369 58.1552C7.78208 59.7182 9.17407 60.5642 10.9008 60.5336H29.2713C30.9998 60.5647 32.3961 59.719 33.204 58.1578C33.6597 57.2427 33.8991 56.2104 33.8991 55.1605C33.8992 54.1105 33.6599 53.0783 33.2043 52.1631C32.3959 50.5978 30.9993 49.755 29.2754 49.7785H10.9038C10.8757 49.778 10.8475 49.7777 10.8196 49.7777H10.8196Z" fill="#3F3D56"/>
<path d="M98.2558 51.7137H92.4675C92.0838 51.7137 91.7157 51.5415 91.4443 51.235C91.1729 50.9285 91.0205 50.5127 91.0205 50.0792C91.0205 49.6457 91.1729 49.23 91.4443 48.9234C91.7157 48.6169 92.0838 48.4447 92.4675 48.4447H98.2558C98.6396 48.4447 99.0076 48.6169 99.279 48.9234C99.5504 49.23 99.7029 49.6457 99.7029 50.0792C99.7029 50.5127 99.5504 50.9285 99.279 51.235C99.0076 51.5415 98.6396 51.7137 98.2558 51.7137Z" fill="#D44000"/>
<path d="M98.2558 56.9442H92.4675C92.0838 56.9442 91.7157 56.772 91.4443 56.4654C91.1729 56.1589 91.0205 55.7432 91.0205 55.3097C91.0205 54.8762 91.1729 54.4604 91.4443 54.1539C91.7157 53.8474 92.0838 53.6751 92.4675 53.6751H98.2558C98.6396 53.6751 99.0076 53.8474 99.279 54.1539C99.5504 54.4604 99.7029 54.8762 99.7029 55.3097C99.7029 55.7432 99.5504 56.1589 99.279 56.4654C99.0076 56.772 98.6396 56.9442 98.2558 56.9442Z" fill="#D44000"/>
<path d="M98.2558 62.1746H92.4675C92.0838 62.1746 91.7157 62.0024 91.4443 61.6959C91.1729 61.3894 91.0205 60.9736 91.0205 60.5401C91.0205 60.1066 91.1729 59.6909 91.4443 59.3844C91.7157 59.0778 92.0838 58.9056 92.4675 58.9056H98.2558C98.6396 58.9056 99.0076 59.0778 99.279 59.3844C99.5504 59.6909 99.7029 60.1066 99.7029 60.5401C99.7029 60.9736 99.5504 61.3894 99.279 61.6959C99.0076 62.0024 98.6396 62.1746 98.2558 62.1746Z" fill="#D44000"/>
<path d="M108.385 51.7137H102.597C102.213 51.7137 101.845 51.5415 101.574 51.235C101.302 50.9285 101.15 50.5127 101.15 50.0792C101.15 49.6457 101.302 49.23 101.574 48.9234C101.845 48.6169 102.213 48.4447 102.597 48.4447H108.385C108.769 48.4447 109.137 48.6169 109.409 48.9234C109.68 49.23 109.832 49.6457 109.832 50.0792C109.832 50.5127 109.68 50.9285 109.409 51.235C109.137 51.5415 108.769 51.7137 108.385 51.7137Z" fill="#D44000"/>
<path d="M108.385 56.9442H102.597C102.213 56.9442 101.845 56.772 101.574 56.4654C101.302 56.1589 101.15 55.7432 101.15 55.3097C101.15 54.8762 101.302 54.4604 101.574 54.1539C101.845 53.8474 102.213 53.6751 102.597 53.6751H108.385C108.769 53.6751 109.137 53.8474 109.409 54.1539C109.68 54.4604 109.832 54.8762 109.832 55.3097C109.832 55.7432 109.68 56.1589 109.409 56.4654C109.137 56.772 108.769 56.9442 108.385 56.9442Z" fill="#D44000"/>
<path d="M108.385 62.1746H102.597C102.213 62.1746 101.845 62.0024 101.574 61.6959C101.302 61.3894 101.15 60.9736 101.15 60.5401C101.15 60.1066 101.302 59.6909 101.574 59.3844C101.845 59.0778 102.213 58.9056 102.597 58.9056H108.385C108.769 58.9056 109.137 59.0778 109.409 59.3844C109.68 59.6909 109.832 60.1066 109.832 60.5401C109.832 60.9736 109.68 61.3894 109.409 61.6959C109.137 62.0024 108.769 62.1746 108.385 62.1746Z" fill="#D44000"/>
<path d="M121.554 28.4843H0.347351V29.1381H121.554V28.4843Z" fill="#3F3D56"/>
<path d="M112.003 83.2599H9.55064C7.01853 83.2567 4.59095 82.1191 2.80048 80.0967C1.01 78.0743 0.00286027 75.3322 0 72.4721V16.2448C0.00286027 13.3847 1.01 10.6426 2.80048 8.62021C4.59095 6.59781 7.01853 5.4602 9.55064 5.45697H112.003C114.535 5.4602 116.963 6.59781 118.753 8.62021C120.544 10.6426 121.551 13.3847 121.554 16.2448V72.4721C121.551 75.3322 120.544 78.0743 118.753 80.0967C116.963 82.1191 114.535 83.2567 112.003 83.2599V83.2599ZM9.55064 6.11078C7.172 6.11383 4.89155 7.1825 3.20959 9.08234C1.52764 10.9822 0.581529 13.558 0.578827 16.2448V72.4721C0.58153 75.1589 1.52764 77.7348 3.2096 79.6346C4.89155 81.5344 7.172 82.6031 9.55064 82.6061H112.003C114.382 82.6031 116.662 81.5344 118.344 79.6346C120.026 77.7348 120.972 75.1589 120.975 72.4721V16.2448C120.972 13.558 120.026 10.9822 118.344 9.08233C116.662 7.18249 114.382 6.11382 112.003 6.11078H9.55064Z" fill="#3F3D56"/>
</g>
<defs>
<clipPath id="clip0">
<rect width="224" height="137" fill="white"/>
</clipPath>
</defs>
</svg>
